<svg width="359" height="130" viewBox="0 0 359 130" fill="none" xmlns="http://www.w3.org/2000/svg">
<path d="M2 2C19.7562 2 19.7562 20 37.5125 20C55.2687 20 55.2687 2 73.025 2C90.7812 2 90.7812 20 108.496 20C126.253 20 126.253 2 143.967 2C161.723 2 161.723 20 179.438 20C197.194 20 197.194 2 214.949 2C232.706 2 232.706 20 250.463 20C268.218 20 268.218 2 285.975 2C303.731 2 303.731 20 321.488 20C339.243 20 339.243 2 357 2" stroke="#4F4F4F" stroke-width="3" stroke-miterlimit="10" stroke-linecap="round"/>
<path d="M2 56C19.7562 56 19.7562 74 37.5125 74C55.2687 74 55.2687 56 73.025 56C90.7812 56 90.7812 74 108.496 74C126.253 74 126.253 56 143.967 56C161.723 56 161.723 74 179.438 74C197.194 74 197.194 56 214.949 56C232.706 56 232.706 74 250.463 74C268.218 74 268.218 56 285.975 56C303.731 56 303.731 74 321.488 74C339.243 74 339.243 56 357 56" stroke="#4F4F4F" stroke-width="3" stroke-miterlimit="10" stroke-linecap="round"/>
<path d="M2 110C19.7562 110 19.7562 128 37.5125 128C55.2687 128 55.2687 110 73.025 110C90.7812 110 90.7812 128 108.496 128C126.253 128 126.253 110 143.967 110C161.723 110 161.723 128 179.438 128C197.194 128 197.194 110 214.949 110C232.706 110 232.706 128 250.463 128C268.218 128 268.218 110 285.975 110C303.731 110 303.731 128 321.488 128C339.243 128 339.243 110 357 110" stroke="#4F4F4F" stroke-width="3" stroke-miterlimit="10" stroke-linecap="round"/>
</svg>
