<svg width="248" height="248" viewBox="0 0 248 248" fill="none" xmlns="http://www.w3.org/2000/svg">
<path d="M124 0L124.024 123.878L171.453 9.4389L124.069 123.897L211.681 36.3188L124.103 123.931L238.561 76.547L124.122 123.976L248 124L124.122 124.024L238.561 171.453L124.103 124.069L211.681 211.681L124.069 124.103L171.453 238.561L124.024 124.122L124 248L123.976 124.122L76.547 238.561L123.931 124.103L36.3188 211.681L123.897 124.069L9.4389 171.453L123.878 124.024L0 124L123.878 123.976L9.4389 76.547L123.897 123.931L36.3188 36.3188L123.931 123.897L76.547 9.4389L123.976 123.878L124 0Z" fill="#F0C3D2" stroke="#4F4F4F" stroke-width="4"/>
</svg>
