<svg width="650" height="168" viewBox="0 0 650 168" fill="none" xmlns="http://www.w3.org/2000/svg">
<rect width="650" height="168" rx="24" fill="#49342F"/>
<path d="M97.128 46.592V43.952L104.976 32.72H108.888V43.664H111V46.592H108.888V50H105.528V46.592H97.128ZM105.744 36.32L100.824 43.664H105.744V36.32ZM115.011 50.168C114.403 50.168 113.899 49.984 113.499 49.616C113.115 49.232 112.923 48.76 112.923 48.2C112.923 47.64 113.115 47.176 113.499 46.808C113.899 46.424 114.403 46.232 115.011 46.232C115.603 46.232 116.091 46.424 116.475 46.808C116.859 47.176 117.051 47.64 117.051 48.2C117.051 48.76 116.859 49.232 116.475 49.616C116.091 49.984 115.603 50.168 115.011 50.168ZM123.262 45.08C123.39 45.784 123.678 46.328 124.126 46.712C124.59 47.08 125.206 47.264 125.974 47.264C126.966 47.264 127.686 46.856 128.134 46.04C128.582 45.208 128.806 43.816 128.806 41.864C128.438 42.376 127.918 42.776 127.246 43.064C126.59 43.352 125.878 43.496 125.11 43.496C124.086 43.496 123.158 43.288 122.326 42.872C121.51 42.44 120.862 41.808 120.382 40.976C119.902 40.128 119.662 39.104 119.662 37.904C119.662 36.128 120.19 34.72 121.246 33.68C122.302 32.624 123.742 32.096 125.566 32.096C127.838 32.096 129.438 32.824 130.366 34.28C131.31 35.736 131.782 37.928 131.782 40.856C131.782 42.936 131.598 44.64 131.23 45.968C130.878 47.296 130.262 48.304 129.382 48.992C128.518 49.68 127.334 50.024 125.83 50.024C124.646 50.024 123.638 49.8 122.806 49.352C121.974 48.888 121.334 48.288 120.886 47.552C120.454 46.8 120.206 45.976 120.142 45.08H123.262ZM125.806 40.76C126.638 40.76 127.294 40.504 127.774 39.992C128.254 39.48 128.494 38.792 128.494 37.928C128.494 36.984 128.238 36.256 127.726 35.744C127.23 35.216 126.55 34.952 125.686 34.952C124.822 34.952 124.134 35.224 123.622 35.768C123.126 36.296 122.878 37 122.878 37.88C122.878 38.728 123.118 39.424 123.598 39.968C124.094 40.496 124.83 40.76 125.806 40.76Z" fill="white"/>
<rect x="96" y="76" width="38" height="4" fill="white"/>
<path d="M98.688 112.816H102.592V114H97.232V102.848H98.688V112.816ZM107.962 114.144C107.141 114.144 106.394 113.957 105.722 113.584C105.061 113.211 104.538 112.683 104.154 112C103.781 111.307 103.594 110.507 103.594 109.6C103.594 108.704 103.786 107.915 104.17 107.232C104.565 106.539 105.098 106.011 105.77 105.648C106.442 105.275 107.194 105.088 108.026 105.088C108.858 105.088 109.61 105.275 110.282 105.648C110.954 106.011 111.482 106.533 111.866 107.216C112.261 107.899 112.458 108.693 112.458 109.6C112.458 110.507 112.256 111.307 111.85 112C111.456 112.683 110.917 113.211 110.234 113.584C109.552 113.957 108.794 114.144 107.962 114.144ZM107.962 112.864C108.485 112.864 108.976 112.741 109.434 112.496C109.893 112.251 110.261 111.883 110.538 111.392C110.826 110.901 110.97 110.304 110.97 109.6C110.97 108.896 110.832 108.299 110.554 107.808C110.277 107.317 109.914 106.955 109.466 106.72C109.018 106.475 108.533 106.352 108.01 106.352C107.477 106.352 106.986 106.475 106.538 106.72C106.101 106.955 105.749 107.317 105.482 107.808C105.216 108.299 105.082 108.896 105.082 109.6C105.082 110.315 105.21 110.917 105.466 111.408C105.733 111.899 106.085 112.267 106.522 112.512C106.96 112.747 107.44 112.864 107.962 112.864ZM115.829 106.656C116.085 106.155 116.447 105.765 116.917 105.488C117.397 105.211 117.978 105.072 118.661 105.072V106.576H118.277C116.645 106.576 115.829 107.461 115.829 109.232V114H114.373V105.232H115.829V106.656ZM128.341 109.28C128.341 109.557 128.325 109.851 128.293 110.16H121.285C121.339 111.024 121.632 111.701 122.165 112.192C122.709 112.672 123.365 112.912 124.133 112.912C124.763 112.912 125.285 112.768 125.701 112.48C126.128 112.181 126.427 111.787 126.597 111.296H128.165C127.931 112.139 127.461 112.827 126.757 113.36C126.053 113.883 125.179 114.144 124.133 114.144C123.301 114.144 122.555 113.957 121.893 113.584C121.243 113.211 120.731 112.683 120.357 112C119.984 111.307 119.797 110.507 119.797 109.6C119.797 108.693 119.979 107.899 120.341 107.216C120.704 106.533 121.211 106.011 121.861 105.648C122.523 105.275 123.28 105.088 124.133 105.088C124.965 105.088 125.701 105.269 126.341 105.632C126.981 105.995 127.472 106.496 127.813 107.136C128.165 107.765 128.341 108.48 128.341 109.28ZM126.837 108.976C126.837 108.421 126.715 107.947 126.469 107.552C126.224 107.147 125.888 106.843 125.461 106.64C125.045 106.427 124.581 106.32 124.069 106.32C123.333 106.32 122.704 106.555 122.181 107.024C121.669 107.493 121.376 108.144 121.301 108.976H126.837ZM140.807 105.072C141.49 105.072 142.098 105.216 142.631 105.504C143.165 105.781 143.586 106.203 143.895 106.768C144.205 107.333 144.359 108.021 144.359 108.832V114H142.919V109.04C142.919 108.165 142.701 107.499 142.263 107.04C141.837 106.571 141.255 106.336 140.519 106.336C139.762 106.336 139.159 106.581 138.711 107.072C138.263 107.552 138.039 108.251 138.039 109.168V114H136.599V109.04C136.599 108.165 136.381 107.499 135.943 107.04C135.517 106.571 134.935 106.336 134.199 106.336C133.442 106.336 132.839 106.581 132.391 107.072C131.943 107.552 131.719 108.251 131.719 109.168V114H130.263V105.232H131.719V106.496C132.007 106.037 132.391 105.685 132.871 105.44C133.362 105.195 133.901 105.072 134.487 105.072C135.223 105.072 135.874 105.237 136.439 105.568C137.005 105.899 137.426 106.384 137.703 107.024C137.949 106.405 138.354 105.925 138.919 105.584C139.485 105.243 140.114 105.072 140.807 105.072ZM151.765 103.808C151.488 103.808 151.253 103.712 151.061 103.52C150.869 103.328 150.773 103.093 150.773 102.816C150.773 102.539 150.869 102.304 151.061 102.112C151.253 101.92 151.488 101.824 151.765 101.824C152.032 101.824 152.256 101.92 152.437 102.112C152.629 102.304 152.725 102.539 152.725 102.816C152.725 103.093 152.629 103.328 152.437 103.52C152.256 103.712 152.032 103.808 151.765 103.808ZM152.469 105.232V114H151.013V105.232H152.469ZM156.407 106.848C156.695 106.347 157.121 105.931 157.687 105.6C158.263 105.259 158.929 105.088 159.687 105.088C160.465 105.088 161.169 105.275 161.799 105.648C162.439 106.021 162.94 106.549 163.303 107.232C163.665 107.904 163.847 108.688 163.847 109.584C163.847 110.469 163.665 111.259 163.303 111.952C162.94 112.645 162.439 113.184 161.799 113.568C161.169 113.952 160.465 114.144 159.687 114.144C158.94 114.144 158.279 113.979 157.703 113.648C157.137 113.307 156.705 112.885 156.407 112.384V118.16H154.951V105.232H156.407V106.848ZM162.359 109.584C162.359 108.923 162.225 108.347 161.959 107.856C161.692 107.365 161.329 106.992 160.871 106.736C160.423 106.48 159.927 106.352 159.383 106.352C158.849 106.352 158.353 106.485 157.895 106.752C157.447 107.008 157.084 107.387 156.807 107.888C156.54 108.379 156.407 108.949 156.407 109.6C156.407 110.261 156.54 110.843 156.807 111.344C157.084 111.835 157.447 112.213 157.895 112.48C158.353 112.736 158.849 112.864 159.383 112.864C159.927 112.864 160.423 112.736 160.871 112.48C161.329 112.213 161.692 111.835 161.959 111.344C162.225 110.843 162.359 110.256 162.359 109.584ZM168.867 114.144C168.195 114.144 167.593 114.032 167.059 113.808C166.526 113.573 166.105 113.253 165.795 112.848C165.486 112.432 165.315 111.957 165.283 111.424H166.787C166.83 111.861 167.033 112.219 167.395 112.496C167.769 112.773 168.254 112.912 168.851 112.912C169.406 112.912 169.843 112.789 170.163 112.544C170.483 112.299 170.643 111.989 170.643 111.616C170.643 111.232 170.473 110.949 170.131 110.768C169.79 110.576 169.262 110.389 168.547 110.208C167.897 110.037 167.363 109.867 166.947 109.696C166.542 109.515 166.19 109.253 165.891 108.912C165.603 108.56 165.459 108.101 165.459 107.536C165.459 107.088 165.593 106.677 165.859 106.304C166.126 105.931 166.505 105.637 166.995 105.424C167.486 105.2 168.046 105.088 168.675 105.088C169.646 105.088 170.43 105.333 171.027 105.824C171.625 106.315 171.945 106.987 171.987 107.84H170.531C170.499 107.381 170.313 107.013 169.971 106.736C169.641 106.459 169.193 106.32 168.627 106.32C168.105 106.32 167.689 106.432 167.379 106.656C167.07 106.88 166.915 107.173 166.915 107.536C166.915 107.824 167.006 108.064 167.187 108.256C167.379 108.437 167.614 108.587 167.891 108.704C168.179 108.811 168.574 108.933 169.075 109.072C169.705 109.243 170.217 109.413 170.611 109.584C171.006 109.744 171.342 109.989 171.619 110.32C171.907 110.651 172.057 111.083 172.067 111.616C172.067 112.096 171.934 112.528 171.667 112.912C171.401 113.296 171.022 113.6 170.531 113.824C170.051 114.037 169.497 114.144 168.867 114.144ZM181.899 105.232V114H180.443V112.704C180.165 113.152 179.776 113.504 179.275 113.76C178.784 114.005 178.24 114.128 177.643 114.128C176.96 114.128 176.347 113.989 175.803 113.712C175.259 113.424 174.827 112.997 174.507 112.432C174.197 111.867 174.043 111.179 174.043 110.368V105.232H175.483V110.176C175.483 111.04 175.701 111.707 176.139 112.176C176.576 112.635 177.173 112.864 177.931 112.864C178.709 112.864 179.323 112.624 179.771 112.144C180.219 111.664 180.443 110.965 180.443 110.048V105.232H181.899ZM194.901 105.072C195.584 105.072 196.192 105.216 196.725 105.504C197.258 105.781 197.68 106.203 197.989 106.768C198.298 107.333 198.453 108.021 198.453 108.832V114H197.013V109.04C197.013 108.165 196.794 107.499 196.357 107.04C195.93 106.571 195.349 106.336 194.613 106.336C193.856 106.336 193.253 106.581 192.805 107.072C192.357 107.552 192.133 108.251 192.133 109.168V114H190.693V109.04C190.693 108.165 190.474 107.499 190.037 107.04C189.61 106.571 189.029 106.336 188.293 106.336C187.536 106.336 186.933 106.581 186.485 107.072C186.037 107.552 185.813 108.251 185.813 109.168V114H184.357V105.232H185.813V106.496C186.101 106.037 186.485 105.685 186.965 105.44C187.456 105.195 187.994 105.072 188.581 105.072C189.317 105.072 189.968 105.237 190.533 105.568C191.098 105.899 191.52 106.384 191.797 107.024C192.042 106.405 192.448 105.925 193.013 105.584C193.578 105.243 194.208 105.072 194.901 105.072ZM96.688 133.584C96.688 132.688 96.8693 131.904 97.232 131.232C97.5947 130.549 98.0907 130.021 98.72 129.648C99.36 129.275 100.075 129.088 100.864 129.088C101.547 129.088 102.181 129.248 102.768 129.568C103.355 129.877 103.803 130.288 104.112 130.8V126.16H105.584V138H104.112V136.352C103.824 136.875 103.397 137.307 102.832 137.648C102.267 137.979 101.605 138.144 100.848 138.144C100.069 138.144 99.36 137.952 98.72 137.568C98.0907 137.184 97.5947 136.645 97.232 135.952C96.8693 135.259 96.688 134.469 96.688 133.584ZM104.112 133.6C104.112 132.939 103.979 132.363 103.712 131.872C103.445 131.381 103.083 131.008 102.624 130.752C102.176 130.485 101.68 130.352 101.136 130.352C100.592 130.352 100.096 130.48 99.648 130.736C99.2 130.992 98.8427 131.365 98.576 131.856C98.3093 132.347 98.176 132.923 98.176 133.584C98.176 134.256 98.3093 134.843 98.576 135.344C98.8427 135.835 99.2 136.213 99.648 136.48C100.096 136.736 100.592 136.864 101.136 136.864C101.68 136.864 102.176 136.736 102.624 136.48C103.083 136.213 103.445 135.835 103.712 135.344C103.979 134.843 104.112 134.261 104.112 133.6ZM111.869 138.144C111.047 138.144 110.301 137.957 109.629 137.584C108.967 137.211 108.445 136.683 108.061 136C107.687 135.307 107.501 134.507 107.501 133.6C107.501 132.704 107.693 131.915 108.077 131.232C108.471 130.539 109.005 130.011 109.677 129.648C110.349 129.275 111.101 129.088 111.933 129.088C112.765 129.088 113.517 129.275 114.189 129.648C114.861 130.011 115.389 130.533 115.773 131.216C116.167 131.899 116.365 132.693 116.365 133.6C116.365 134.507 116.162 135.307 115.757 136C115.362 136.683 114.823 137.211 114.141 137.584C113.458 137.957 112.701 138.144 111.869 138.144ZM111.869 136.864C112.391 136.864 112.882 136.741 113.341 136.496C113.799 136.251 114.167 135.883 114.445 135.392C114.733 134.901 114.877 134.304 114.877 133.6C114.877 132.896 114.738 132.299 114.461 131.808C114.183 131.317 113.821 130.955 113.373 130.72C112.925 130.475 112.439 130.352 111.917 130.352C111.383 130.352 110.893 130.475 110.445 130.72C110.007 130.955 109.655 131.317 109.389 131.808C109.122 132.299 108.989 132.896 108.989 133.6C108.989 134.315 109.117 134.917 109.373 135.408C109.639 135.899 109.991 136.267 110.429 136.512C110.866 136.747 111.346 136.864 111.869 136.864ZM119.735 126.16V138H118.279V126.16H119.735ZM126.04 138.144C125.219 138.144 124.472 137.957 123.8 137.584C123.139 137.211 122.616 136.683 122.232 136C121.859 135.307 121.672 134.507 121.672 133.6C121.672 132.704 121.864 131.915 122.248 131.232C122.643 130.539 123.176 130.011 123.848 129.648C124.52 129.275 125.272 129.088 126.104 129.088C126.936 129.088 127.688 129.275 128.36 129.648C129.032 130.011 129.56 130.533 129.944 131.216C130.339 131.899 130.536 132.693 130.536 133.6C130.536 134.507 130.334 135.307 129.928 136C129.534 136.683 128.995 137.211 128.312 137.584C127.63 137.957 126.872 138.144 126.04 138.144ZM126.04 136.864C126.563 136.864 127.054 136.741 127.512 136.496C127.971 136.251 128.339 135.883 128.616 135.392C128.904 134.901 129.048 134.304 129.048 133.6C129.048 132.896 128.91 132.299 128.632 131.808C128.355 131.317 127.992 130.955 127.544 130.72C127.096 130.475 126.611 130.352 126.088 130.352C125.555 130.352 125.064 130.475 124.616 130.72C124.179 130.955 123.827 131.317 123.56 131.808C123.294 132.299 123.16 132.896 123.16 133.6C123.16 134.315 123.288 134.917 123.544 135.408C123.811 135.899 124.163 136.267 124.6 136.512C125.038 136.747 125.518 136.864 126.04 136.864ZM133.907 130.656C134.163 130.155 134.525 129.765 134.995 129.488C135.475 129.211 136.056 129.072 136.739 129.072V130.576H136.355C134.723 130.576 133.907 131.461 133.907 133.232V138H132.451V129.232H133.907V130.656ZM142.141 133.584C142.141 132.688 142.322 131.904 142.685 131.232C143.048 130.549 143.544 130.021 144.173 129.648C144.813 129.275 145.522 129.088 146.301 129.088C147.069 129.088 147.736 129.253 148.301 129.584C148.866 129.915 149.288 130.331 149.565 130.832V129.232H151.037V138H149.565V136.368C149.277 136.88 148.845 137.307 148.269 137.648C147.704 137.979 147.042 138.144 146.285 138.144C145.506 138.144 144.802 137.952 144.173 137.568C143.544 137.184 143.048 136.645 142.685 135.952C142.322 135.259 142.141 134.469 142.141 133.584ZM149.565 133.6C149.565 132.939 149.432 132.363 149.165 131.872C148.898 131.381 148.536 131.008 148.077 130.752C147.629 130.485 147.133 130.352 146.589 130.352C146.045 130.352 145.549 130.48 145.101 130.736C144.653 130.992 144.296 131.365 144.029 131.856C143.762 132.347 143.629 132.923 143.629 133.584C143.629 134.256 143.762 134.843 144.029 135.344C144.296 135.835 144.653 136.213 145.101 136.48C145.549 136.736 146.045 136.864 146.589 136.864C147.133 136.864 147.629 136.736 148.077 136.48C148.536 136.213 148.898 135.835 149.165 135.344C149.432 134.843 149.565 134.261 149.565 133.6ZM164.042 129.072C164.724 129.072 165.332 129.216 165.866 129.504C166.399 129.781 166.82 130.203 167.13 130.768C167.439 131.333 167.594 132.021 167.594 132.832V138H166.154V133.04C166.154 132.165 165.935 131.499 165.498 131.04C165.071 130.571 164.49 130.336 163.754 130.336C162.996 130.336 162.394 130.581 161.946 131.072C161.498 131.552 161.274 132.251 161.274 133.168V138H159.834V133.04C159.834 132.165 159.615 131.499 159.178 131.04C158.751 130.571 158.17 130.336 157.434 130.336C156.676 130.336 156.074 130.581 155.626 131.072C155.178 131.552 154.954 132.251 154.954 133.168V138H153.498V129.232H154.954V130.496C155.242 130.037 155.626 129.685 156.106 129.44C156.596 129.195 157.135 129.072 157.722 129.072C158.458 129.072 159.108 129.237 159.674 129.568C160.239 129.899 160.66 130.384 160.938 131.024C161.183 130.405 161.588 129.925 162.154 129.584C162.719 129.243 163.348 129.072 164.042 129.072ZM177.982 133.28C177.982 133.557 177.966 133.851 177.934 134.16H170.926C170.979 135.024 171.273 135.701 171.806 136.192C172.35 136.672 173.006 136.912 173.774 136.912C174.403 136.912 174.926 136.768 175.342 136.48C175.769 136.181 176.067 135.787 176.238 135.296H177.806C177.571 136.139 177.102 136.827 176.398 137.36C175.694 137.883 174.819 138.144 173.774 138.144C172.942 138.144 172.195 137.957 171.534 137.584C170.883 137.211 170.371 136.683 169.998 136C169.625 135.307 169.438 134.507 169.438 133.6C169.438 132.693 169.619 131.899 169.982 131.216C170.345 130.533 170.851 130.011 171.502 129.648C172.163 129.275 172.921 129.088 173.774 129.088C174.606 129.088 175.342 129.269 175.982 129.632C176.622 129.995 177.113 130.496 177.454 131.136C177.806 131.765 177.982 132.48 177.982 133.28ZM176.478 132.976C176.478 132.421 176.355 131.947 176.11 131.552C175.865 131.147 175.529 130.843 175.102 130.64C174.686 130.427 174.222 130.32 173.71 130.32C172.974 130.32 172.345 130.555 171.822 131.024C171.31 131.493 171.017 132.144 170.942 132.976H176.478ZM181.68 130.432V135.6C181.68 136.027 181.771 136.331 181.952 136.512C182.133 136.683 182.448 136.768 182.896 136.768H183.968V138H182.656C181.845 138 181.237 137.813 180.832 137.44C180.427 137.067 180.224 136.453 180.224 135.6V130.432H179.088V129.232H180.224V127.024H181.68V129.232H183.968V130.432H181.68Z" fill="white"/>
<path d="M274.2 40.736C272.6 39.904 271.8 38.616 271.8 36.872C271.8 36.008 272.016 35.224 272.448 34.52C272.896 33.8 273.56 33.232 274.44 32.816C275.336 32.384 276.424 32.168 277.704 32.168C278.984 32.168 280.064 32.384 280.944 32.816C281.84 33.232 282.504 33.8 282.936 34.52C283.384 35.224 283.608 36.008 283.608 36.872C283.608 37.752 283.392 38.528 282.96 39.2C282.528 39.856 281.952 40.368 281.232 40.736C282.112 41.12 282.8 41.68 283.296 42.416C283.792 43.152 284.04 44.024 284.04 45.032C284.04 46.12 283.76 47.072 283.2 47.888C282.656 48.688 281.904 49.304 280.944 49.736C279.984 50.168 278.904 50.384 277.704 50.384C276.504 50.384 275.424 50.168 274.464 49.736C273.52 49.304 272.768 48.688 272.208 47.888C271.664 47.072 271.392 46.12 271.392 45.032C271.392 44.024 271.64 43.152 272.136 42.416C272.632 41.664 273.32 41.104 274.2 40.736ZM280.344 37.352C280.344 36.568 280.104 35.96 279.624 35.528C279.16 35.096 278.52 34.88 277.704 34.88C276.904 34.88 276.264 35.096 275.784 35.528C275.32 35.96 275.088 36.576 275.088 37.376C275.088 38.096 275.328 38.672 275.808 39.104C276.304 39.536 276.936 39.752 277.704 39.752C278.472 39.752 279.104 39.536 279.6 39.104C280.096 38.656 280.344 38.072 280.344 37.352ZM277.704 42.2C276.792 42.2 276.048 42.432 275.472 42.896C274.912 43.36 274.632 44.024 274.632 44.888C274.632 45.688 274.904 46.344 275.448 46.856C276.008 47.352 276.76 47.6 277.704 47.6C278.648 47.6 279.392 47.344 279.936 46.832C280.48 46.32 280.752 45.672 280.752 44.888C280.752 44.04 280.472 43.384 279.912 42.92C279.352 42.44 278.616 42.2 277.704 42.2ZM297.83 35.048L291.446 50H288.038L294.47 35.432H286.262V32.552H297.83V35.048ZM308.914 36.872C308.754 36.2 308.474 35.696 308.074 35.36C307.69 35.024 307.13 34.856 306.394 34.856C305.29 34.856 304.474 35.304 303.946 36.2C303.434 37.08 303.17 38.52 303.154 40.52C303.538 39.88 304.098 39.384 304.834 39.032C305.57 38.664 306.37 38.48 307.234 38.48C308.274 38.48 309.194 38.704 309.994 39.152C310.794 39.6 311.418 40.256 311.866 41.12C312.314 41.968 312.538 42.992 312.538 44.192C312.538 45.328 312.306 46.344 311.842 47.24C311.394 48.12 310.73 48.808 309.85 49.304C308.97 49.8 307.922 50.048 306.706 50.048C305.042 50.048 303.73 49.68 302.77 48.944C301.826 48.208 301.162 47.184 300.778 45.872C300.41 44.544 300.226 42.912 300.226 40.976C300.226 38.048 300.73 35.84 301.738 34.352C302.746 32.848 304.338 32.096 306.514 32.096C308.194 32.096 309.498 32.552 310.426 33.464C311.354 34.376 311.89 35.512 312.034 36.872H308.914ZM306.466 41.24C305.618 41.24 304.906 41.488 304.33 41.984C303.754 42.48 303.466 43.2 303.466 44.144C303.466 45.088 303.73 45.832 304.258 46.376C304.802 46.92 305.562 47.192 306.538 47.192C307.402 47.192 308.082 46.928 308.578 46.4C309.09 45.872 309.346 45.16 309.346 44.264C309.346 43.336 309.098 42.6 308.602 42.056C308.122 41.512 307.41 41.24 306.466 41.24ZM325.034 50L318.938 42.536V50H315.578V33.248H318.938V40.76L325.034 33.248H329.09L322.178 41.552L329.282 50H325.034Z" fill="white"/>
<rect x="270" y="76" width="38" height="4" fill="white"/>
<path d="M272.688 112.816H276.592V114H271.232V102.848H272.688V112.816ZM281.962 114.144C281.141 114.144 280.394 113.957 279.722 113.584C279.061 113.211 278.538 112.683 278.154 112C277.781 111.307 277.594 110.507 277.594 109.6C277.594 108.704 277.786 107.915 278.17 107.232C278.565 106.539 279.098 106.011 279.77 105.648C280.442 105.275 281.194 105.088 282.026 105.088C282.858 105.088 283.61 105.275 284.282 105.648C284.954 106.011 285.482 106.533 285.866 107.216C286.261 107.899 286.458 108.693 286.458 109.6C286.458 110.507 286.256 111.307 285.85 112C285.456 112.683 284.917 113.211 284.234 113.584C283.552 113.957 282.794 114.144 281.962 114.144ZM281.962 112.864C282.485 112.864 282.976 112.741 283.434 112.496C283.893 112.251 284.261 111.883 284.538 111.392C284.826 110.901 284.97 110.304 284.97 109.6C284.97 108.896 284.832 108.299 284.554 107.808C284.277 107.317 283.914 106.955 283.466 106.72C283.018 106.475 282.533 106.352 282.01 106.352C281.477 106.352 280.986 106.475 280.538 106.72C280.101 106.955 279.749 107.317 279.482 107.808C279.216 108.299 279.082 108.896 279.082 109.6C279.082 110.315 279.21 110.917 279.466 111.408C279.733 111.899 280.085 112.267 280.522 112.512C280.96 112.747 281.44 112.864 281.962 112.864ZM289.829 106.656C290.085 106.155 290.447 105.765 290.917 105.488C291.397 105.211 291.978 105.072 292.661 105.072V106.576H292.277C290.645 106.576 289.829 107.461 289.829 109.232V114H288.373V105.232H289.829V106.656ZM302.341 109.28C302.341 109.557 302.325 109.851 302.293 110.16H295.285C295.339 111.024 295.632 111.701 296.165 112.192C296.709 112.672 297.365 112.912 298.133 112.912C298.763 112.912 299.285 112.768 299.701 112.48C300.128 112.181 300.427 111.787 300.597 111.296H302.165C301.931 112.139 301.461 112.827 300.757 113.36C300.053 113.883 299.179 114.144 298.133 114.144C297.301 114.144 296.555 113.957 295.893 113.584C295.243 113.211 294.731 112.683 294.357 112C293.984 111.307 293.797 110.507 293.797 109.6C293.797 108.693 293.979 107.899 294.341 107.216C294.704 106.533 295.211 106.011 295.861 105.648C296.523 105.275 297.28 105.088 298.133 105.088C298.965 105.088 299.701 105.269 300.341 105.632C300.981 105.995 301.472 106.496 301.813 107.136C302.165 107.765 302.341 108.48 302.341 109.28ZM300.837 108.976C300.837 108.421 300.715 107.947 300.469 107.552C300.224 107.147 299.888 106.843 299.461 106.64C299.045 106.427 298.581 106.32 298.069 106.32C297.333 106.32 296.704 106.555 296.181 107.024C295.669 107.493 295.376 108.144 295.301 108.976H300.837ZM314.807 105.072C315.49 105.072 316.098 105.216 316.631 105.504C317.165 105.781 317.586 106.203 317.895 106.768C318.205 107.333 318.359 108.021 318.359 108.832V114H316.919V109.04C316.919 108.165 316.701 107.499 316.263 107.04C315.837 106.571 315.255 106.336 314.519 106.336C313.762 106.336 313.159 106.581 312.711 107.072C312.263 107.552 312.039 108.251 312.039 109.168V114H310.599V109.04C310.599 108.165 310.381 107.499 309.943 107.04C309.517 106.571 308.935 106.336 308.199 106.336C307.442 106.336 306.839 106.581 306.391 107.072C305.943 107.552 305.719 108.251 305.719 109.168V114H304.263V105.232H305.719V106.496C306.007 106.037 306.391 105.685 306.871 105.44C307.362 105.195 307.901 105.072 308.487 105.072C309.223 105.072 309.874 105.237 310.439 105.568C311.005 105.899 311.426 106.384 311.703 107.024C311.949 106.405 312.354 105.925 312.919 105.584C313.485 105.243 314.114 105.072 314.807 105.072ZM325.765 103.808C325.488 103.808 325.253 103.712 325.061 103.52C324.869 103.328 324.773 103.093 324.773 102.816C324.773 102.539 324.869 102.304 325.061 102.112C325.253 101.92 325.488 101.824 325.765 101.824C326.032 101.824 326.256 101.92 326.437 102.112C326.629 102.304 326.725 102.539 326.725 102.816C326.725 103.093 326.629 103.328 326.437 103.52C326.256 103.712 326.032 103.808 325.765 103.808ZM326.469 105.232V114H325.013V105.232H326.469ZM330.407 106.848C330.695 106.347 331.121 105.931 331.687 105.6C332.263 105.259 332.929 105.088 333.687 105.088C334.465 105.088 335.169 105.275 335.799 105.648C336.439 106.021 336.94 106.549 337.303 107.232C337.665 107.904 337.847 108.688 337.847 109.584C337.847 110.469 337.665 111.259 337.303 111.952C336.94 112.645 336.439 113.184 335.799 113.568C335.169 113.952 334.465 114.144 333.687 114.144C332.94 114.144 332.279 113.979 331.703 113.648C331.137 113.307 330.705 112.885 330.407 112.384V118.16H328.951V105.232H330.407V106.848ZM336.359 109.584C336.359 108.923 336.225 108.347 335.959 107.856C335.692 107.365 335.329 106.992 334.871 106.736C334.423 106.48 333.927 106.352 333.383 106.352C332.849 106.352 332.353 106.485 331.895 106.752C331.447 107.008 331.084 107.387 330.807 107.888C330.54 108.379 330.407 108.949 330.407 109.6C330.407 110.261 330.54 110.843 330.807 111.344C331.084 111.835 331.447 112.213 331.895 112.48C332.353 112.736 332.849 112.864 333.383 112.864C333.927 112.864 334.423 112.736 334.871 112.48C335.329 112.213 335.692 111.835 335.959 111.344C336.225 110.843 336.359 110.256 336.359 109.584ZM342.867 114.144C342.195 114.144 341.593 114.032 341.059 113.808C340.526 113.573 340.105 113.253 339.795 112.848C339.486 112.432 339.315 111.957 339.283 111.424H340.787C340.83 111.861 341.033 112.219 341.395 112.496C341.769 112.773 342.254 112.912 342.851 112.912C343.406 112.912 343.843 112.789 344.163 112.544C344.483 112.299 344.643 111.989 344.643 111.616C344.643 111.232 344.473 110.949 344.131 110.768C343.79 110.576 343.262 110.389 342.547 110.208C341.897 110.037 341.363 109.867 340.947 109.696C340.542 109.515 340.19 109.253 339.891 108.912C339.603 108.56 339.459 108.101 339.459 107.536C339.459 107.088 339.593 106.677 339.859 106.304C340.126 105.931 340.505 105.637 340.995 105.424C341.486 105.2 342.046 105.088 342.675 105.088C343.646 105.088 344.43 105.333 345.027 105.824C345.625 106.315 345.945 106.987 345.987 107.84H344.531C344.499 107.381 344.313 107.013 343.971 106.736C343.641 106.459 343.193 106.32 342.627 106.32C342.105 106.32 341.689 106.432 341.379 106.656C341.07 106.88 340.915 107.173 340.915 107.536C340.915 107.824 341.006 108.064 341.187 108.256C341.379 108.437 341.614 108.587 341.891 108.704C342.179 108.811 342.574 108.933 343.075 109.072C343.705 109.243 344.217 109.413 344.611 109.584C345.006 109.744 345.342 109.989 345.619 110.32C345.907 110.651 346.057 111.083 346.067 111.616C346.067 112.096 345.934 112.528 345.667 112.912C345.401 113.296 345.022 113.6 344.531 113.824C344.051 114.037 343.497 114.144 342.867 114.144ZM355.899 105.232V114H354.443V112.704C354.165 113.152 353.776 113.504 353.275 113.76C352.784 114.005 352.24 114.128 351.643 114.128C350.96 114.128 350.347 113.989 349.803 113.712C349.259 113.424 348.827 112.997 348.507 112.432C348.197 111.867 348.043 111.179 348.043 110.368V105.232H349.483V110.176C349.483 111.04 349.701 111.707 350.139 112.176C350.576 112.635 351.173 112.864 351.931 112.864C352.709 112.864 353.323 112.624 353.771 112.144C354.219 111.664 354.443 110.965 354.443 110.048V105.232H355.899ZM368.901 105.072C369.584 105.072 370.192 105.216 370.725 105.504C371.258 105.781 371.68 106.203 371.989 106.768C372.298 107.333 372.453 108.021 372.453 108.832V114H371.013V109.04C371.013 108.165 370.794 107.499 370.357 107.04C369.93 106.571 369.349 106.336 368.613 106.336C367.856 106.336 367.253 106.581 366.805 107.072C366.357 107.552 366.133 108.251 366.133 109.168V114H364.693V109.04C364.693 108.165 364.474 107.499 364.037 107.04C363.61 106.571 363.029 106.336 362.293 106.336C361.536 106.336 360.933 106.581 360.485 107.072C360.037 107.552 359.813 108.251 359.813 109.168V114H358.357V105.232H359.813V106.496C360.101 106.037 360.485 105.685 360.965 105.44C361.456 105.195 361.994 105.072 362.581 105.072C363.317 105.072 363.968 105.237 364.533 105.568C365.098 105.899 365.52 106.384 365.797 107.024C366.042 106.405 366.448 105.925 367.013 105.584C367.578 105.243 368.208 105.072 368.901 105.072ZM270.688 133.584C270.688 132.688 270.869 131.904 271.232 131.232C271.595 130.549 272.091 130.021 272.72 129.648C273.36 129.275 274.075 129.088 274.864 129.088C275.547 129.088 276.181 129.248 276.768 129.568C277.355 129.877 277.803 130.288 278.112 130.8V126.16H279.584V138H278.112V136.352C277.824 136.875 277.397 137.307 276.832 137.648C276.267 137.979 275.605 138.144 274.848 138.144C274.069 138.144 273.36 137.952 272.72 137.568C272.091 137.184 271.595 136.645 271.232 135.952C270.869 135.259 270.688 134.469 270.688 133.584ZM278.112 133.6C278.112 132.939 277.979 132.363 277.712 131.872C277.445 131.381 277.083 131.008 276.624 130.752C276.176 130.485 275.68 130.352 275.136 130.352C274.592 130.352 274.096 130.48 273.648 130.736C273.2 130.992 272.843 131.365 272.576 131.856C272.309 132.347 272.176 132.923 272.176 133.584C272.176 134.256 272.309 134.843 272.576 135.344C272.843 135.835 273.2 136.213 273.648 136.48C274.096 136.736 274.592 136.864 275.136 136.864C275.68 136.864 276.176 136.736 276.624 136.48C277.083 136.213 277.445 135.835 277.712 135.344C277.979 134.843 278.112 134.261 278.112 133.6ZM285.869 138.144C285.047 138.144 284.301 137.957 283.629 137.584C282.967 137.211 282.445 136.683 282.061 136C281.687 135.307 281.501 134.507 281.501 133.6C281.501 132.704 281.693 131.915 282.077 131.232C282.471 130.539 283.005 130.011 283.677 129.648C284.349 129.275 285.101 129.088 285.933 129.088C286.765 129.088 287.517 129.275 288.189 129.648C288.861 130.011 289.389 130.533 289.773 131.216C290.167 131.899 290.365 132.693 290.365 133.6C290.365 134.507 290.162 135.307 289.757 136C289.362 136.683 288.823 137.211 288.141 137.584C287.458 137.957 286.701 138.144 285.869 138.144ZM285.869 136.864C286.391 136.864 286.882 136.741 287.341 136.496C287.799 136.251 288.167 135.883 288.445 135.392C288.733 134.901 288.877 134.304 288.877 133.6C288.877 132.896 288.738 132.299 288.461 131.808C288.183 131.317 287.821 130.955 287.373 130.72C286.925 130.475 286.439 130.352 285.917 130.352C285.383 130.352 284.893 130.475 284.445 130.72C284.007 130.955 283.655 131.317 283.389 131.808C283.122 132.299 282.989 132.896 282.989 133.6C282.989 134.315 283.117 134.917 283.373 135.408C283.639 135.899 283.991 136.267 284.429 136.512C284.866 136.747 285.346 136.864 285.869 136.864ZM293.735 126.16V138H292.279V126.16H293.735ZM300.04 138.144C299.219 138.144 298.472 137.957 297.8 137.584C297.139 137.211 296.616 136.683 296.232 136C295.859 135.307 295.672 134.507 295.672 133.6C295.672 132.704 295.864 131.915 296.248 131.232C296.643 130.539 297.176 130.011 297.848 129.648C298.52 129.275 299.272 129.088 300.104 129.088C300.936 129.088 301.688 129.275 302.36 129.648C303.032 130.011 303.56 130.533 303.944 131.216C304.339 131.899 304.536 132.693 304.536 133.6C304.536 134.507 304.334 135.307 303.928 136C303.534 136.683 302.995 137.211 302.312 137.584C301.63 137.957 300.872 138.144 300.04 138.144ZM300.04 136.864C300.563 136.864 301.054 136.741 301.512 136.496C301.971 136.251 302.339 135.883 302.616 135.392C302.904 134.901 303.048 134.304 303.048 133.6C303.048 132.896 302.91 132.299 302.632 131.808C302.355 131.317 301.992 130.955 301.544 130.72C301.096 130.475 300.611 130.352 300.088 130.352C299.555 130.352 299.064 130.475 298.616 130.72C298.179 130.955 297.827 131.317 297.56 131.808C297.294 132.299 297.16 132.896 297.16 133.6C297.16 134.315 297.288 134.917 297.544 135.408C297.811 135.899 298.163 136.267 298.6 136.512C299.038 136.747 299.518 136.864 300.04 136.864ZM307.907 130.656C308.163 130.155 308.525 129.765 308.995 129.488C309.475 129.211 310.056 129.072 310.739 129.072V130.576H310.355C308.723 130.576 307.907 131.461 307.907 133.232V138H306.451V129.232H307.907V130.656ZM316.141 133.584C316.141 132.688 316.322 131.904 316.685 131.232C317.048 130.549 317.544 130.021 318.173 129.648C318.813 129.275 319.522 129.088 320.301 129.088C321.069 129.088 321.736 129.253 322.301 129.584C322.866 129.915 323.288 130.331 323.565 130.832V129.232H325.037V138H323.565V136.368C323.277 136.88 322.845 137.307 322.269 137.648C321.704 137.979 321.042 138.144 320.285 138.144C319.506 138.144 318.802 137.952 318.173 137.568C317.544 137.184 317.048 136.645 316.685 135.952C316.322 135.259 316.141 134.469 316.141 133.584ZM323.565 133.6C323.565 132.939 323.432 132.363 323.165 131.872C322.898 131.381 322.536 131.008 322.077 130.752C321.629 130.485 321.133 130.352 320.589 130.352C320.045 130.352 319.549 130.48 319.101 130.736C318.653 130.992 318.296 131.365 318.029 131.856C317.762 132.347 317.629 132.923 317.629 133.584C317.629 134.256 317.762 134.843 318.029 135.344C318.296 135.835 318.653 136.213 319.101 136.48C319.549 136.736 320.045 136.864 320.589 136.864C321.133 136.864 321.629 136.736 322.077 136.48C322.536 136.213 322.898 135.835 323.165 135.344C323.432 134.843 323.565 134.261 323.565 133.6ZM338.042 129.072C338.724 129.072 339.332 129.216 339.866 129.504C340.399 129.781 340.82 130.203 341.13 130.768C341.439 131.333 341.594 132.021 341.594 132.832V138H340.154V133.04C340.154 132.165 339.935 131.499 339.498 131.04C339.071 130.571 338.49 130.336 337.754 130.336C336.996 130.336 336.394 130.581 335.946 131.072C335.498 131.552 335.274 132.251 335.274 133.168V138H333.834V133.04C333.834 132.165 333.615 131.499 333.178 131.04C332.751 130.571 332.17 130.336 331.434 130.336C330.676 130.336 330.074 130.581 329.626 131.072C329.178 131.552 328.954 132.251 328.954 133.168V138H327.498V129.232H328.954V130.496C329.242 130.037 329.626 129.685 330.106 129.44C330.596 129.195 331.135 129.072 331.722 129.072C332.458 129.072 333.108 129.237 333.674 129.568C334.239 129.899 334.66 130.384 334.938 131.024C335.183 130.405 335.588 129.925 336.154 129.584C336.719 129.243 337.348 129.072 338.042 129.072ZM351.982 133.28C351.982 133.557 351.966 133.851 351.934 134.16H344.926C344.979 135.024 345.273 135.701 345.806 136.192C346.35 136.672 347.006 136.912 347.774 136.912C348.403 136.912 348.926 136.768 349.342 136.48C349.769 136.181 350.067 135.787 350.238 135.296H351.806C351.571 136.139 351.102 136.827 350.398 137.36C349.694 137.883 348.819 138.144 347.774 138.144C346.942 138.144 346.195 137.957 345.534 137.584C344.883 137.211 344.371 136.683 343.998 136C343.625 135.307 343.438 134.507 343.438 133.6C343.438 132.693 343.619 131.899 343.982 131.216C344.345 130.533 344.851 130.011 345.502 129.648C346.163 129.275 346.921 129.088 347.774 129.088C348.606 129.088 349.342 129.269 349.982 129.632C350.622 129.995 351.113 130.496 351.454 131.136C351.806 131.765 351.982 132.48 351.982 133.28ZM350.478 132.976C350.478 132.421 350.355 131.947 350.11 131.552C349.865 131.147 349.529 130.843 349.102 130.64C348.686 130.427 348.222 130.32 347.71 130.32C346.974 130.32 346.345 130.555 345.822 131.024C345.31 131.493 345.017 132.144 344.942 132.976H350.478ZM355.68 130.432V135.6C355.68 136.027 355.771 136.331 355.952 136.512C356.133 136.683 356.448 136.768 356.896 136.768H357.968V138H356.656C355.845 138 355.237 137.813 354.832 137.44C354.427 137.067 354.224 136.453 354.224 135.6V130.432H353.088V129.232H354.224V127.024H355.68V129.232H357.968V130.432H355.68Z" fill="white"/>
<path d="M459.984 50H456.624L449.016 38.504V50H445.656V33.224H449.016L456.624 44.744V33.224H459.984V50ZM469.208 50.216C467.928 50.216 466.776 49.936 465.752 49.376C464.728 48.8 463.92 47.992 463.328 46.952C462.752 45.912 462.464 44.712 462.464 43.352C462.464 41.992 462.76 40.792 463.352 39.752C463.96 38.712 464.784 37.912 465.824 37.352C466.864 36.776 468.024 36.488 469.304 36.488C470.584 36.488 471.744 36.776 472.784 37.352C473.824 37.912 474.64 38.712 475.232 39.752C475.84 40.792 476.144 41.992 476.144 43.352C476.144 44.712 475.832 45.912 475.208 46.952C474.6 47.992 473.768 48.8 472.712 49.376C471.672 49.936 470.504 50.216 469.208 50.216ZM469.208 47.288C469.816 47.288 470.384 47.144 470.912 46.856C471.456 46.552 471.888 46.104 472.208 45.512C472.528 44.92 472.688 44.2 472.688 43.352C472.688 42.088 472.352 41.12 471.68 40.448C471.024 39.76 470.216 39.416 469.256 39.416C468.296 39.416 467.488 39.76 466.832 40.448C466.192 41.12 465.872 42.088 465.872 43.352C465.872 44.616 466.184 45.592 466.808 46.28C467.448 46.952 468.248 47.288 469.208 47.288ZM480.097 50.168C479.489 50.168 478.985 49.984 478.585 49.616C478.201 49.232 478.009 48.76 478.009 48.2C478.009 47.64 478.201 47.176 478.585 46.808C478.985 46.424 479.489 46.232 480.097 46.232C480.689 46.232 481.177 46.424 481.561 46.808C481.945 47.176 482.137 47.64 482.137 48.2C482.137 48.76 481.945 49.232 481.561 49.616C481.177 49.984 480.689 50.168 480.097 50.168ZM484.052 35.6V32.504H489.836V50H486.38V35.6H484.052Z" fill="white"/>
<rect x="444" y="76" width="38" height="4" fill="white"/>
<path d="M446.688 112.816H450.592V114H445.232V102.848H446.688V112.816ZM455.962 114.144C455.141 114.144 454.394 113.957 453.722 113.584C453.061 113.211 452.538 112.683 452.154 112C451.781 111.307 451.594 110.507 451.594 109.6C451.594 108.704 451.786 107.915 452.17 107.232C452.565 106.539 453.098 106.011 453.77 105.648C454.442 105.275 455.194 105.088 456.026 105.088C456.858 105.088 457.61 105.275 458.282 105.648C458.954 106.011 459.482 106.533 459.866 107.216C460.261 107.899 460.458 108.693 460.458 109.6C460.458 110.507 460.256 111.307 459.85 112C459.456 112.683 458.917 113.211 458.234 113.584C457.552 113.957 456.794 114.144 455.962 114.144ZM455.962 112.864C456.485 112.864 456.976 112.741 457.434 112.496C457.893 112.251 458.261 111.883 458.538 111.392C458.826 110.901 458.97 110.304 458.97 109.6C458.97 108.896 458.832 108.299 458.554 107.808C458.277 107.317 457.914 106.955 457.466 106.72C457.018 106.475 456.533 106.352 456.01 106.352C455.477 106.352 454.986 106.475 454.538 106.72C454.101 106.955 453.749 107.317 453.482 107.808C453.216 108.299 453.082 108.896 453.082 109.6C453.082 110.315 453.21 110.917 453.466 111.408C453.733 111.899 454.085 112.267 454.522 112.512C454.96 112.747 455.44 112.864 455.962 112.864ZM463.829 106.656C464.085 106.155 464.447 105.765 464.917 105.488C465.397 105.211 465.978 105.072 466.661 105.072V106.576H466.277C464.645 106.576 463.829 107.461 463.829 109.232V114H462.373V105.232H463.829V106.656ZM476.341 109.28C476.341 109.557 476.325 109.851 476.293 110.16H469.285C469.339 111.024 469.632 111.701 470.165 112.192C470.709 112.672 471.365 112.912 472.133 112.912C472.763 112.912 473.285 112.768 473.701 112.48C474.128 112.181 474.427 111.787 474.597 111.296H476.165C475.931 112.139 475.461 112.827 474.757 113.36C474.053 113.883 473.179 114.144 472.133 114.144C471.301 114.144 470.555 113.957 469.893 113.584C469.243 113.211 468.731 112.683 468.357 112C467.984 111.307 467.797 110.507 467.797 109.6C467.797 108.693 467.979 107.899 468.341 107.216C468.704 106.533 469.211 106.011 469.861 105.648C470.523 105.275 471.28 105.088 472.133 105.088C472.965 105.088 473.701 105.269 474.341 105.632C474.981 105.995 475.472 106.496 475.813 107.136C476.165 107.765 476.341 108.48 476.341 109.28ZM474.837 108.976C474.837 108.421 474.715 107.947 474.469 107.552C474.224 107.147 473.888 106.843 473.461 106.64C473.045 106.427 472.581 106.32 472.069 106.32C471.333 106.32 470.704 106.555 470.181 107.024C469.669 107.493 469.376 108.144 469.301 108.976H474.837ZM488.807 105.072C489.49 105.072 490.098 105.216 490.631 105.504C491.165 105.781 491.586 106.203 491.895 106.768C492.205 107.333 492.359 108.021 492.359 108.832V114H490.919V109.04C490.919 108.165 490.701 107.499 490.263 107.04C489.837 106.571 489.255 106.336 488.519 106.336C487.762 106.336 487.159 106.581 486.711 107.072C486.263 107.552 486.039 108.251 486.039 109.168V114H484.599V109.04C484.599 108.165 484.381 107.499 483.943 107.04C483.517 106.571 482.935 106.336 482.199 106.336C481.442 106.336 480.839 106.581 480.391 107.072C479.943 107.552 479.719 108.251 479.719 109.168V114H478.263V105.232H479.719V106.496C480.007 106.037 480.391 105.685 480.871 105.44C481.362 105.195 481.901 105.072 482.487 105.072C483.223 105.072 483.874 105.237 484.439 105.568C485.005 105.899 485.426 106.384 485.703 107.024C485.949 106.405 486.354 105.925 486.919 105.584C487.485 105.243 488.114 105.072 488.807 105.072ZM499.765 103.808C499.488 103.808 499.253 103.712 499.061 103.52C498.869 103.328 498.773 103.093 498.773 102.816C498.773 102.539 498.869 102.304 499.061 102.112C499.253 101.92 499.488 101.824 499.765 101.824C500.032 101.824 500.256 101.92 500.437 102.112C500.629 102.304 500.725 102.539 500.725 102.816C500.725 103.093 500.629 103.328 500.437 103.52C500.256 103.712 500.032 103.808 499.765 103.808ZM500.469 105.232V114H499.013V105.232H500.469ZM504.407 106.848C504.695 106.347 505.121 105.931 505.687 105.6C506.263 105.259 506.929 105.088 507.687 105.088C508.465 105.088 509.169 105.275 509.799 105.648C510.439 106.021 510.94 106.549 511.303 107.232C511.665 107.904 511.847 108.688 511.847 109.584C511.847 110.469 511.665 111.259 511.303 111.952C510.94 112.645 510.439 113.184 509.799 113.568C509.169 113.952 508.465 114.144 507.687 114.144C506.94 114.144 506.279 113.979 505.703 113.648C505.137 113.307 504.705 112.885 504.407 112.384V118.16H502.951V105.232H504.407V106.848ZM510.359 109.584C510.359 108.923 510.225 108.347 509.959 107.856C509.692 107.365 509.329 106.992 508.871 106.736C508.423 106.48 507.927 106.352 507.383 106.352C506.849 106.352 506.353 106.485 505.895 106.752C505.447 107.008 505.084 107.387 504.807 107.888C504.54 108.379 504.407 108.949 504.407 109.6C504.407 110.261 504.54 110.843 504.807 111.344C505.084 111.835 505.447 112.213 505.895 112.48C506.353 112.736 506.849 112.864 507.383 112.864C507.927 112.864 508.423 112.736 508.871 112.48C509.329 112.213 509.692 111.835 509.959 111.344C510.225 110.843 510.359 110.256 510.359 109.584ZM516.867 114.144C516.195 114.144 515.593 114.032 515.059 113.808C514.526 113.573 514.105 113.253 513.795 112.848C513.486 112.432 513.315 111.957 513.283 111.424H514.787C514.83 111.861 515.033 112.219 515.395 112.496C515.769 112.773 516.254 112.912 516.851 112.912C517.406 112.912 517.843 112.789 518.163 112.544C518.483 112.299 518.643 111.989 518.643 111.616C518.643 111.232 518.473 110.949 518.131 110.768C517.79 110.576 517.262 110.389 516.547 110.208C515.897 110.037 515.363 109.867 514.947 109.696C514.542 109.515 514.19 109.253 513.891 108.912C513.603 108.56 513.459 108.101 513.459 107.536C513.459 107.088 513.593 106.677 513.859 106.304C514.126 105.931 514.505 105.637 514.995 105.424C515.486 105.2 516.046 105.088 516.675 105.088C517.646 105.088 518.43 105.333 519.027 105.824C519.625 106.315 519.945 106.987 519.987 107.84H518.531C518.499 107.381 518.313 107.013 517.971 106.736C517.641 106.459 517.193 106.32 516.627 106.32C516.105 106.32 515.689 106.432 515.379 106.656C515.07 106.88 514.915 107.173 514.915 107.536C514.915 107.824 515.006 108.064 515.187 108.256C515.379 108.437 515.614 108.587 515.891 108.704C516.179 108.811 516.574 108.933 517.075 109.072C517.705 109.243 518.217 109.413 518.611 109.584C519.006 109.744 519.342 109.989 519.619 110.32C519.907 110.651 520.057 111.083 520.067 111.616C520.067 112.096 519.934 112.528 519.667 112.912C519.401 113.296 519.022 113.6 518.531 113.824C518.051 114.037 517.497 114.144 516.867 114.144ZM529.899 105.232V114H528.443V112.704C528.165 113.152 527.776 113.504 527.275 113.76C526.784 114.005 526.24 114.128 525.643 114.128C524.96 114.128 524.347 113.989 523.803 113.712C523.259 113.424 522.827 112.997 522.507 112.432C522.197 111.867 522.043 111.179 522.043 110.368V105.232H523.483V110.176C523.483 111.04 523.701 111.707 524.139 112.176C524.576 112.635 525.173 112.864 525.931 112.864C526.709 112.864 527.323 112.624 527.771 112.144C528.219 111.664 528.443 110.965 528.443 110.048V105.232H529.899ZM542.901 105.072C543.584 105.072 544.192 105.216 544.725 105.504C545.258 105.781 545.68 106.203 545.989 106.768C546.298 107.333 546.453 108.021 546.453 108.832V114H545.013V109.04C545.013 108.165 544.794 107.499 544.357 107.04C543.93 106.571 543.349 106.336 542.613 106.336C541.856 106.336 541.253 106.581 540.805 107.072C540.357 107.552 540.133 108.251 540.133 109.168V114H538.693V109.04C538.693 108.165 538.474 107.499 538.037 107.04C537.61 106.571 537.029 106.336 536.293 106.336C535.536 106.336 534.933 106.581 534.485 107.072C534.037 107.552 533.813 108.251 533.813 109.168V114H532.357V105.232H533.813V106.496C534.101 106.037 534.485 105.685 534.965 105.44C535.456 105.195 535.994 105.072 536.581 105.072C537.317 105.072 537.968 105.237 538.533 105.568C539.098 105.899 539.52 106.384 539.797 107.024C540.042 106.405 540.448 105.925 541.013 105.584C541.578 105.243 542.208 105.072 542.901 105.072ZM444.688 133.584C444.688 132.688 444.869 131.904 445.232 131.232C445.595 130.549 446.091 130.021 446.72 129.648C447.36 129.275 448.075 129.088 448.864 129.088C449.547 129.088 450.181 129.248 450.768 129.568C451.355 129.877 451.803 130.288 452.112 130.8V126.16H453.584V138H452.112V136.352C451.824 136.875 451.397 137.307 450.832 137.648C450.267 137.979 449.605 138.144 448.848 138.144C448.069 138.144 447.36 137.952 446.72 137.568C446.091 137.184 445.595 136.645 445.232 135.952C444.869 135.259 444.688 134.469 444.688 133.584ZM452.112 133.6C452.112 132.939 451.979 132.363 451.712 131.872C451.445 131.381 451.083 131.008 450.624 130.752C450.176 130.485 449.68 130.352 449.136 130.352C448.592 130.352 448.096 130.48 447.648 130.736C447.2 130.992 446.843 131.365 446.576 131.856C446.309 132.347 446.176 132.923 446.176 133.584C446.176 134.256 446.309 134.843 446.576 135.344C446.843 135.835 447.2 136.213 447.648 136.48C448.096 136.736 448.592 136.864 449.136 136.864C449.68 136.864 450.176 136.736 450.624 136.48C451.083 136.213 451.445 135.835 451.712 135.344C451.979 134.843 452.112 134.261 452.112 133.6ZM459.869 138.144C459.047 138.144 458.301 137.957 457.629 137.584C456.967 137.211 456.445 136.683 456.061 136C455.687 135.307 455.501 134.507 455.501 133.6C455.501 132.704 455.693 131.915 456.077 131.232C456.471 130.539 457.005 130.011 457.677 129.648C458.349 129.275 459.101 129.088 459.933 129.088C460.765 129.088 461.517 129.275 462.189 129.648C462.861 130.011 463.389 130.533 463.773 131.216C464.167 131.899 464.365 132.693 464.365 133.6C464.365 134.507 464.162 135.307 463.757 136C463.362 136.683 462.823 137.211 462.141 137.584C461.458 137.957 460.701 138.144 459.869 138.144ZM459.869 136.864C460.391 136.864 460.882 136.741 461.341 136.496C461.799 136.251 462.167 135.883 462.445 135.392C462.733 134.901 462.877 134.304 462.877 133.6C462.877 132.896 462.738 132.299 462.461 131.808C462.183 131.317 461.821 130.955 461.373 130.72C460.925 130.475 460.439 130.352 459.917 130.352C459.383 130.352 458.893 130.475 458.445 130.72C458.007 130.955 457.655 131.317 457.389 131.808C457.122 132.299 456.989 132.896 456.989 133.6C456.989 134.315 457.117 134.917 457.373 135.408C457.639 135.899 457.991 136.267 458.429 136.512C458.866 136.747 459.346 136.864 459.869 136.864ZM467.735 126.16V138H466.279V126.16H467.735ZM474.04 138.144C473.219 138.144 472.472 137.957 471.8 137.584C471.139 137.211 470.616 136.683 470.232 136C469.859 135.307 469.672 134.507 469.672 133.6C469.672 132.704 469.864 131.915 470.248 131.232C470.643 130.539 471.176 130.011 471.848 129.648C472.52 129.275 473.272 129.088 474.104 129.088C474.936 129.088 475.688 129.275 476.36 129.648C477.032 130.011 477.56 130.533 477.944 131.216C478.339 131.899 478.536 132.693 478.536 133.6C478.536 134.507 478.334 135.307 477.928 136C477.534 136.683 476.995 137.211 476.312 137.584C475.63 137.957 474.872 138.144 474.04 138.144ZM474.04 136.864C474.563 136.864 475.054 136.741 475.512 136.496C475.971 136.251 476.339 135.883 476.616 135.392C476.904 134.901 477.048 134.304 477.048 133.6C477.048 132.896 476.91 132.299 476.632 131.808C476.355 131.317 475.992 130.955 475.544 130.72C475.096 130.475 474.611 130.352 474.088 130.352C473.555 130.352 473.064 130.475 472.616 130.72C472.179 130.955 471.827 131.317 471.56 131.808C471.294 132.299 471.16 132.896 471.16 133.6C471.16 134.315 471.288 134.917 471.544 135.408C471.811 135.899 472.163 136.267 472.6 136.512C473.038 136.747 473.518 136.864 474.04 136.864ZM481.907 130.656C482.163 130.155 482.525 129.765 482.995 129.488C483.475 129.211 484.056 129.072 484.739 129.072V130.576H484.355C482.723 130.576 481.907 131.461 481.907 133.232V138H480.451V129.232H481.907V130.656ZM490.141 133.584C490.141 132.688 490.322 131.904 490.685 131.232C491.048 130.549 491.544 130.021 492.173 129.648C492.813 129.275 493.522 129.088 494.301 129.088C495.069 129.088 495.736 129.253 496.301 129.584C496.866 129.915 497.288 130.331 497.565 130.832V129.232H499.037V138H497.565V136.368C497.277 136.88 496.845 137.307 496.269 137.648C495.704 137.979 495.042 138.144 494.285 138.144C493.506 138.144 492.802 137.952 492.173 137.568C491.544 137.184 491.048 136.645 490.685 135.952C490.322 135.259 490.141 134.469 490.141 133.584ZM497.565 133.6C497.565 132.939 497.432 132.363 497.165 131.872C496.898 131.381 496.536 131.008 496.077 130.752C495.629 130.485 495.133 130.352 494.589 130.352C494.045 130.352 493.549 130.48 493.101 130.736C492.653 130.992 492.296 131.365 492.029 131.856C491.762 132.347 491.629 132.923 491.629 133.584C491.629 134.256 491.762 134.843 492.029 135.344C492.296 135.835 492.653 136.213 493.101 136.48C493.549 136.736 494.045 136.864 494.589 136.864C495.133 136.864 495.629 136.736 496.077 136.48C496.536 136.213 496.898 135.835 497.165 135.344C497.432 134.843 497.565 134.261 497.565 133.6ZM512.042 129.072C512.724 129.072 513.332 129.216 513.866 129.504C514.399 129.781 514.82 130.203 515.13 130.768C515.439 131.333 515.594 132.021 515.594 132.832V138H514.154V133.04C514.154 132.165 513.935 131.499 513.498 131.04C513.071 130.571 512.49 130.336 511.754 130.336C510.996 130.336 510.394 130.581 509.946 131.072C509.498 131.552 509.274 132.251 509.274 133.168V138H507.834V133.04C507.834 132.165 507.615 131.499 507.178 131.04C506.751 130.571 506.17 130.336 505.434 130.336C504.676 130.336 504.074 130.581 503.626 131.072C503.178 131.552 502.954 132.251 502.954 133.168V138H501.498V129.232H502.954V130.496C503.242 130.037 503.626 129.685 504.106 129.44C504.596 129.195 505.135 129.072 505.722 129.072C506.458 129.072 507.108 129.237 507.674 129.568C508.239 129.899 508.66 130.384 508.938 131.024C509.183 130.405 509.588 129.925 510.154 129.584C510.719 129.243 511.348 129.072 512.042 129.072ZM525.982 133.28C525.982 133.557 525.966 133.851 525.934 134.16H518.926C518.979 135.024 519.273 135.701 519.806 136.192C520.35 136.672 521.006 136.912 521.774 136.912C522.403 136.912 522.926 136.768 523.342 136.48C523.769 136.181 524.067 135.787 524.238 135.296H525.806C525.571 136.139 525.102 136.827 524.398 137.36C523.694 137.883 522.819 138.144 521.774 138.144C520.942 138.144 520.195 137.957 519.534 137.584C518.883 137.211 518.371 136.683 517.998 136C517.625 135.307 517.438 134.507 517.438 133.6C517.438 132.693 517.619 131.899 517.982 131.216C518.345 130.533 518.851 130.011 519.502 129.648C520.163 129.275 520.921 129.088 521.774 129.088C522.606 129.088 523.342 129.269 523.982 129.632C524.622 129.995 525.113 130.496 525.454 131.136C525.806 131.765 525.982 132.48 525.982 133.28ZM524.478 132.976C524.478 132.421 524.355 131.947 524.11 131.552C523.865 131.147 523.529 130.843 523.102 130.64C522.686 130.427 522.222 130.32 521.71 130.32C520.974 130.32 520.345 130.555 519.822 131.024C519.31 131.493 519.017 132.144 518.942 132.976H524.478ZM529.68 130.432V135.6C529.68 136.027 529.771 136.331 529.952 136.512C530.133 136.683 530.448 136.768 530.896 136.768H531.968V138H530.656C529.845 138 529.237 137.813 528.832 137.44C528.427 137.067 528.224 136.453 528.224 135.6V130.432H527.088V129.232H528.224V127.024H529.68V129.232H531.968V130.432H529.68Z" fill="white"/>
</svg>
