<svg width="224" height="224" viewBox="0 0 224 224" fill="none" xmlns="http://www.w3.org/2000/svg">
<path d="M4 8C6.20914 8 8 6.20914 8 4C8 1.79086 6.20914 0 4 0C1.79086 0 0 1.79086 0 4C0 6.20914 1.79086 8 4 8Z" fill="white" fill-opacity="0.5"/>
<path d="M28 8C30.2091 8 32 6.20914 32 4C32 1.79086 30.2091 0 28 0C25.7909 0 24 1.79086 24 4C24 6.20914 25.7909 8 28 8Z" fill="white" fill-opacity="0.5"/>
<path d="M56 4C56 6.20914 54.2091 8 52 8C49.7909 8 48 6.20914 48 4C48 1.79086 49.7909 0 52 0C54.2091 0 56 1.79086 56 4Z" fill="white" fill-opacity="0.5"/>
<path d="M76 8C78.2091 8 80 6.20914 80 4C80 1.79086 78.2091 0 76 0C73.7909 0 72 1.79086 72 4C72 6.20914 73.7909 8 76 8Z" fill="white" fill-opacity="0.5"/>
<path d="M104 4C104 6.20914 102.209 8 100 8C97.7909 8 96 6.20914 96 4C96 1.79086 97.7909 0 100 0C102.209 0 104 1.79086 104 4Z" fill="white" fill-opacity="0.5"/>
<path d="M124 8C126.209 8 128 6.20914 128 4C128 1.79086 126.209 0 124 0C121.791 0 120 1.79086 120 4C120 6.20914 121.791 8 124 8Z" fill="white" fill-opacity="0.5"/>
<path d="M152 4C152 6.20914 150.209 8 148 8C145.791 8 144 6.20914 144 4C144 1.79086 145.791 0 148 0C150.209 0 152 1.79086 152 4Z" fill="white" fill-opacity="0.5"/>
<path d="M172 8C174.209 8 176 6.20914 176 4C176 1.79086 174.209 0 172 0C169.791 0 168 1.79086 168 4C168 6.20914 169.791 8 172 8Z" fill="white" fill-opacity="0.5"/>
<path d="M200 4C200 6.20914 198.209 8 196 8C193.791 8 192 6.20914 192 4C192 1.79086 193.791 0 196 0C198.209 0 200 1.79086 200 4Z" fill="white" fill-opacity="0.5"/>
<path d="M220 8C222.209 8 224 6.20914 224 4C224 1.79086 222.209 0 220 0C217.791 0 216 1.79086 216 4C216 6.20914 217.791 8 220 8Z" fill="white" fill-opacity="0.5"/>
<path d="M8 28C8 30.2091 6.20914 32 4 32C1.79086 32 0 30.2091 0 28C0 25.7909 1.79086 24 4 24C6.20914 24 8 25.7909 8 28Z" fill="white" fill-opacity="0.5"/>
<path d="M28 32C30.2091 32 32 30.2091 32 28C32 25.7909 30.2091 24 28 24C25.7909 24 24 25.7909 24 28C24 30.2091 25.7909 32 28 32Z" fill="white" fill-opacity="0.5"/>
<path d="M56 28C56 30.2091 54.2091 32 52 32C49.7909 32 48 30.2091 48 28C48 25.7909 49.7909 24 52 24C54.2091 24 56 25.7909 56 28Z" fill="white" fill-opacity="0.5"/>
<path d="M76 32C78.2091 32 80 30.2091 80 28C80 25.7909 78.2091 24 76 24C73.7909 24 72 25.7909 72 28C72 30.2091 73.7909 32 76 32Z" fill="white" fill-opacity="0.5"/>
<path d="M104 28C104 30.2091 102.209 32 100 32C97.7909 32 96 30.2091 96 28C96 25.7909 97.7909 24 100 24C102.209 24 104 25.7909 104 28Z" fill="white" fill-opacity="0.5"/>
<path d="M124 32C126.209 32 128 30.2091 128 28C128 25.7909 126.209 24 124 24C121.791 24 120 25.7909 120 28C120 30.2091 121.791 32 124 32Z" fill="white" fill-opacity="0.5"/>
<path d="M152 28C152 30.2091 150.209 32 148 32C145.791 32 144 30.2091 144 28C144 25.7909 145.791 24 148 24C150.209 24 152 25.7909 152 28Z" fill="white" fill-opacity="0.5"/>
<path d="M172 32C174.209 32 176 30.2091 176 28C176 25.7909 174.209 24 172 24C169.791 24 168 25.7909 168 28C168 30.2091 169.791 32 172 32Z" fill="white" fill-opacity="0.5"/>
<path d="M200 28C200 30.2091 198.209 32 196 32C193.791 32 192 30.2091 192 28C192 25.7909 193.791 24 196 24C198.209 24 200 25.7909 200 28Z" fill="white" fill-opacity="0.5"/>
<path d="M220 32C222.209 32 224 30.2091 224 28C224 25.7909 222.209 24 220 24C217.791 24 216 25.7909 216 28C216 30.2091 217.791 32 220 32Z" fill="white" fill-opacity="0.5"/>
<path d="M8 52C8 54.2091 6.20914 56 4 56C1.79086 56 0 54.2091 0 52C0 49.7909 1.79086 48 4 48C6.20914 48 8 49.7909 8 52Z" fill="white" fill-opacity="0.5"/>
<path d="M28 56C30.2091 56 32 54.2091 32 52C32 49.7909 30.2091 48 28 48C25.7909 48 24 49.7909 24 52C24 54.2091 25.7909 56 28 56Z" fill="white" fill-opacity="0.5"/>
<path d="M56 52C56 54.2091 54.2091 56 52 56C49.7909 56 48 54.2091 48 52C48 49.7909 49.7909 48 52 48C54.2091 48 56 49.7909 56 52Z" fill="white" fill-opacity="0.5"/>
<path d="M76 56C78.2091 56 80 54.2091 80 52C80 49.7909 78.2091 48 76 48C73.7909 48 72 49.7909 72 52C72 54.2091 73.7909 56 76 56Z" fill="white" fill-opacity="0.5"/>
<path d="M104 52C104 54.2091 102.209 56 100 56C97.7909 56 96 54.2091 96 52C96 49.7909 97.7909 48 100 48C102.209 48 104 49.7909 104 52Z" fill="white" fill-opacity="0.5"/>
<path d="M124 56C126.209 56 128 54.2091 128 52C128 49.7909 126.209 48 124 48C121.791 48 120 49.7909 120 52C120 54.2091 121.791 56 124 56Z" fill="white" fill-opacity="0.5"/>
<path d="M152 52C152 54.2091 150.209 56 148 56C145.791 56 144 54.2091 144 52C144 49.7909 145.791 48 148 48C150.209 48 152 49.7909 152 52Z" fill="white" fill-opacity="0.5"/>
<path d="M172 56C174.209 56 176 54.2091 176 52C176 49.7909 174.209 48 172 48C169.791 48 168 49.7909 168 52C168 54.2091 169.791 56 172 56Z" fill="white" fill-opacity="0.5"/>
<path d="M200 52C200 54.2091 198.209 56 196 56C193.791 56 192 54.2091 192 52C192 49.7909 193.791 48 196 48C198.209 48 200 49.7909 200 52Z" fill="white" fill-opacity="0.5"/>
<path d="M220 56C222.209 56 224 54.2091 224 52C224 49.7909 222.209 48 220 48C217.791 48 216 49.7909 216 52C216 54.2091 217.791 56 220 56Z" fill="white" fill-opacity="0.5"/>
<path d="M8 76C8 78.2091 6.20914 80 4 80C1.79086 80 0 78.2091 0 76C0 73.7909 1.79086 72 4 72C6.20914 72 8 73.7909 8 76Z" fill="white" fill-opacity="0.5"/>
<path d="M28 80C30.2091 80 32 78.2091 32 76C32 73.7909 30.2091 72 28 72C25.7909 72 24 73.7909 24 76C24 78.2091 25.7909 80 28 80Z" fill="white" fill-opacity="0.5"/>
<path d="M56 76C56 78.2091 54.2091 80 52 80C49.7909 80 48 78.2091 48 76C48 73.7909 49.7909 72 52 72C54.2091 72 56 73.7909 56 76Z" fill="white" fill-opacity="0.5"/>
<path d="M76 80C78.2091 80 80 78.2091 80 76C80 73.7909 78.2091 72 76 72C73.7909 72 72 73.7909 72 76C72 78.2091 73.7909 80 76 80Z" fill="white" fill-opacity="0.5"/>
<path d="M104 76C104 78.2091 102.209 80 100 80C97.7909 80 96 78.2091 96 76C96 73.7909 97.7909 72 100 72C102.209 72 104 73.7909 104 76Z" fill="white" fill-opacity="0.5"/>
<path d="M124 80C126.209 80 128 78.2091 128 76C128 73.7909 126.209 72 124 72C121.791 72 120 73.7909 120 76C120 78.2091 121.791 80 124 80Z" fill="white" fill-opacity="0.5"/>
<path d="M152 76C152 78.2091 150.209 80 148 80C145.791 80 144 78.2091 144 76C144 73.7909 145.791 72 148 72C150.209 72 152 73.7909 152 76Z" fill="white" fill-opacity="0.5"/>
<path d="M172 80C174.209 80 176 78.2091 176 76C176 73.7909 174.209 72 172 72C169.791 72 168 73.7909 168 76C168 78.2091 169.791 80 172 80Z" fill="white" fill-opacity="0.5"/>
<path d="M200 76C200 78.2091 198.209 80 196 80C193.791 80 192 78.2091 192 76C192 73.7909 193.791 72 196 72C198.209 72 200 73.7909 200 76Z" fill="white" fill-opacity="0.5"/>
<path d="M220 80C222.209 80 224 78.2091 224 76C224 73.7909 222.209 72 220 72C217.791 72 216 73.7909 216 76C216 78.2091 217.791 80 220 80Z" fill="white" fill-opacity="0.5"/>
<path d="M8 100C8 102.209 6.20914 104 4 104C1.79086 104 0 102.209 0 100C0 97.7909 1.79086 96 4 96C6.20914 96 8 97.7909 8 100Z" fill="white" fill-opacity="0.5"/>
<path d="M28 104C30.2091 104 32 102.209 32 100C32 97.7909 30.2091 96 28 96C25.7909 96 24 97.7909 24 100C24 102.209 25.7909 104 28 104Z" fill="white" fill-opacity="0.5"/>
<path d="M56 100C56 102.209 54.2091 104 52 104C49.7909 104 48 102.209 48 100C48 97.7909 49.7909 96 52 96C54.2091 96 56 97.7909 56 100Z" fill="white" fill-opacity="0.5"/>
<path d="M76 104C78.2091 104 80 102.209 80 100C80 97.7909 78.2091 96 76 96C73.7909 96 72 97.7909 72 100C72 102.209 73.7909 104 76 104Z" fill="white" fill-opacity="0.5"/>
<path d="M104 100C104 102.209 102.209 104 100 104C97.7909 104 96 102.209 96 100C96 97.7909 97.7909 96 100 96C102.209 96 104 97.7909 104 100Z" fill="white" fill-opacity="0.5"/>
<path d="M124 104C126.209 104 128 102.209 128 100C128 97.7909 126.209 96 124 96C121.791 96 120 97.7909 120 100C120 102.209 121.791 104 124 104Z" fill="white" fill-opacity="0.5"/>
<path d="M152 100C152 102.209 150.209 104 148 104C145.791 104 144 102.209 144 100C144 97.7909 145.791 96 148 96C150.209 96 152 97.7909 152 100Z" fill="white" fill-opacity="0.5"/>
<path d="M172 104C174.209 104 176 102.209 176 100C176 97.7909 174.209 96 172 96C169.791 96 168 97.7909 168 100C168 102.209 169.791 104 172 104Z" fill="white" fill-opacity="0.5"/>
<path d="M200 100C200 102.209 198.209 104 196 104C193.791 104 192 102.209 192 100C192 97.7909 193.791 96 196 96C198.209 96 200 97.7909 200 100Z" fill="white" fill-opacity="0.5"/>
<path d="M220 104C222.209 104 224 102.209 224 100C224 97.7909 222.209 96 220 96C217.791 96 216 97.7909 216 100C216 102.209 217.791 104 220 104Z" fill="white" fill-opacity="0.5"/>
<path d="M8 124C8 126.209 6.20914 128 4 128C1.79086 128 0 126.209 0 124C0 121.791 1.79086 120 4 120C6.20914 120 8 121.791 8 124Z" fill="white" fill-opacity="0.5"/>
<path d="M28 128C30.2091 128 32 126.209 32 124C32 121.791 30.2091 120 28 120C25.7909 120 24 121.791 24 124C24 126.209 25.7909 128 28 128Z" fill="white" fill-opacity="0.5"/>
<path d="M56 124C56 126.209 54.2091 128 52 128C49.7909 128 48 126.209 48 124C48 121.791 49.7909 120 52 120C54.2091 120 56 121.791 56 124Z" fill="white" fill-opacity="0.5"/>
<path d="M76 128C78.2091 128 80 126.209 80 124C80 121.791 78.2091 120 76 120C73.7909 120 72 121.791 72 124C72 126.209 73.7909 128 76 128Z" fill="white" fill-opacity="0.5"/>
<path d="M104 124C104 126.209 102.209 128 100 128C97.7909 128 96 126.209 96 124C96 121.791 97.7909 120 100 120C102.209 120 104 121.791 104 124Z" fill="white" fill-opacity="0.5"/>
<path d="M124 128C126.209 128 128 126.209 128 124C128 121.791 126.209 120 124 120C121.791 120 120 121.791 120 124C120 126.209 121.791 128 124 128Z" fill="white" fill-opacity="0.5"/>
<path d="M152 124C152 126.209 150.209 128 148 128C145.791 128 144 126.209 144 124C144 121.791 145.791 120 148 120C150.209 120 152 121.791 152 124Z" fill="white" fill-opacity="0.5"/>
<path d="M172 128C174.209 128 176 126.209 176 124C176 121.791 174.209 120 172 120C169.791 120 168 121.791 168 124C168 126.209 169.791 128 172 128Z" fill="white" fill-opacity="0.5"/>
<path d="M200 124C200 126.209 198.209 128 196 128C193.791 128 192 126.209 192 124C192 121.791 193.791 120 196 120C198.209 120 200 121.791 200 124Z" fill="white" fill-opacity="0.5"/>
<path d="M220 128C222.209 128 224 126.209 224 124C224 121.791 222.209 120 220 120C217.791 120 216 121.791 216 124C216 126.209 217.791 128 220 128Z" fill="white" fill-opacity="0.5"/>
<path d="M8 148C8 150.209 6.20914 152 4 152C1.79086 152 0 150.209 0 148C0 145.791 1.79086 144 4 144C6.20914 144 8 145.791 8 148Z" fill="white" fill-opacity="0.5"/>
<path d="M28 152C30.2091 152 32 150.209 32 148C32 145.791 30.2091 144 28 144C25.7909 144 24 145.791 24 148C24 150.209 25.7909 152 28 152Z" fill="white" fill-opacity="0.5"/>
<path d="M56 148C56 150.209 54.2091 152 52 152C49.7909 152 48 150.209 48 148C48 145.791 49.7909 144 52 144C54.2091 144 56 145.791 56 148Z" fill="white" fill-opacity="0.5"/>
<path d="M76 152C78.2091 152 80 150.209 80 148C80 145.791 78.2091 144 76 144C73.7909 144 72 145.791 72 148C72 150.209 73.7909 152 76 152Z" fill="white" fill-opacity="0.5"/>
<path d="M104 148C104 150.209 102.209 152 100 152C97.7909 152 96 150.209 96 148C96 145.791 97.7909 144 100 144C102.209 144 104 145.791 104 148Z" fill="white" fill-opacity="0.5"/>
<path d="M124 152C126.209 152 128 150.209 128 148C128 145.791 126.209 144 124 144C121.791 144 120 145.791 120 148C120 150.209 121.791 152 124 152Z" fill="white" fill-opacity="0.5"/>
<path d="M152 148C152 150.209 150.209 152 148 152C145.791 152 144 150.209 144 148C144 145.791 145.791 144 148 144C150.209 144 152 145.791 152 148Z" fill="white" fill-opacity="0.5"/>
<path d="M172 152C174.209 152 176 150.209 176 148C176 145.791 174.209 144 172 144C169.791 144 168 145.791 168 148C168 150.209 169.791 152 172 152Z" fill="white" fill-opacity="0.5"/>
<path d="M200 148C200 150.209 198.209 152 196 152C193.791 152 192 150.209 192 148C192 145.791 193.791 144 196 144C198.209 144 200 145.791 200 148Z" fill="white" fill-opacity="0.5"/>
<path d="M220 152C222.209 152 224 150.209 224 148C224 145.791 222.209 144 220 144C217.791 144 216 145.791 216 148C216 150.209 217.791 152 220 152Z" fill="white" fill-opacity="0.5"/>
<path d="M8 172C8 174.209 6.20914 176 4 176C1.79086 176 0 174.209 0 172C0 169.791 1.79086 168 4 168C6.20914 168 8 169.791 8 172Z" fill="white" fill-opacity="0.5"/>
<path d="M28 176C30.2091 176 32 174.209 32 172C32 169.791 30.2091 168 28 168C25.7909 168 24 169.791 24 172C24 174.209 25.7909 176 28 176Z" fill="white" fill-opacity="0.5"/>
<path d="M56 172C56 174.209 54.2091 176 52 176C49.7909 176 48 174.209 48 172C48 169.791 49.7909 168 52 168C54.2091 168 56 169.791 56 172Z" fill="white" fill-opacity="0.5"/>
<path d="M76 176C78.2091 176 80 174.209 80 172C80 169.791 78.2091 168 76 168C73.7909 168 72 169.791 72 172C72 174.209 73.7909 176 76 176Z" fill="white" fill-opacity="0.5"/>
<path d="M104 172C104 174.209 102.209 176 100 176C97.7909 176 96 174.209 96 172C96 169.791 97.7909 168 100 168C102.209 168 104 169.791 104 172Z" fill="white" fill-opacity="0.5"/>
<path d="M124 176C126.209 176 128 174.209 128 172C128 169.791 126.209 168 124 168C121.791 168 120 169.791 120 172C120 174.209 121.791 176 124 176Z" fill="white" fill-opacity="0.5"/>
<path d="M152 172C152 174.209 150.209 176 148 176C145.791 176 144 174.209 144 172C144 169.791 145.791 168 148 168C150.209 168 152 169.791 152 172Z" fill="white" fill-opacity="0.5"/>
<path d="M172 176C174.209 176 176 174.209 176 172C176 169.791 174.209 168 172 168C169.791 168 168 169.791 168 172C168 174.209 169.791 176 172 176Z" fill="white" fill-opacity="0.5"/>
<path d="M200 172C200 174.209 198.209 176 196 176C193.791 176 192 174.209 192 172C192 169.791 193.791 168 196 168C198.209 168 200 169.791 200 172Z" fill="white" fill-opacity="0.5"/>
<path d="M220 176C222.209 176 224 174.209 224 172C224 169.791 222.209 168 220 168C217.791 168 216 169.791 216 172C216 174.209 217.791 176 220 176Z" fill="white" fill-opacity="0.5"/>
<path d="M8 196C8 198.209 6.20914 200 4 200C1.79086 200 0 198.209 0 196C0 193.791 1.79086 192 4 192C6.20914 192 8 193.791 8 196Z" fill="white" fill-opacity="0.5"/>
<path d="M28 200C30.2091 200 32 198.209 32 196C32 193.791 30.2091 192 28 192C25.7909 192 24 193.791 24 196C24 198.209 25.7909 200 28 200Z" fill="white" fill-opacity="0.5"/>
<path d="M56 196C56 198.209 54.2091 200 52 200C49.7909 200 48 198.209 48 196C48 193.791 49.7909 192 52 192C54.2091 192 56 193.791 56 196Z" fill="white" fill-opacity="0.5"/>
<path d="M76 200C78.2091 200 80 198.209 80 196C80 193.791 78.2091 192 76 192C73.7909 192 72 193.791 72 196C72 198.209 73.7909 200 76 200Z" fill="white" fill-opacity="0.5"/>
<path d="M104 196C104 198.209 102.209 200 100 200C97.7909 200 96 198.209 96 196C96 193.791 97.7909 192 100 192C102.209 192 104 193.791 104 196Z" fill="white" fill-opacity="0.5"/>
<path d="M124 200C126.209 200 128 198.209 128 196C128 193.791 126.209 192 124 192C121.791 192 120 193.791 120 196C120 198.209 121.791 200 124 200Z" fill="white" fill-opacity="0.5"/>
<path d="M152 196C152 198.209 150.209 200 148 200C145.791 200 144 198.209 144 196C144 193.791 145.791 192 148 192C150.209 192 152 193.791 152 196Z" fill="white" fill-opacity="0.5"/>
<path d="M172 200C174.209 200 176 198.209 176 196C176 193.791 174.209 192 172 192C169.791 192 168 193.791 168 196C168 198.209 169.791 200 172 200Z" fill="white" fill-opacity="0.5"/>
<path d="M200 196C200 198.209 198.209 200 196 200C193.791 200 192 198.209 192 196C192 193.791 193.791 192 196 192C198.209 192 200 193.791 200 196Z" fill="white" fill-opacity="0.5"/>
<path d="M220 200C222.209 200 224 198.209 224 196C224 193.791 222.209 192 220 192C217.791 192 216 193.791 216 196C216 198.209 217.791 200 220 200Z" fill="white" fill-opacity="0.5"/>
<path d="M8 220C8 222.209 6.20914 224 4 224C1.79086 224 0 222.209 0 220C0 217.791 1.79086 216 4 216C6.20914 216 8 217.791 8 220Z" fill="white" fill-opacity="0.5"/>
<path d="M28 224C30.2091 224 32 222.209 32 220C32 217.791 30.2091 216 28 216C25.7909 216 24 217.791 24 220C24 222.209 25.7909 224 28 224Z" fill="white" fill-opacity="0.5"/>
<path d="M56 220C56 222.209 54.2091 224 52 224C49.7909 224 48 222.209 48 220C48 217.791 49.7909 216 52 216C54.2091 216 56 217.791 56 220Z" fill="white" fill-opacity="0.5"/>
<path d="M76 224C78.2091 224 80 222.209 80 220C80 217.791 78.2091 216 76 216C73.7909 216 72 217.791 72 220C72 222.209 73.7909 224 76 224Z" fill="white" fill-opacity="0.5"/>
<path d="M104 220C104 222.209 102.209 224 100 224C97.7909 224 96 222.209 96 220C96 217.791 97.7909 216 100 216C102.209 216 104 217.791 104 220Z" fill="white" fill-opacity="0.5"/>
<path d="M124 224C126.209 224 128 222.209 128 220C128 217.791 126.209 216 124 216C121.791 216 120 217.791 120 220C120 222.209 121.791 224 124 224Z" fill="white" fill-opacity="0.5"/>
<path d="M152 220C152 222.209 150.209 224 148 224C145.791 224 144 222.209 144 220C144 217.791 145.791 216 148 216C150.209 216 152 217.791 152 220Z" fill="white" fill-opacity="0.5"/>
<path d="M172 224C174.209 224 176 222.209 176 220C176 217.791 174.209 216 172 216C169.791 216 168 217.791 168 220C168 222.209 169.791 224 172 224Z" fill="white" fill-opacity="0.5"/>
<path d="M200 220C200 222.209 198.209 224 196 224C193.791 224 192 222.209 192 220C192 217.791 193.791 216 196 216C198.209 216 200 217.791 200 220Z" fill="white" fill-opacity="0.5"/>
<path d="M220 224C222.209 224 224 222.209 224 220C224 217.791 222.209 216 220 216C217.791 216 216 217.791 216 220C216 222.209 217.791 224 220 224Z" fill="white" fill-opacity="0.5"/>
</svg>
