<svg width="137" height="288" viewBox="0 0 137 288" fill="none" xmlns="http://www.w3.org/2000/svg">
<path d="M87.2329 2C40.1598 2 2 16.2092 2 33.7372C2 51.2651 40.1598 65.4744 87.2329 65.4744C113.614 65.4744 135 59.4595 135 52.0396C135 44.6198 113.614 38.6048 87.2329 38.6048C40.1598 38.6048 2 52.814 2 70.342C2 87.8701 40.1598 102.08 87.2329 102.08C113.614 102.08 135 96.0645 135 88.6445C135 81.2246 113.614 75.2097 87.2329 75.2097C40.1598 75.2097 2 89.5062 2 107.142C2 124.777 40.1598 139.074 87.2329 139.074C113.614 139.074 135 133.059 135 125.639C135 118.219 113.614 112.204 87.2329 112.204C40.1598 112.204 2 126.413 2 143.941C2 161.469 40.1598 175.678 87.2329 175.678C113.614 175.678 135 169.664 135 162.244C135 154.824 113.614 148.809 87.2329 148.809C40.1598 148.809 2 163.018 2 180.546C2 198.074 40.1598 212.283 87.2329 212.283C113.614 212.283 135 206.268 135 198.849C135 191.429 113.614 185.414 87.2329 185.414C40.1598 185.414 2 199.623 2 217.15C2 234.678 40.1598 248.888 87.2329 248.888C113.614 248.888 135 242.873 135 235.453C135 228.034 113.614 222.019 87.2329 222.019C40.1598 222.019 2 236.315 2 253.95C2 271.585 40.1598 285.882 87.2329 285.882" stroke="#4F4F4F" stroke-width="3.35294" stroke-linecap="round"/>
</svg>
