<svg width="231" height="123" viewBox="0 0 231 123" fill="none" xmlns="http://www.w3.org/2000/svg">
<g clip-path="url(#clip0_806_845)">
<path d="M21 8C19.55 8 18.74 9.44 19.07 10.51L15.52 14.07C15.22 13.98 14.78 13.98 14.48 14.07L11.93 11.52C12.27 10.45 11.46 9 10 9C8.55 9 7.73 10.44 8.07 11.52L3.51 16.07C2.44 15.74 1 16.55 1 18C1 19.1 1.9 20 3 20C4.45 20 5.26 18.56 4.93 17.49L9.48 12.93C9.78 13.02 10.22 13.02 10.52 12.93L13.07 15.48C12.73 16.55 13.54 18 15 18C16.45 18 17.27 16.56 16.93 15.48L20.49 11.93C21.56 12.26 23 11.45 23 10C23 8.9 22.1 8 21 8Z" fill="white" fill-opacity="0.8"/>
<path d="M15 9L15.94 6.93L18 6L15.94 5.07L15 3L14.08 5.07L12 6L14.08 6.93L15 9Z" fill="white" fill-opacity="0.8"/>
<path d="M3.5 11L4 9L6 8.5L4 8L3.5 6L3 8L1 8.5L3 9L3.5 11Z" fill="white" fill-opacity="0.8"/>
</g>
<path d="M1.896 39.008H7.608C8.424 39.008 9.208 39.088 9.96 39.248C10.728 39.408 11.4 39.68 11.976 40.064C12.552 40.432 13.008 40.936 13.344 41.576C13.696 42.2 13.872 42.984 13.872 43.928C13.872 45 13.688 45.864 13.32 46.52C12.952 47.176 12.456 47.688 11.832 48.056C11.208 48.408 10.48 48.648 9.648 48.776C8.832 48.904 7.976 48.968 7.08 48.968H4.92V56H1.896V39.008ZM6.744 46.376C7.176 46.376 7.624 46.36 8.088 46.328C8.552 46.296 8.976 46.2 9.36 46.04C9.76 45.88 10.08 45.64 10.32 45.32C10.576 45 10.704 44.552 10.704 43.976C10.704 43.448 10.592 43.032 10.368 42.728C10.144 42.408 9.856 42.168 9.504 42.008C9.152 41.832 8.76 41.72 8.328 41.672C7.896 41.624 7.48 41.6 7.08 41.6H4.92V46.376H6.744ZM16.3519 37.856H19.2319V56H16.3519V37.856ZM29.7383 54.416H29.6663C29.2503 55.072 28.7223 55.552 28.0823 55.856C27.4423 56.144 26.7383 56.288 25.9703 56.288C25.4423 56.288 24.9223 56.216 24.4103 56.072C23.9143 55.928 23.4663 55.712 23.0663 55.424C22.6823 55.136 22.3703 54.776 22.1303 54.344C21.8903 53.912 21.7703 53.408 21.7703 52.832C21.7703 52.208 21.8823 51.68 22.1063 51.248C22.3303 50.8 22.6263 50.432 22.9943 50.144C23.3783 49.84 23.8183 49.6 24.3143 49.424C24.8103 49.248 25.3223 49.12 25.8503 49.04C26.3943 48.944 26.9383 48.888 27.4823 48.872C28.0263 48.84 28.5383 48.824 29.0183 48.824H29.7383V48.512C29.7383 47.792 29.4903 47.256 28.9943 46.904C28.4983 46.536 27.8663 46.352 27.0983 46.352C26.4903 46.352 25.9223 46.464 25.3943 46.688C24.8663 46.896 24.4103 47.184 24.0263 47.552L22.5143 46.04C23.1543 45.384 23.8983 44.912 24.7463 44.624C25.6103 44.336 26.4983 44.192 27.4103 44.192C28.2263 44.192 28.9143 44.288 29.4743 44.48C30.0343 44.656 30.4983 44.888 30.8663 45.176C31.2343 45.464 31.5143 45.8 31.7063 46.184C31.9143 46.552 32.0583 46.928 32.1383 47.312C32.2343 47.696 32.2903 48.072 32.3063 48.44C32.3223 48.792 32.3303 49.104 32.3303 49.376V56H29.7383V54.416ZM29.5703 50.84H28.9703C28.5703 50.84 28.1223 50.856 27.6263 50.888C27.1303 50.92 26.6583 51 26.2103 51.128C25.7783 51.24 25.4103 51.416 25.1063 51.656C24.8023 51.88 24.6503 52.2 24.6503 52.616C24.6503 52.888 24.7063 53.12 24.8183 53.312C24.9463 53.488 25.1063 53.64 25.2983 53.768C25.4903 53.896 25.7063 53.992 25.9463 54.056C26.1863 54.104 26.4263 54.128 26.6663 54.128C27.6583 54.128 28.3863 53.896 28.8503 53.432C29.3303 52.952 29.5703 52.304 29.5703 51.488V50.84ZM35.4289 44.48H38.1649V46.328H38.2129C38.4849 45.752 38.9009 45.256 39.4609 44.84C40.0209 44.408 40.7809 44.192 41.7409 44.192C42.5089 44.192 43.1569 44.32 43.6849 44.576C44.2289 44.832 44.6689 45.168 45.0049 45.584C45.3409 46 45.5809 46.48 45.7249 47.024C45.8689 47.568 45.9409 48.136 45.9409 48.728V56H43.0609V50.168C43.0609 49.848 43.0449 49.496 43.0129 49.112C42.9809 48.712 42.8929 48.344 42.7489 48.008C42.6209 47.656 42.4129 47.368 42.1249 47.144C41.8369 46.904 41.4449 46.784 40.9489 46.784C40.4689 46.784 40.0609 46.864 39.7249 47.024C39.4049 47.184 39.1329 47.4 38.9089 47.672C38.7009 47.944 38.5489 48.256 38.4529 48.608C38.3569 48.96 38.3089 49.328 38.3089 49.712V56H35.4289V44.48ZM51.5141 51.248C51.6101 52.112 51.9461 52.784 52.5221 53.264C53.0981 53.744 53.7941 53.984 54.6101 53.984C55.3301 53.984 55.9301 53.84 56.4101 53.552C56.9061 53.248 57.3381 52.872 57.7061 52.424L59.7701 53.984C59.0981 54.816 58.3461 55.408 57.5141 55.76C56.6821 56.112 55.8101 56.288 54.8981 56.288C54.0341 56.288 53.2181 56.144 52.4501 55.856C51.6821 55.568 51.0181 55.16 50.4581 54.632C49.8981 54.104 49.4501 53.472 49.1141 52.736C48.7941 51.984 48.6341 51.152 48.6341 50.24C48.6341 49.328 48.7941 48.504 49.1141 47.768C49.4501 47.016 49.8981 46.376 50.4581 45.848C51.0181 45.32 51.6821 44.912 52.4501 44.624C53.2181 44.336 54.0341 44.192 54.8981 44.192C55.6981 44.192 56.4261 44.336 57.0821 44.624C57.7541 44.896 58.3221 45.296 58.7861 45.824C59.2661 46.352 59.6341 47.008 59.8901 47.792C60.1621 48.56 60.2981 49.448 60.2981 50.456V51.248H51.5141ZM57.4181 49.088C57.4021 48.24 57.1381 47.576 56.6261 47.096C56.1141 46.6 55.4021 46.352 54.4901 46.352C53.6261 46.352 52.9381 46.6 52.4261 47.096C51.9301 47.592 51.6261 48.256 51.5141 49.088H57.4181ZM61.6474 46.928V44.48H64.0234V41.144H66.9034V44.48H70.0714V46.928H66.9034V51.968C66.9034 52.544 67.0074 53 67.2154 53.336C67.4394 53.672 67.8714 53.84 68.5114 53.84C68.7674 53.84 69.0474 53.816 69.3514 53.768C69.6554 53.704 69.8954 53.608 70.0714 53.48V55.904C69.7674 56.048 69.3914 56.144 68.9434 56.192C68.5114 56.256 68.1274 56.288 67.7914 56.288C67.0234 56.288 66.3914 56.2 65.8954 56.024C65.4154 55.864 65.0314 55.616 64.7434 55.28C64.4714 54.928 64.2794 54.496 64.1674 53.984C64.0714 53.472 64.0234 52.88 64.0234 52.208V46.928H61.6474ZM78.4635 47.672C77.9035 46.888 77.1515 46.496 76.2075 46.496C75.8235 46.496 75.4475 46.592 75.0795 46.784C74.7115 46.976 74.5275 47.288 74.5275 47.72C74.5275 48.072 74.6795 48.328 74.9835 48.488C75.2875 48.648 75.6715 48.784 76.1355 48.896C76.5995 49.008 77.0955 49.128 77.6235 49.256C78.1675 49.368 78.6715 49.552 79.1355 49.808C79.5995 50.048 79.9835 50.384 80.2875 50.816C80.5915 51.248 80.7435 51.84 80.7435 52.592C80.7435 53.28 80.5915 53.864 80.2875 54.344C79.9995 54.808 79.6155 55.184 79.1355 55.472C78.6715 55.76 78.1435 55.968 77.5515 56.096C76.9595 56.224 76.3675 56.288 75.7755 56.288C74.8795 56.288 74.0555 56.16 73.3035 55.904C72.5515 55.648 71.8795 55.184 71.2875 54.512L73.2075 52.712C73.5755 53.128 73.9675 53.472 74.3835 53.744C74.8155 54 75.3355 54.128 75.9435 54.128C76.1515 54.128 76.3675 54.104 76.5915 54.056C76.8155 54.008 77.0235 53.928 77.2155 53.816C77.4075 53.704 77.5595 53.568 77.6715 53.408C77.7995 53.232 77.8635 53.032 77.8635 52.808C77.8635 52.408 77.7115 52.112 77.4075 51.92C77.1035 51.728 76.7195 51.576 76.2555 51.464C75.7915 51.336 75.2875 51.224 74.7435 51.128C74.2155 51.016 73.7195 50.848 73.2555 50.624C72.7915 50.384 72.4075 50.056 72.1035 49.64C71.7995 49.224 71.6475 48.648 71.6475 47.912C71.6475 47.272 71.7755 46.72 72.0315 46.256C72.3035 45.776 72.6555 45.384 73.0875 45.08C73.5195 44.776 74.0155 44.552 74.5755 44.408C75.1355 44.264 75.7035 44.192 76.2795 44.192C77.0475 44.192 77.8075 44.328 78.5595 44.6C79.3115 44.856 79.9195 45.304 80.3835 45.944L78.4635 47.672Z" fill="white"/>
<path d="M1.584 78.256H3.096V89.596H8.928V91H1.584V78.256ZM9.846 86.788C9.846 86.128 9.96 85.528 10.188 84.988C10.416 84.448 10.728 83.986 11.124 83.602C11.52 83.206 11.994 82.9 12.546 82.684C13.098 82.468 13.698 82.36 14.346 82.36C14.994 82.36 15.594 82.468 16.146 82.684C16.698 82.9 17.172 83.206 17.568 83.602C17.964 83.986 18.276 84.448 18.504 84.988C18.732 85.528 18.846 86.128 18.846 86.788C18.846 87.448 18.732 88.048 18.504 88.588C18.276 89.128 17.964 89.596 17.568 89.992C17.172 90.376 16.698 90.676 16.146 90.892C15.594 91.108 14.994 91.216 14.346 91.216C13.698 91.216 13.098 91.108 12.546 90.892C11.994 90.676 11.52 90.376 11.124 89.992C10.728 89.596 10.416 89.128 10.188 88.588C9.96 88.048 9.846 87.448 9.846 86.788ZM11.358 86.788C11.358 87.232 11.424 87.646 11.556 88.03C11.7 88.402 11.904 88.732 12.168 89.02C12.432 89.296 12.744 89.518 13.104 89.686C13.476 89.842 13.89 89.92 14.346 89.92C14.802 89.92 15.21 89.842 15.57 89.686C15.942 89.518 16.26 89.296 16.524 89.02C16.788 88.732 16.986 88.402 17.118 88.03C17.262 87.646 17.334 87.232 17.334 86.788C17.334 86.344 17.262 85.936 17.118 85.564C16.986 85.18 16.788 84.85 16.524 84.574C16.26 84.286 15.942 84.064 15.57 83.908C15.21 83.74 14.802 83.656 14.346 83.656C13.89 83.656 13.476 83.74 13.104 83.908C12.744 84.064 12.432 84.286 12.168 84.574C11.904 84.85 11.7 85.18 11.556 85.564C11.424 85.936 11.358 86.344 11.358 86.788ZM21.0195 84.574C21.0195 84.19 21.0075 83.83 20.9835 83.494C20.9595 83.158 20.9475 82.852 20.9475 82.576H22.2795C22.2795 82.804 22.2855 83.032 22.2975 83.26C22.3095 83.488 22.3155 83.722 22.3155 83.962H22.3515C22.4475 83.758 22.5795 83.56 22.7475 83.368C22.9275 83.176 23.1375 83.008 23.3775 82.864C23.6175 82.708 23.8875 82.588 24.1875 82.504C24.4875 82.408 24.8115 82.36 25.1595 82.36C25.2555 82.36 25.3515 82.366 25.4475 82.378C25.5435 82.39 25.6395 82.414 25.7355 82.45L25.6455 83.872C25.4055 83.8 25.1535 83.764 24.8895 83.764C24.0255 83.764 23.3955 84.046 22.9995 84.61C22.6155 85.162 22.4235 85.924 22.4235 86.896V91H21.0195V84.574ZM34.5552 89.47C34.0512 90.118 33.4992 90.574 32.8992 90.838C32.2992 91.09 31.6032 91.216 30.8112 91.216C30.1512 91.216 29.5572 91.102 29.0292 90.874C28.5012 90.634 28.0512 90.316 27.6792 89.92C27.3192 89.524 27.0372 89.056 26.8332 88.516C26.6412 87.976 26.5452 87.4 26.5452 86.788C26.5452 86.14 26.6532 85.546 26.8692 85.006C27.0852 84.454 27.3852 83.986 27.7692 83.602C28.1532 83.206 28.6092 82.9 29.1372 82.684C29.6652 82.468 30.2412 82.36 30.8652 82.36C31.4532 82.36 31.9932 82.462 32.4852 82.666C32.9772 82.858 33.3972 83.146 33.7452 83.53C34.1052 83.902 34.3812 84.364 34.5732 84.916C34.7652 85.456 34.8612 86.074 34.8612 86.77V87.22H28.0572C28.0812 87.58 28.1652 87.928 28.3092 88.264C28.4652 88.588 28.6632 88.876 28.9032 89.128C29.1432 89.368 29.4252 89.56 29.7492 89.704C30.0732 89.848 30.4272 89.92 30.8112 89.92C31.4232 89.92 31.9392 89.812 32.3592 89.596C32.7792 89.38 33.1572 89.062 33.4932 88.642L34.5552 89.47ZM33.3492 86.032C33.3252 85.312 33.0912 84.736 32.6472 84.304C32.2032 83.872 31.5912 83.656 30.8112 83.656C30.0312 83.656 29.4012 83.872 28.9212 84.304C28.4412 84.736 28.1532 85.312 28.0572 86.032H33.3492ZM37.0332 84.574C37.0332 84.19 37.0212 83.83 36.9972 83.494C36.9732 83.158 36.9612 82.852 36.9612 82.576H38.2932C38.2932 82.804 38.2992 83.032 38.3112 83.26C38.3232 83.488 38.3292 83.722 38.3292 83.962H38.3652C38.4612 83.758 38.5932 83.56 38.7612 83.368C38.9412 83.176 39.1512 83.008 39.3912 82.864C39.6312 82.708 39.9012 82.588 40.2012 82.504C40.5012 82.408 40.8252 82.36 41.1732 82.36C41.6292 82.36 42.0072 82.42 42.3072 82.54C42.6192 82.648 42.8772 82.786 43.0812 82.954C43.2852 83.11 43.4412 83.284 43.5492 83.476C43.6692 83.656 43.7652 83.818 43.8372 83.962C44.1492 83.458 44.5092 83.068 44.9172 82.792C45.3252 82.504 45.8532 82.36 46.5012 82.36C47.1012 82.36 47.6052 82.444 48.0132 82.612C48.4212 82.768 48.7512 83.002 49.0032 83.314C49.2552 83.614 49.4352 83.986 49.5432 84.43C49.6512 84.862 49.7052 85.348 49.7052 85.888V91H48.3012V85.96C48.3012 85.672 48.2712 85.39 48.2112 85.114C48.1512 84.838 48.0432 84.592 47.8872 84.376C47.7312 84.16 47.5212 83.986 47.2572 83.854C46.9932 83.722 46.6572 83.656 46.2492 83.656C45.9492 83.656 45.6672 83.716 45.4032 83.836C45.1392 83.956 44.9052 84.124 44.7012 84.34C44.5092 84.556 44.3532 84.82 44.2332 85.132C44.1252 85.432 44.0712 85.768 44.0712 86.14V91H42.6672V86.23C42.6672 85.294 42.5412 84.634 42.2892 84.25C42.0372 83.854 41.6232 83.656 41.0472 83.656C40.5912 83.656 40.1952 83.734 39.8592 83.89C39.5352 84.046 39.2652 84.268 39.0492 84.556C38.8452 84.844 38.6892 85.186 38.5812 85.582C38.4852 85.978 38.4372 86.416 38.4372 86.896V91H37.0332V84.574ZM57.4971 82.576H58.9011V91H57.4971V82.576ZM57.1731 79.282C57.1731 79.006 57.2691 78.766 57.4611 78.562C57.6651 78.358 57.9111 78.256 58.1991 78.256C58.4871 78.256 58.7271 78.358 58.9191 78.562C59.1231 78.766 59.2251 79.006 59.2251 79.282C59.2251 79.582 59.1291 79.828 58.9371 80.02C58.7451 80.212 58.4991 80.308 58.1991 80.308C57.8991 80.308 57.6531 80.212 57.4611 80.02C57.2691 79.828 57.1731 79.582 57.1731 79.282ZM61.6233 82.576H63.0273V83.8H63.0633C63.4473 83.344 63.8913 82.99 64.3953 82.738C64.9113 82.486 65.4753 82.36 66.0873 82.36C66.7473 82.36 67.3473 82.474 67.8873 82.702C68.4393 82.918 68.9073 83.224 69.2913 83.62C69.6753 84.016 69.9753 84.484 70.1913 85.024C70.4073 85.564 70.5153 86.152 70.5153 86.788C70.5153 87.424 70.4073 88.012 70.1913 88.552C69.9753 89.092 69.6753 89.56 69.2913 89.956C68.9193 90.352 68.4753 90.664 67.9593 90.892C67.4433 91.108 66.8913 91.216 66.3033 91.216C65.5473 91.216 64.8813 91.054 64.3053 90.73C63.7413 90.394 63.3273 89.986 63.0633 89.506H63.0273V95.104H61.6233V82.576ZM63.0273 86.788C63.0273 87.232 63.0933 87.646 63.2253 88.03C63.3693 88.402 63.5733 88.732 63.8373 89.02C64.1013 89.296 64.4133 89.518 64.7733 89.686C65.1453 89.842 65.5593 89.92 66.0153 89.92C66.4713 89.92 66.8793 89.842 67.2393 89.686C67.6113 89.518 67.9293 89.296 68.1933 89.02C68.4573 88.732 68.6553 88.402 68.7873 88.03C68.9313 87.646 69.0033 87.232 69.0033 86.788C69.0033 86.344 68.9313 85.936 68.7873 85.564C68.6553 85.18 68.4573 84.85 68.1933 84.574C67.9293 84.286 67.6113 84.064 67.2393 83.908C66.8793 83.74 66.4713 83.656 66.0153 83.656C65.5593 83.656 65.1453 83.74 64.7733 83.908C64.4133 84.064 64.1013 84.286 63.8373 84.574C63.5733 84.85 63.3693 85.18 63.2253 85.564C63.0933 85.936 63.0273 86.344 63.0273 86.788ZM72.8792 88.786C73.1552 89.134 73.4552 89.41 73.7792 89.614C74.1152 89.818 74.5352 89.92 75.0392 89.92C75.2552 89.92 75.4712 89.896 75.6872 89.848C75.9152 89.8 76.1192 89.722 76.2992 89.614C76.4792 89.506 76.6232 89.374 76.7312 89.218C76.8392 89.05 76.8932 88.852 76.8932 88.624C76.8932 88.396 76.8392 88.21 76.7312 88.066C76.6352 87.922 76.5032 87.802 76.3352 87.706C76.1672 87.598 75.9752 87.514 75.7592 87.454C75.5432 87.394 75.3212 87.34 75.0932 87.292C74.6972 87.208 74.3192 87.112 73.9592 87.004C73.5992 86.896 73.2812 86.758 73.0052 86.59C72.7412 86.41 72.5252 86.182 72.3572 85.906C72.2012 85.63 72.1232 85.276 72.1232 84.844C72.1232 84.436 72.2132 84.076 72.3932 83.764C72.5732 83.452 72.8132 83.194 73.1132 82.99C73.4132 82.786 73.7492 82.63 74.1212 82.522C74.4932 82.414 74.8772 82.36 75.2732 82.36C75.8732 82.36 76.4252 82.48 76.9292 82.72C77.4452 82.96 77.8472 83.35 78.1352 83.89L76.9652 84.664C76.7852 84.364 76.5452 84.124 76.2452 83.944C75.9572 83.752 75.6032 83.656 75.1832 83.656C74.9912 83.656 74.7932 83.68 74.5892 83.728C74.3972 83.776 74.2232 83.848 74.0672 83.944C73.9112 84.04 73.7792 84.166 73.6712 84.322C73.5752 84.466 73.5272 84.634 73.5272 84.826C73.5272 85.006 73.5812 85.162 73.6892 85.294C73.8092 85.414 73.9652 85.522 74.1572 85.618C74.3612 85.714 74.5892 85.798 74.8412 85.87C75.1052 85.942 75.3752 86.002 75.6512 86.05C76.0232 86.122 76.3772 86.218 76.7132 86.338C77.0492 86.446 77.3432 86.596 77.5952 86.788C77.8472 86.98 78.0452 87.22 78.1892 87.508C78.3332 87.796 78.4052 88.15 78.4052 88.57C78.4052 89.05 78.3092 89.458 78.1172 89.794C77.9252 90.13 77.6672 90.406 77.3432 90.622C77.0312 90.826 76.6712 90.976 76.2632 91.072C75.8672 91.168 75.4592 91.216 75.0392 91.216C74.3192 91.216 73.6952 91.108 73.1672 90.892C72.6512 90.664 72.1832 90.25 71.7632 89.65L72.8792 88.786ZM87.7073 89.002C87.7073 89.386 87.7193 89.746 87.7433 90.082C87.7673 90.418 87.7793 90.724 87.7793 91H86.4473C86.4473 90.772 86.4413 90.544 86.4293 90.316C86.4173 90.088 86.4113 89.854 86.4113 89.614H86.3753C86.2793 89.818 86.1413 90.016 85.9613 90.208C85.7933 90.4 85.5893 90.574 85.3493 90.73C85.1093 90.874 84.8393 90.988 84.5393 91.072C84.2393 91.168 83.9153 91.216 83.5673 91.216C83.0153 91.216 82.5353 91.132 82.1273 90.964C81.7313 90.796 81.4013 90.562 81.1373 90.262C80.8733 89.962 80.6753 89.602 80.5433 89.182C80.4233 88.75 80.3633 88.282 80.3633 87.778V82.576H81.7673V87.634C81.7673 88.342 81.9233 88.9 82.2353 89.308C82.5473 89.716 83.0333 89.92 83.6933 89.92C84.1493 89.92 84.5393 89.842 84.8633 89.686C85.1993 89.53 85.4693 89.308 85.6733 89.02C85.8893 88.732 86.0453 88.39 86.1413 87.994C86.2493 87.598 86.3033 87.16 86.3033 86.68V82.576H87.7073V89.002ZM90.3652 84.574C90.3652 84.19 90.3532 83.83 90.3292 83.494C90.3052 83.158 90.2932 82.852 90.2932 82.576H91.6252C91.6252 82.804 91.6312 83.032 91.6432 83.26C91.6552 83.488 91.6612 83.722 91.6612 83.962H91.6972C91.7932 83.758 91.9252 83.56 92.0932 83.368C92.2732 83.176 92.4832 83.008 92.7232 82.864C92.9632 82.708 93.2332 82.588 93.5332 82.504C93.8332 82.408 94.1572 82.36 94.5052 82.36C94.9612 82.36 95.3392 82.42 95.6392 82.54C95.9512 82.648 96.2092 82.786 96.4132 82.954C96.6172 83.11 96.7732 83.284 96.8812 83.476C97.0012 83.656 97.0972 83.818 97.1692 83.962C97.4812 83.458 97.8412 83.068 98.2492 82.792C98.6572 82.504 99.1852 82.36 99.8332 82.36C100.433 82.36 100.937 82.444 101.345 82.612C101.753 82.768 102.083 83.002 102.335 83.314C102.587 83.614 102.767 83.986 102.875 84.43C102.983 84.862 103.037 85.348 103.037 85.888V91H101.633V85.96C101.633 85.672 101.603 85.39 101.543 85.114C101.483 84.838 101.375 84.592 101.219 84.376C101.063 84.16 100.853 83.986 100.589 83.854C100.325 83.722 99.9892 83.656 99.5812 83.656C99.2812 83.656 98.9992 83.716 98.7352 83.836C98.4712 83.956 98.2372 84.124 98.0332 84.34C97.8412 84.556 97.6852 84.82 97.5652 85.132C97.4572 85.432 97.4032 85.768 97.4032 86.14V91H95.9992V86.23C95.9992 85.294 95.8732 84.634 95.6212 84.25C95.3692 83.854 94.9552 83.656 94.3792 83.656C93.9232 83.656 93.5272 83.734 93.1912 83.89C92.8672 84.046 92.5972 84.268 92.3812 84.556C92.1772 84.844 92.0212 85.186 91.9132 85.582C91.8172 85.978 91.7692 86.416 91.7692 86.896V91H90.3652V84.574ZM117.705 89.506H117.669C117.405 89.986 116.985 90.394 116.409 90.73C115.845 91.054 115.185 91.216 114.429 91.216C113.841 91.216 113.289 91.108 112.773 90.892C112.257 90.664 111.807 90.352 111.423 89.956C111.051 89.56 110.757 89.092 110.541 88.552C110.325 88.012 110.217 87.424 110.217 86.788C110.217 86.152 110.325 85.564 110.541 85.024C110.757 84.484 111.057 84.016 111.441 83.62C111.825 83.224 112.287 82.918 112.827 82.702C113.379 82.474 113.985 82.36 114.645 82.36C115.257 82.36 115.815 82.486 116.319 82.738C116.835 82.99 117.285 83.344 117.669 83.8H117.705V77.392H119.109V91H117.705V89.506ZM117.705 86.788C117.705 86.344 117.633 85.936 117.489 85.564C117.357 85.18 117.159 84.85 116.895 84.574C116.631 84.286 116.313 84.064 115.941 83.908C115.581 83.74 115.173 83.656 114.717 83.656C114.261 83.656 113.847 83.74 113.475 83.908C113.115 84.064 112.803 84.286 112.539 84.574C112.275 84.85 112.071 85.18 111.927 85.564C111.795 85.936 111.729 86.344 111.729 86.788C111.729 87.232 111.795 87.646 111.927 88.03C112.071 88.402 112.275 88.732 112.539 89.02C112.803 89.296 113.115 89.518 113.475 89.686C113.847 89.842 114.261 89.92 114.717 89.92C115.173 89.92 115.581 89.842 115.941 89.686C116.313 89.518 116.631 89.296 116.895 89.02C117.159 88.732 117.357 88.402 117.489 88.03C117.633 87.646 117.705 87.232 117.705 86.788ZM121.221 86.788C121.221 86.128 121.335 85.528 121.563 84.988C121.791 84.448 122.103 83.986 122.499 83.602C122.895 83.206 123.369 82.9 123.921 82.684C124.473 82.468 125.073 82.36 125.721 82.36C126.369 82.36 126.969 82.468 127.521 82.684C128.073 82.9 128.547 83.206 128.943 83.602C129.339 83.986 129.651 84.448 129.879 84.988C130.107 85.528 130.221 86.128 130.221 86.788C130.221 87.448 130.107 88.048 129.879 88.588C129.651 89.128 129.339 89.596 128.943 89.992C128.547 90.376 128.073 90.676 127.521 90.892C126.969 91.108 126.369 91.216 125.721 91.216C125.073 91.216 124.473 91.108 123.921 90.892C123.369 90.676 122.895 90.376 122.499 89.992C122.103 89.596 121.791 89.128 121.563 88.588C121.335 88.048 121.221 87.448 121.221 86.788ZM122.733 86.788C122.733 87.232 122.799 87.646 122.931 88.03C123.075 88.402 123.279 88.732 123.543 89.02C123.807 89.296 124.119 89.518 124.479 89.686C124.851 89.842 125.265 89.92 125.721 89.92C126.177 89.92 126.585 89.842 126.945 89.686C127.317 89.518 127.635 89.296 127.899 89.02C128.163 88.732 128.361 88.402 128.493 88.03C128.637 87.646 128.709 87.232 128.709 86.788C128.709 86.344 128.637 85.936 128.493 85.564C128.361 85.18 128.163 84.85 127.899 84.574C127.635 84.286 127.317 84.064 126.945 83.908C126.585 83.74 126.177 83.656 125.721 83.656C125.265 83.656 124.851 83.74 124.479 83.908C124.119 84.064 123.807 84.286 123.543 84.574C123.279 84.85 123.075 85.18 122.931 85.564C122.799 85.936 122.733 86.344 122.733 86.788ZM132.521 77.392H133.925V91H132.521V77.392ZM136.233 86.788C136.233 86.128 136.347 85.528 136.575 84.988C136.803 84.448 137.115 83.986 137.511 83.602C137.907 83.206 138.381 82.9 138.933 82.684C139.485 82.468 140.085 82.36 140.733 82.36C141.381 82.36 141.981 82.468 142.533 82.684C143.085 82.9 143.559 83.206 143.955 83.602C144.351 83.986 144.663 84.448 144.891 84.988C145.119 85.528 145.233 86.128 145.233 86.788C145.233 87.448 145.119 88.048 144.891 88.588C144.663 89.128 144.351 89.596 143.955 89.992C143.559 90.376 143.085 90.676 142.533 90.892C141.981 91.108 141.381 91.216 140.733 91.216C140.085 91.216 139.485 91.108 138.933 90.892C138.381 90.676 137.907 90.376 137.511 89.992C137.115 89.596 136.803 89.128 136.575 88.588C136.347 88.048 136.233 87.448 136.233 86.788ZM137.745 86.788C137.745 87.232 137.811 87.646 137.943 88.03C138.087 88.402 138.291 88.732 138.555 89.02C138.819 89.296 139.131 89.518 139.491 89.686C139.863 89.842 140.277 89.92 140.733 89.92C141.189 89.92 141.597 89.842 141.957 89.686C142.329 89.518 142.647 89.296 142.911 89.02C143.175 88.732 143.373 88.402 143.505 88.03C143.649 87.646 143.721 87.232 143.721 86.788C143.721 86.344 143.649 85.936 143.505 85.564C143.373 85.18 143.175 84.85 142.911 84.574C142.647 84.286 142.329 84.064 141.957 83.908C141.597 83.74 141.189 83.656 140.733 83.656C140.277 83.656 139.863 83.74 139.491 83.908C139.131 84.064 138.819 84.286 138.555 84.574C138.291 84.85 138.087 85.18 137.943 85.564C137.811 85.936 137.745 86.344 137.745 86.788ZM147.406 84.574C147.406 84.19 147.394 83.83 147.37 83.494C147.346 83.158 147.334 82.852 147.334 82.576H148.666C148.666 82.804 148.672 83.032 148.684 83.26C148.696 83.488 148.702 83.722 148.702 83.962H148.738C148.834 83.758 148.966 83.56 149.134 83.368C149.314 83.176 149.524 83.008 149.764 82.864C150.004 82.708 150.274 82.588 150.574 82.504C150.874 82.408 151.198 82.36 151.546 82.36C151.642 82.36 151.738 82.366 151.834 82.378C151.93 82.39 152.026 82.414 152.122 82.45L152.032 83.872C151.792 83.8 151.54 83.764 151.276 83.764C150.412 83.764 149.782 84.046 149.386 84.61C149.002 85.162 148.81 85.924 148.81 86.896V91H147.406V84.574ZM158.924 88.786C159.2 89.134 159.5 89.41 159.824 89.614C160.16 89.818 160.58 89.92 161.084 89.92C161.3 89.92 161.516 89.896 161.732 89.848C161.96 89.8 162.164 89.722 162.344 89.614C162.524 89.506 162.668 89.374 162.776 89.218C162.884 89.05 162.938 88.852 162.938 88.624C162.938 88.396 162.884 88.21 162.776 88.066C162.68 87.922 162.548 87.802 162.38 87.706C162.212 87.598 162.02 87.514 161.804 87.454C161.588 87.394 161.366 87.34 161.138 87.292C160.742 87.208 160.364 87.112 160.004 87.004C159.644 86.896 159.326 86.758 159.05 86.59C158.786 86.41 158.57 86.182 158.402 85.906C158.246 85.63 158.168 85.276 158.168 84.844C158.168 84.436 158.258 84.076 158.438 83.764C158.618 83.452 158.858 83.194 159.158 82.99C159.458 82.786 159.794 82.63 160.166 82.522C160.538 82.414 160.922 82.36 161.318 82.36C161.918 82.36 162.47 82.48 162.974 82.72C163.49 82.96 163.892 83.35 164.18 83.89L163.01 84.664C162.83 84.364 162.59 84.124 162.29 83.944C162.002 83.752 161.648 83.656 161.228 83.656C161.036 83.656 160.838 83.68 160.634 83.728C160.442 83.776 160.268 83.848 160.112 83.944C159.956 84.04 159.824 84.166 159.716 84.322C159.62 84.466 159.572 84.634 159.572 84.826C159.572 85.006 159.626 85.162 159.734 85.294C159.854 85.414 160.01 85.522 160.202 85.618C160.406 85.714 160.634 85.798 160.886 85.87C161.15 85.942 161.42 86.002 161.696 86.05C162.068 86.122 162.422 86.218 162.758 86.338C163.094 86.446 163.388 86.596 163.64 86.788C163.892 86.98 164.09 87.22 164.234 87.508C164.378 87.796 164.45 88.15 164.45 88.57C164.45 89.05 164.354 89.458 164.162 89.794C163.97 90.13 163.712 90.406 163.388 90.622C163.076 90.826 162.716 90.976 162.308 91.072C161.912 91.168 161.504 91.216 161.084 91.216C160.364 91.216 159.74 91.108 159.212 90.892C158.696 90.664 158.228 90.25 157.808 89.65L158.924 88.786ZM166.534 82.576H167.938V91H166.534V82.576ZM166.21 79.282C166.21 79.006 166.306 78.766 166.498 78.562C166.702 78.358 166.948 78.256 167.236 78.256C167.524 78.256 167.764 78.358 167.956 78.562C168.16 78.766 168.262 79.006 168.262 79.282C168.262 79.582 168.166 79.828 167.974 80.02C167.782 80.212 167.536 80.308 167.236 80.308C166.936 80.308 166.69 80.212 166.498 80.02C166.306 79.828 166.21 79.582 166.21 79.282ZM175.34 83.764H172.856V87.976C172.856 88.252 172.862 88.51 172.874 88.75C172.886 88.978 172.934 89.182 173.018 89.362C173.102 89.53 173.228 89.668 173.396 89.776C173.564 89.872 173.804 89.92 174.116 89.92C174.32 89.92 174.53 89.896 174.746 89.848C174.962 89.8 175.166 89.728 175.358 89.632L175.412 90.91C175.172 91.018 174.902 91.096 174.602 91.144C174.314 91.192 174.038 91.216 173.774 91.216C173.27 91.216 172.868 91.15 172.568 91.018C172.268 90.886 172.034 90.7 171.866 90.46C171.698 90.22 171.584 89.926 171.524 89.578C171.476 89.218 171.452 88.822 171.452 88.39V83.764H169.616V82.576H171.452V80.182H172.856V82.576H175.34V83.764ZM181.962 83.656C182.394 83.212 182.904 82.888 183.492 82.684C184.092 82.468 184.698 82.36 185.31 82.36C186.558 82.36 187.458 82.654 188.01 83.242C188.562 83.83 188.838 84.724 188.838 85.924V89.542C188.838 89.782 188.85 90.034 188.874 90.298C188.898 90.55 188.928 90.784 188.964 91H187.614C187.566 90.808 187.536 90.598 187.524 90.37C187.524 90.13 187.524 89.92 187.524 89.74H187.488C187.212 90.172 186.84 90.526 186.372 90.802C185.916 91.078 185.364 91.216 184.716 91.216C184.284 91.216 183.876 91.162 183.492 91.054C183.12 90.946 182.79 90.79 182.502 90.586C182.226 90.37 182.004 90.106 181.836 89.794C181.668 89.482 181.584 89.122 181.584 88.714C181.584 88.018 181.764 87.472 182.124 87.076C182.484 86.68 182.928 86.386 183.456 86.194C183.996 86.002 184.572 85.882 185.184 85.834C185.808 85.786 186.378 85.762 186.894 85.762H187.434V85.51C187.434 84.898 187.248 84.436 186.876 84.124C186.516 83.812 186.006 83.656 185.346 83.656C184.89 83.656 184.44 83.734 183.996 83.89C183.564 84.034 183.18 84.262 182.844 84.574L181.962 83.656ZM186.03 86.95C185.13 86.95 184.416 87.076 183.888 87.328C183.36 87.58 183.096 87.994 183.096 88.57C183.096 89.098 183.27 89.476 183.618 89.704C183.978 89.92 184.422 90.028 184.95 90.028C185.358 90.028 185.712 89.962 186.012 89.83C186.324 89.686 186.582 89.5 186.786 89.272C186.99 89.044 187.146 88.78 187.254 88.48C187.362 88.168 187.422 87.838 187.434 87.49V86.95H186.03ZM191.404 84.574C191.404 84.19 191.392 83.83 191.368 83.494C191.344 83.158 191.332 82.852 191.332 82.576H192.664C192.664 82.804 192.67 83.032 192.682 83.26C192.694 83.488 192.7 83.722 192.7 83.962H192.736C192.832 83.758 192.964 83.56 193.132 83.368C193.312 83.176 193.522 83.008 193.762 82.864C194.002 82.708 194.272 82.588 194.572 82.504C194.872 82.408 195.196 82.36 195.544 82.36C196 82.36 196.378 82.42 196.678 82.54C196.99 82.648 197.248 82.786 197.452 82.954C197.656 83.11 197.812 83.284 197.92 83.476C198.04 83.656 198.136 83.818 198.208 83.962C198.52 83.458 198.88 83.068 199.288 82.792C199.696 82.504 200.224 82.36 200.872 82.36C201.472 82.36 201.976 82.444 202.384 82.612C202.792 82.768 203.122 83.002 203.374 83.314C203.626 83.614 203.806 83.986 203.914 84.43C204.022 84.862 204.076 85.348 204.076 85.888V91H202.672V85.96C202.672 85.672 202.642 85.39 202.582 85.114C202.522 84.838 202.414 84.592 202.258 84.376C202.102 84.16 201.892 83.986 201.628 83.854C201.364 83.722 201.028 83.656 200.62 83.656C200.32 83.656 200.038 83.716 199.774 83.836C199.51 83.956 199.276 84.124 199.072 84.34C198.88 84.556 198.724 84.82 198.604 85.132C198.496 85.432 198.442 85.768 198.442 86.14V91H197.038V86.23C197.038 85.294 196.912 84.634 196.66 84.25C196.408 83.854 195.994 83.656 195.418 83.656C194.962 83.656 194.566 83.734 194.23 83.89C193.906 84.046 193.636 84.268 193.42 84.556C193.216 84.844 193.06 85.186 192.952 85.582C192.856 85.978 192.808 86.416 192.808 86.896V91H191.404V84.574ZM214.256 89.47C213.752 90.118 213.2 90.574 212.6 90.838C212 91.09 211.304 91.216 210.512 91.216C209.852 91.216 209.258 91.102 208.73 90.874C208.202 90.634 207.752 90.316 207.38 89.92C207.02 89.524 206.738 89.056 206.534 88.516C206.342 87.976 206.246 87.4 206.246 86.788C206.246 86.14 206.354 85.546 206.57 85.006C206.786 84.454 207.086 83.986 207.47 83.602C207.854 83.206 208.31 82.9 208.838 82.684C209.366 82.468 209.942 82.36 210.566 82.36C211.154 82.36 211.694 82.462 212.186 82.666C212.678 82.858 213.098 83.146 213.446 83.53C213.806 83.902 214.082 84.364 214.274 84.916C214.466 85.456 214.562 86.074 214.562 86.77V87.22H207.758C207.782 87.58 207.866 87.928 208.01 88.264C208.166 88.588 208.364 88.876 208.604 89.128C208.844 89.368 209.126 89.56 209.45 89.704C209.774 89.848 210.128 89.92 210.512 89.92C211.124 89.92 211.64 89.812 212.06 89.596C212.48 89.38 212.858 89.062 213.194 88.642L214.256 89.47ZM213.05 86.032C213.026 85.312 212.792 84.736 212.348 84.304C211.904 83.872 211.292 83.656 210.512 83.656C209.732 83.656 209.102 83.872 208.622 84.304C208.142 84.736 207.854 85.312 207.758 86.032H213.05ZM221.342 83.764H218.858V87.976C218.858 88.252 218.864 88.51 218.876 88.75C218.888 88.978 218.936 89.182 219.02 89.362C219.104 89.53 219.23 89.668 219.398 89.776C219.566 89.872 219.806 89.92 220.118 89.92C220.322 89.92 220.532 89.896 220.748 89.848C220.964 89.8 221.168 89.728 221.36 89.632L221.414 90.91C221.174 91.018 220.904 91.096 220.604 91.144C220.316 91.192 220.04 91.216 219.776 91.216C219.272 91.216 218.87 91.15 218.57 91.018C218.27 90.886 218.036 90.7 217.868 90.46C217.7 90.22 217.586 89.926 217.526 89.578C217.478 89.218 217.454 88.822 217.454 88.39V83.764H215.618V82.576H217.454V80.182H218.858V82.576H221.342V83.764ZM224.052 93.484H222.666L223.89 89.164H225.528L224.052 93.484ZM7.326 109.682C7.026 109.322 6.702 109.064 6.354 108.908C6.006 108.74 5.622 108.656 5.202 108.656C4.734 108.656 4.32 108.74 3.96 108.908C3.6 109.064 3.3 109.286 3.06 109.574C2.832 109.862 2.658 110.198 2.538 110.582C2.418 110.954 2.358 111.356 2.358 111.788C2.358 112.22 2.424 112.628 2.556 113.012C2.7 113.384 2.892 113.714 3.132 114.002C3.384 114.29 3.684 114.518 4.032 114.686C4.38 114.842 4.77 114.92 5.202 114.92C6.126 114.92 6.84 114.572 7.344 113.876L8.388 114.866C7.98 115.334 7.5 115.676 6.948 115.892C6.396 116.108 5.814 116.216 5.202 116.216C4.554 116.216 3.96 116.108 3.42 115.892C2.88 115.676 2.418 115.37 2.034 114.974C1.662 114.578 1.368 114.11 1.152 113.57C0.948 113.03 0.846 112.436 0.846 111.788C0.846 111.152 0.948 110.564 1.152 110.024C1.368 109.484 1.668 109.016 2.052 108.62C2.436 108.224 2.892 107.918 3.42 107.702C3.96 107.474 4.554 107.36 5.202 107.36C5.826 107.36 6.414 107.468 6.966 107.684C7.53 107.9 8.022 108.236 8.442 108.692L7.326 109.682ZM9.52959 111.788C9.52959 111.128 9.64359 110.528 9.87159 109.988C10.0996 109.448 10.4116 108.986 10.8076 108.602C11.2036 108.206 11.6776 107.9 12.2296 107.684C12.7816 107.468 13.3816 107.36 14.0296 107.36C14.6776 107.36 15.2776 107.468 15.8296 107.684C16.3816 107.9 16.8556 108.206 17.2516 108.602C17.6476 108.986 17.9596 109.448 18.1876 109.988C18.4156 110.528 18.5296 111.128 18.5296 111.788C18.5296 112.448 18.4156 113.048 18.1876 113.588C17.9596 114.128 17.6476 114.596 17.2516 114.992C16.8556 115.376 16.3816 115.676 15.8296 115.892C15.2776 116.108 14.6776 116.216 14.0296 116.216C13.3816 116.216 12.7816 116.108 12.2296 115.892C11.6776 115.676 11.2036 115.376 10.8076 114.992C10.4116 114.596 10.0996 114.128 9.87159 113.588C9.64359 113.048 9.52959 112.448 9.52959 111.788ZM11.0416 111.788C11.0416 112.232 11.1076 112.646 11.2396 113.03C11.3836 113.402 11.5876 113.732 11.8516 114.02C12.1156 114.296 12.4276 114.518 12.7876 114.686C13.1596 114.842 13.5736 114.92 14.0296 114.92C14.4856 114.92 14.8936 114.842 15.2536 114.686C15.6256 114.518 15.9436 114.296 16.2076 114.02C16.4716 113.732 16.6696 113.402 16.8016 113.03C16.9456 112.646 17.0176 112.232 17.0176 111.788C17.0176 111.344 16.9456 110.936 16.8016 110.564C16.6696 110.18 16.4716 109.85 16.2076 109.574C15.9436 109.286 15.6256 109.064 15.2536 108.908C14.8936 108.74 14.4856 108.656 14.0296 108.656C13.5736 108.656 13.1596 108.74 12.7876 108.908C12.4276 109.064 12.1156 109.286 11.8516 109.574C11.5876 109.85 11.3836 110.18 11.2396 110.564C11.1076 110.936 11.0416 111.344 11.0416 111.788ZM20.7031 109.574C20.7031 109.19 20.6911 108.83 20.6671 108.494C20.6431 108.158 20.6311 107.852 20.6311 107.576H21.9631C21.9631 107.804 21.9691 108.032 21.9811 108.26C21.9931 108.488 21.9991 108.722 21.9991 108.962H22.0351C22.1311 108.758 22.2631 108.56 22.4311 108.368C22.6111 108.176 22.8211 108.008 23.0611 107.864C23.3011 107.708 23.5711 107.588 23.8711 107.504C24.1711 107.408 24.4951 107.36 24.8431 107.36C25.3951 107.36 25.8691 107.444 26.2651 107.612C26.6731 107.78 27.0091 108.014 27.2731 108.314C27.5371 108.614 27.7291 108.98 27.8491 109.412C27.9811 109.832 28.0471 110.294 28.0471 110.798V116H26.6431V110.942C26.6431 110.234 26.4871 109.676 26.1751 109.268C25.8631 108.86 25.3771 108.656 24.7171 108.656C24.2611 108.656 23.8651 108.734 23.5291 108.89C23.2051 109.046 22.9351 109.268 22.7191 109.556C22.5151 109.844 22.3591 110.186 22.2511 110.582C22.1551 110.978 22.1071 111.416 22.1071 111.896V116H20.7031V109.574ZM30.885 113.786C31.161 114.134 31.461 114.41 31.785 114.614C32.121 114.818 32.541 114.92 33.045 114.92C33.261 114.92 33.477 114.896 33.693 114.848C33.921 114.8 34.125 114.722 34.305 114.614C34.485 114.506 34.629 114.374 34.737 114.218C34.845 114.05 34.899 113.852 34.899 113.624C34.899 113.396 34.845 113.21 34.737 113.066C34.641 112.922 34.509 112.802 34.341 112.706C34.173 112.598 33.981 112.514 33.765 112.454C33.549 112.394 33.327 112.34 33.099 112.292C32.703 112.208 32.325 112.112 31.965 112.004C31.605 111.896 31.287 111.758 31.011 111.59C30.747 111.41 30.531 111.182 30.363 110.906C30.207 110.63 30.129 110.276 30.129 109.844C30.129 109.436 30.219 109.076 30.399 108.764C30.579 108.452 30.819 108.194 31.119 107.99C31.419 107.786 31.755 107.63 32.127 107.522C32.499 107.414 32.883 107.36 33.279 107.36C33.879 107.36 34.431 107.48 34.935 107.72C35.451 107.96 35.853 108.35 36.141 108.89L34.971 109.664C34.791 109.364 34.551 109.124 34.251 108.944C33.963 108.752 33.609 108.656 33.189 108.656C32.997 108.656 32.799 108.68 32.595 108.728C32.403 108.776 32.229 108.848 32.073 108.944C31.917 109.04 31.785 109.166 31.677 109.322C31.581 109.466 31.533 109.634 31.533 109.826C31.533 110.006 31.587 110.162 31.695 110.294C31.815 110.414 31.971 110.522 32.163 110.618C32.367 110.714 32.595 110.798 32.847 110.87C33.111 110.942 33.381 111.002 33.657 111.05C34.029 111.122 34.383 111.218 34.719 111.338C35.055 111.446 35.349 111.596 35.601 111.788C35.853 111.98 36.051 112.22 36.195 112.508C36.339 112.796 36.411 113.15 36.411 113.57C36.411 114.05 36.315 114.458 36.123 114.794C35.931 115.13 35.673 115.406 35.349 115.622C35.037 115.826 34.677 115.976 34.269 116.072C33.873 116.168 33.465 116.216 33.045 116.216C32.325 116.216 31.701 116.108 31.173 115.892C30.657 115.664 30.189 115.25 29.769 114.65L30.885 113.786ZM45.8931 114.47C45.3891 115.118 44.8371 115.574 44.2371 115.838C43.6371 116.09 42.9411 116.216 42.1491 116.216C41.4891 116.216 40.8951 116.102 40.3671 115.874C39.8391 115.634 39.3891 115.316 39.0171 114.92C38.6571 114.524 38.3751 114.056 38.1711 113.516C37.9791 112.976 37.8831 112.4 37.8831 111.788C37.8831 111.14 37.9911 110.546 38.2071 110.006C38.4231 109.454 38.7231 108.986 39.1071 108.602C39.4911 108.206 39.9471 107.9 40.4751 107.684C41.0031 107.468 41.5791 107.36 42.2031 107.36C42.7911 107.36 43.3311 107.462 43.8231 107.666C44.3151 107.858 44.7351 108.146 45.0831 108.53C45.4431 108.902 45.7191 109.364 45.9111 109.916C46.1031 110.456 46.1991 111.074 46.1991 111.77V112.22H39.3951C39.4191 112.58 39.5031 112.928 39.6471 113.264C39.8031 113.588 40.0011 113.876 40.2411 114.128C40.4811 114.368 40.7631 114.56 41.0871 114.704C41.4111 114.848 41.7651 114.92 42.1491 114.92C42.7611 114.92 43.2771 114.812 43.6971 114.596C44.1171 114.38 44.4951 114.062 44.8311 113.642L45.8931 114.47ZM44.6871 111.032C44.6631 110.312 44.4291 109.736 43.9851 109.304C43.5411 108.872 42.9291 108.656 42.1491 108.656C41.3691 108.656 40.7391 108.872 40.2591 109.304C39.7791 109.736 39.4911 110.312 39.3951 111.032H44.6871ZM54.3651 109.682C54.0651 109.322 53.7411 109.064 53.3931 108.908C53.0451 108.74 52.6611 108.656 52.2411 108.656C51.7731 108.656 51.3591 108.74 50.9991 108.908C50.6391 109.064 50.3391 109.286 50.0991 109.574C49.8711 109.862 49.6971 110.198 49.5771 110.582C49.4571 110.954 49.3971 111.356 49.3971 111.788C49.3971 112.22 49.4631 112.628 49.5951 113.012C49.7391 113.384 49.9311 113.714 50.1711 114.002C50.4231 114.29 50.7231 114.518 51.0711 114.686C51.4191 114.842 51.8091 114.92 52.2411 114.92C53.1651 114.92 53.8791 114.572 54.3831 113.876L55.4271 114.866C55.0191 115.334 54.5391 115.676 53.9871 115.892C53.4351 116.108 52.8531 116.216 52.2411 116.216C51.5931 116.216 50.9991 116.108 50.4591 115.892C49.9191 115.676 49.4571 115.37 49.0731 114.974C48.7011 114.578 48.4071 114.11 48.1911 113.57C47.9871 113.03 47.8851 112.436 47.8851 111.788C47.8851 111.152 47.9871 110.564 48.1911 110.024C48.4071 109.484 48.7071 109.016 49.0911 108.62C49.4751 108.224 49.9311 107.918 50.4591 107.702C50.9991 107.474 51.5931 107.36 52.2411 107.36C52.8651 107.36 53.4531 107.468 54.0051 107.684C54.5691 107.9 55.0611 108.236 55.4811 108.692L54.3651 109.682ZM61.6627 108.764H59.1787V112.976C59.1787 113.252 59.1847 113.51 59.1967 113.75C59.2087 113.978 59.2567 114.182 59.3407 114.362C59.4247 114.53 59.5507 114.668 59.7187 114.776C59.8867 114.872 60.1267 114.92 60.4387 114.92C60.6427 114.92 60.8527 114.896 61.0687 114.848C61.2847 114.8 61.4887 114.728 61.6807 114.632L61.7347 115.91C61.4947 116.018 61.2247 116.096 60.9247 116.144C60.6367 116.192 60.3607 116.216 60.0967 116.216C59.5927 116.216 59.1907 116.15 58.8907 116.018C58.5907 115.886 58.3567 115.7 58.1887 115.46C58.0207 115.22 57.9067 114.926 57.8467 114.578C57.7987 114.218 57.7747 113.822 57.7747 113.39V108.764H55.9387V107.576H57.7747V105.182H59.1787V107.576H61.6627V108.764ZM70.9068 114.47C70.4028 115.118 69.8508 115.574 69.2508 115.838C68.6508 116.09 67.9548 116.216 67.1628 116.216C66.5028 116.216 65.9088 116.102 65.3808 115.874C64.8528 115.634 64.4028 115.316 64.0308 114.92C63.6708 114.524 63.3888 114.056 63.1848 113.516C62.9928 112.976 62.8968 112.4 62.8968 111.788C62.8968 111.14 63.0048 110.546 63.2208 110.006C63.4368 109.454 63.7368 108.986 64.1208 108.602C64.5048 108.206 64.9608 107.9 65.4888 107.684C66.0168 107.468 66.5928 107.36 67.2168 107.36C67.8048 107.36 68.3448 107.462 68.8368 107.666C69.3288 107.858 69.7488 108.146 70.0968 108.53C70.4568 108.902 70.7328 109.364 70.9248 109.916C71.1168 110.456 71.2128 111.074 71.2128 111.77V112.22H64.4088C64.4328 112.58 64.5168 112.928 64.6608 113.264C64.8168 113.588 65.0148 113.876 65.2548 114.128C65.4948 114.368 65.7768 114.56 66.1008 114.704C66.4248 114.848 66.7788 114.92 67.1628 114.92C67.7748 114.92 68.2908 114.812 68.7108 114.596C69.1308 114.38 69.5088 114.062 69.8448 113.642L70.9068 114.47ZM69.7008 111.032C69.6768 110.312 69.4428 109.736 68.9988 109.304C68.5548 108.872 67.9428 108.656 67.1628 108.656C66.3828 108.656 65.7528 108.872 65.2728 109.304C64.7928 109.736 64.5048 110.312 64.4088 111.032H69.7008ZM77.9927 108.764H75.5087V112.976C75.5087 113.252 75.5147 113.51 75.5267 113.75C75.5387 113.978 75.5867 114.182 75.6707 114.362C75.7547 114.53 75.8807 114.668 76.0487 114.776C76.2167 114.872 76.4567 114.92 76.7687 114.92C76.9727 114.92 77.1827 114.896 77.3987 114.848C77.6147 114.8 77.8187 114.728 78.0107 114.632L78.0647 115.91C77.8247 116.018 77.5547 116.096 77.2547 116.144C76.9667 116.192 76.6907 116.216 76.4267 116.216C75.9227 116.216 75.5207 116.15 75.2207 116.018C74.9207 115.886 74.6867 115.7 74.5187 115.46C74.3507 115.22 74.2367 114.926 74.1767 114.578C74.1287 114.218 74.1047 113.822 74.1047 113.39V108.764H72.2687V107.576H74.1047V105.182H75.5087V107.576H77.9927V108.764ZM87.0569 114.002C87.0569 114.386 87.0689 114.746 87.0929 115.082C87.1169 115.418 87.1289 115.724 87.1289 116H85.7969C85.7969 115.772 85.7909 115.544 85.7789 115.316C85.7669 115.088 85.7609 114.854 85.7609 114.614H85.7249C85.6289 114.818 85.4909 115.016 85.3109 115.208C85.1429 115.4 84.9389 115.574 84.6989 115.73C84.4589 115.874 84.1889 115.988 83.8889 116.072C83.5889 116.168 83.2649 116.216 82.9169 116.216C82.3649 116.216 81.8849 116.132 81.4769 115.964C81.0809 115.796 80.7509 115.562 80.4869 115.262C80.2229 114.962 80.0249 114.602 79.8929 114.182C79.7729 113.75 79.7129 113.282 79.7129 112.778V107.576H81.1169V112.634C81.1169 113.342 81.2729 113.9 81.5849 114.308C81.8969 114.716 82.3829 114.92 83.0429 114.92C83.4989 114.92 83.8889 114.842 84.2129 114.686C84.5489 114.53 84.8189 114.308 85.0229 114.02C85.2389 113.732 85.3949 113.39 85.4909 112.994C85.5989 112.598 85.6529 112.16 85.6529 111.68V107.576H87.0569V114.002ZM89.7148 109.574C89.7148 109.19 89.7028 108.83 89.6788 108.494C89.6548 108.158 89.6428 107.852 89.6428 107.576H90.9748C90.9748 107.804 90.9808 108.032 90.9928 108.26C91.0048 108.488 91.0108 108.722 91.0108 108.962H91.0468C91.1428 108.758 91.2748 108.56 91.4428 108.368C91.6228 108.176 91.8328 108.008 92.0728 107.864C92.3128 107.708 92.5828 107.588 92.8828 107.504C93.1828 107.408 93.5068 107.36 93.8548 107.36C93.9508 107.36 94.0468 107.366 94.1428 107.378C94.2388 107.39 94.3348 107.414 94.4308 107.45L94.3408 108.872C94.1008 108.8 93.8488 108.764 93.5848 108.764C92.7208 108.764 92.0908 109.046 91.6948 109.61C91.3108 110.162 91.1188 110.924 91.1188 111.896V116H89.7148V109.574ZM100.945 108.656C101.377 108.212 101.887 107.888 102.475 107.684C103.075 107.468 103.681 107.36 104.293 107.36C105.541 107.36 106.441 107.654 106.993 108.242C107.545 108.83 107.821 109.724 107.821 110.924V114.542C107.821 114.782 107.833 115.034 107.857 115.298C107.881 115.55 107.911 115.784 107.947 116H106.597C106.549 115.808 106.519 115.598 106.507 115.37C106.507 115.13 106.507 114.92 106.507 114.74H106.471C106.195 115.172 105.823 115.526 105.355 115.802C104.899 116.078 104.347 116.216 103.699 116.216C103.267 116.216 102.859 116.162 102.475 116.054C102.103 115.946 101.773 115.79 101.485 115.586C101.209 115.37 100.987 115.106 100.819 114.794C100.651 114.482 100.567 114.122 100.567 113.714C100.567 113.018 100.747 112.472 101.107 112.076C101.467 111.68 101.911 111.386 102.439 111.194C102.979 111.002 103.555 110.882 104.167 110.834C104.791 110.786 105.361 110.762 105.877 110.762H106.417V110.51C106.417 109.898 106.231 109.436 105.859 109.124C105.499 108.812 104.989 108.656 104.329 108.656C103.873 108.656 103.423 108.734 102.979 108.89C102.547 109.034 102.163 109.262 101.827 109.574L100.945 108.656ZM105.013 111.95C104.113 111.95 103.399 112.076 102.871 112.328C102.343 112.58 102.079 112.994 102.079 113.57C102.079 114.098 102.253 114.476 102.601 114.704C102.961 114.92 103.405 115.028 103.933 115.028C104.341 115.028 104.695 114.962 104.995 114.83C105.307 114.686 105.565 114.5 105.769 114.272C105.973 114.044 106.129 113.78 106.237 113.48C106.345 113.168 106.405 112.838 106.417 112.49V111.95H105.013ZM117.389 114.506H117.353C117.089 114.986 116.669 115.394 116.093 115.73C115.529 116.054 114.869 116.216 114.113 116.216C113.525 116.216 112.973 116.108 112.457 115.892C111.941 115.664 111.491 115.352 111.107 114.956C110.735 114.56 110.441 114.092 110.225 113.552C110.009 113.012 109.901 112.424 109.901 111.788C109.901 111.152 110.009 110.564 110.225 110.024C110.441 109.484 110.741 109.016 111.125 108.62C111.509 108.224 111.971 107.918 112.511 107.702C113.063 107.474 113.669 107.36 114.329 107.36C114.941 107.36 115.499 107.486 116.003 107.738C116.519 107.99 116.969 108.344 117.353 108.8H117.389V102.392H118.793V116H117.389V114.506ZM117.389 111.788C117.389 111.344 117.317 110.936 117.173 110.564C117.041 110.18 116.843 109.85 116.579 109.574C116.315 109.286 115.997 109.064 115.625 108.908C115.265 108.74 114.857 108.656 114.401 108.656C113.945 108.656 113.531 108.74 113.159 108.908C112.799 109.064 112.487 109.286 112.223 109.574C111.959 109.85 111.755 110.18 111.611 110.564C111.479 110.936 111.413 111.344 111.413 111.788C111.413 112.232 111.479 112.646 111.611 113.03C111.755 113.402 111.959 113.732 112.223 114.02C112.487 114.296 112.799 114.518 113.159 114.686C113.531 114.842 113.945 114.92 114.401 114.92C114.857 114.92 115.265 114.842 115.625 114.686C115.997 114.518 116.315 114.296 116.579 114.02C116.843 113.732 117.041 113.402 117.173 113.03C117.317 112.646 117.389 112.232 117.389 111.788ZM121.534 107.576H122.938V116H121.534V107.576ZM121.21 104.282C121.21 104.006 121.306 103.766 121.498 103.562C121.702 103.358 121.948 103.256 122.236 103.256C122.524 103.256 122.764 103.358 122.956 103.562C123.16 103.766 123.262 104.006 123.262 104.282C123.262 104.582 123.166 104.828 122.974 105.02C122.782 105.212 122.536 105.308 122.236 105.308C121.936 105.308 121.69 105.212 121.498 105.02C121.306 104.828 121.21 104.582 121.21 104.282ZM125.66 107.576H127.064V108.8H127.1C127.484 108.344 127.928 107.99 128.432 107.738C128.948 107.486 129.512 107.36 130.124 107.36C130.784 107.36 131.384 107.474 131.924 107.702C132.476 107.918 132.944 108.224 133.328 108.62C133.712 109.016 134.012 109.484 134.228 110.024C134.444 110.564 134.552 111.152 134.552 111.788C134.552 112.424 134.444 113.012 134.228 113.552C134.012 114.092 133.712 114.56 133.328 114.956C132.956 115.352 132.512 115.664 131.996 115.892C131.48 116.108 130.928 116.216 130.34 116.216C129.584 116.216 128.918 116.054 128.342 115.73C127.778 115.394 127.364 114.986 127.1 114.506H127.064V120.104H125.66V107.576ZM127.064 111.788C127.064 112.232 127.13 112.646 127.262 113.03C127.406 113.402 127.61 113.732 127.874 114.02C128.138 114.296 128.45 114.518 128.81 114.686C129.182 114.842 129.596 114.92 130.052 114.92C130.508 114.92 130.916 114.842 131.276 114.686C131.648 114.518 131.966 114.296 132.23 114.02C132.494 113.732 132.692 113.402 132.824 113.03C132.968 112.646 133.04 112.232 133.04 111.788C133.04 111.344 132.968 110.936 132.824 110.564C132.692 110.18 132.494 109.85 132.23 109.574C131.966 109.286 131.648 109.064 131.276 108.908C130.916 108.74 130.508 108.656 130.052 108.656C129.596 108.656 129.182 108.74 128.81 108.908C128.45 109.064 128.138 109.286 127.874 109.574C127.61 109.85 127.406 110.18 127.262 110.564C127.13 110.936 127.064 111.344 127.064 111.788ZM136.862 107.576H138.266V116H136.862V107.576ZM136.538 104.282C136.538 104.006 136.634 103.766 136.826 103.562C137.03 103.358 137.276 103.256 137.564 103.256C137.852 103.256 138.092 103.358 138.284 103.562C138.488 103.766 138.59 104.006 138.59 104.282C138.59 104.582 138.494 104.828 138.302 105.02C138.11 105.212 137.864 105.308 137.564 105.308C137.264 105.308 137.018 105.212 136.826 105.02C136.634 104.828 136.538 104.582 136.538 104.282ZM141.241 113.786C141.517 114.134 141.817 114.41 142.141 114.614C142.477 114.818 142.897 114.92 143.401 114.92C143.617 114.92 143.833 114.896 144.049 114.848C144.277 114.8 144.481 114.722 144.661 114.614C144.841 114.506 144.985 114.374 145.093 114.218C145.201 114.05 145.255 113.852 145.255 113.624C145.255 113.396 145.201 113.21 145.093 113.066C144.997 112.922 144.865 112.802 144.697 112.706C144.529 112.598 144.337 112.514 144.121 112.454C143.905 112.394 143.683 112.34 143.455 112.292C143.059 112.208 142.681 112.112 142.321 112.004C141.961 111.896 141.643 111.758 141.367 111.59C141.103 111.41 140.887 111.182 140.719 110.906C140.563 110.63 140.485 110.276 140.485 109.844C140.485 109.436 140.575 109.076 140.755 108.764C140.935 108.452 141.175 108.194 141.475 107.99C141.775 107.786 142.111 107.63 142.483 107.522C142.855 107.414 143.239 107.36 143.635 107.36C144.235 107.36 144.787 107.48 145.291 107.72C145.807 107.96 146.209 108.35 146.497 108.89L145.327 109.664C145.147 109.364 144.907 109.124 144.607 108.944C144.319 108.752 143.965 108.656 143.545 108.656C143.353 108.656 143.155 108.68 142.951 108.728C142.759 108.776 142.585 108.848 142.429 108.944C142.273 109.04 142.141 109.166 142.033 109.322C141.937 109.466 141.889 109.634 141.889 109.826C141.889 110.006 141.943 110.162 142.051 110.294C142.171 110.414 142.327 110.522 142.519 110.618C142.723 110.714 142.951 110.798 143.203 110.87C143.467 110.942 143.737 111.002 144.013 111.05C144.385 111.122 144.739 111.218 145.075 111.338C145.411 111.446 145.705 111.596 145.957 111.788C146.209 111.98 146.407 112.22 146.551 112.508C146.695 112.796 146.767 113.15 146.767 113.57C146.767 114.05 146.671 114.458 146.479 114.794C146.287 115.13 146.029 115.406 145.705 115.622C145.393 115.826 145.033 115.976 144.625 116.072C144.229 116.168 143.821 116.216 143.401 116.216C142.681 116.216 142.057 116.108 141.529 115.892C141.013 115.664 140.545 115.25 140.125 114.65L141.241 113.786ZM154.719 109.682C154.419 109.322 154.095 109.064 153.747 108.908C153.399 108.74 153.015 108.656 152.595 108.656C152.127 108.656 151.713 108.74 151.353 108.908C150.993 109.064 150.693 109.286 150.453 109.574C150.225 109.862 150.051 110.198 149.931 110.582C149.811 110.954 149.751 111.356 149.751 111.788C149.751 112.22 149.817 112.628 149.949 113.012C150.093 113.384 150.285 113.714 150.525 114.002C150.777 114.29 151.077 114.518 151.425 114.686C151.773 114.842 152.163 114.92 152.595 114.92C153.519 114.92 154.233 114.572 154.737 113.876L155.781 114.866C155.373 115.334 154.893 115.676 154.341 115.892C153.789 116.108 153.207 116.216 152.595 116.216C151.947 116.216 151.353 116.108 150.813 115.892C150.273 115.676 149.811 115.37 149.427 114.974C149.055 114.578 148.761 114.11 148.545 113.57C148.341 113.03 148.239 112.436 148.239 111.788C148.239 111.152 148.341 110.564 148.545 110.024C148.761 109.484 149.061 109.016 149.445 108.62C149.829 108.224 150.285 107.918 150.813 107.702C151.353 107.474 151.947 107.36 152.595 107.36C153.219 107.36 153.807 107.468 154.359 107.684C154.923 107.9 155.415 108.236 155.835 108.692L154.719 109.682ZM157.534 107.576H158.938V116H157.534V107.576ZM157.21 104.282C157.21 104.006 157.306 103.766 157.498 103.562C157.702 103.358 157.948 103.256 158.236 103.256C158.524 103.256 158.764 103.358 158.956 103.562C159.16 103.766 159.262 104.006 159.262 104.282C159.262 104.582 159.166 104.828 158.974 105.02C158.782 105.212 158.536 105.308 158.236 105.308C157.936 105.308 157.69 105.212 157.498 105.02C157.306 104.828 157.21 104.582 157.21 104.282ZM161.732 109.574C161.732 109.19 161.72 108.83 161.696 108.494C161.672 108.158 161.66 107.852 161.66 107.576H162.992C162.992 107.804 162.998 108.032 163.01 108.26C163.022 108.488 163.028 108.722 163.028 108.962H163.064C163.16 108.758 163.292 108.56 163.46 108.368C163.64 108.176 163.85 108.008 164.09 107.864C164.33 107.708 164.6 107.588 164.9 107.504C165.2 107.408 165.524 107.36 165.872 107.36C166.424 107.36 166.898 107.444 167.294 107.612C167.702 107.78 168.038 108.014 168.302 108.314C168.566 108.614 168.758 108.98 168.878 109.412C169.01 109.832 169.076 110.294 169.076 110.798V116H167.672V110.942C167.672 110.234 167.516 109.676 167.204 109.268C166.892 108.86 166.406 108.656 165.746 108.656C165.29 108.656 164.894 108.734 164.558 108.89C164.234 109.046 163.964 109.268 163.748 109.556C163.544 109.844 163.388 110.186 163.28 110.582C163.184 110.978 163.136 111.416 163.136 111.896V116H161.732V109.574ZM180.14 115.622C180.14 117.158 179.744 118.322 178.952 119.114C178.172 119.918 177.038 120.32 175.55 120.32C174.722 120.32 173.972 120.2 173.3 119.96C172.64 119.72 172.01 119.306 171.41 118.718L172.418 117.566C172.862 118.046 173.33 118.406 173.822 118.646C174.326 118.898 174.902 119.024 175.55 119.024C176.174 119.024 176.69 118.928 177.098 118.736C177.518 118.556 177.848 118.304 178.088 117.98C178.328 117.668 178.496 117.308 178.592 116.9C178.688 116.492 178.736 116.066 178.736 115.622V114.542H178.7C178.364 115.082 177.926 115.478 177.386 115.73C176.846 115.982 176.294 116.108 175.73 116.108C175.07 116.108 174.464 116 173.912 115.784C173.36 115.568 172.886 115.268 172.49 114.884C172.094 114.5 171.788 114.044 171.572 113.516C171.356 112.988 171.248 112.412 171.248 111.788C171.248 111.104 171.356 110.486 171.572 109.934C171.788 109.382 172.088 108.92 172.472 108.548C172.868 108.164 173.342 107.87 173.894 107.666C174.446 107.462 175.058 107.36 175.73 107.36C176.018 107.36 176.306 107.396 176.594 107.468C176.882 107.528 177.158 107.63 177.422 107.774C177.698 107.906 177.944 108.08 178.16 108.296C178.376 108.5 178.556 108.74 178.7 109.016H178.736V107.576H180.14V115.622ZM172.76 111.788C172.76 112.22 172.838 112.622 172.994 112.994C173.15 113.354 173.36 113.672 173.624 113.948C173.9 114.212 174.218 114.422 174.578 114.578C174.938 114.734 175.322 114.812 175.73 114.812C176.21 114.812 176.636 114.728 177.008 114.56C177.38 114.392 177.692 114.17 177.944 113.894C178.208 113.606 178.406 113.282 178.538 112.922C178.67 112.55 178.736 112.16 178.736 111.752C178.736 111.296 178.664 110.882 178.52 110.51C178.376 110.126 178.172 109.796 177.908 109.52C177.644 109.244 177.326 109.034 176.954 108.89C176.582 108.734 176.174 108.656 175.73 108.656C175.286 108.656 174.878 108.74 174.506 108.908C174.146 109.064 173.834 109.286 173.57 109.574C173.318 109.85 173.12 110.18 172.976 110.564C172.832 110.936 172.76 111.344 172.76 111.788ZM195.272 114.47C194.768 115.118 194.216 115.574 193.616 115.838C193.016 116.09 192.32 116.216 191.528 116.216C190.868 116.216 190.274 116.102 189.746 115.874C189.218 115.634 188.768 115.316 188.396 114.92C188.036 114.524 187.754 114.056 187.55 113.516C187.358 112.976 187.262 112.4 187.262 111.788C187.262 111.14 187.37 110.546 187.586 110.006C187.802 109.454 188.102 108.986 188.486 108.602C188.87 108.206 189.326 107.9 189.854 107.684C190.382 107.468 190.958 107.36 191.582 107.36C192.17 107.36 192.71 107.462 193.202 107.666C193.694 107.858 194.114 108.146 194.462 108.53C194.822 108.902 195.098 109.364 195.29 109.916C195.482 110.456 195.578 111.074 195.578 111.77V112.22H188.774C188.798 112.58 188.882 112.928 189.026 113.264C189.182 113.588 189.38 113.876 189.62 114.128C189.86 114.368 190.142 114.56 190.466 114.704C190.79 114.848 191.144 114.92 191.528 114.92C192.14 114.92 192.656 114.812 193.076 114.596C193.496 114.38 193.874 114.062 194.21 113.642L195.272 114.47ZM194.066 111.032C194.042 110.312 193.808 109.736 193.364 109.304C192.92 108.872 192.308 108.656 191.528 108.656C190.748 108.656 190.118 108.872 189.638 109.304C189.158 109.736 188.87 110.312 188.774 111.032H194.066ZM197.876 102.392H199.28V116H197.876V102.392ZM202.218 107.576H203.622V116H202.218V107.576ZM201.894 104.282C201.894 104.006 201.99 103.766 202.182 103.562C202.386 103.358 202.632 103.256 202.92 103.256C203.208 103.256 203.448 103.358 203.64 103.562C203.844 103.766 203.946 104.006 203.946 104.282C203.946 104.582 203.85 104.828 203.658 105.02C203.466 105.212 203.22 105.308 202.92 105.308C202.62 105.308 202.374 105.212 202.182 105.02C201.99 104.828 201.894 104.582 201.894 104.282ZM211.024 108.764H208.54V112.976C208.54 113.252 208.546 113.51 208.558 113.75C208.57 113.978 208.618 114.182 208.702 114.362C208.786 114.53 208.912 114.668 209.08 114.776C209.248 114.872 209.488 114.92 209.8 114.92C210.004 114.92 210.214 114.896 210.43 114.848C210.646 114.8 210.85 114.728 211.042 114.632L211.096 115.91C210.856 116.018 210.586 116.096 210.286 116.144C209.998 116.192 209.722 116.216 209.458 116.216C208.954 116.216 208.552 116.15 208.252 116.018C207.952 115.886 207.718 115.7 207.55 115.46C207.382 115.22 207.268 114.926 207.208 114.578C207.16 114.218 207.136 113.822 207.136 113.39V108.764H205.3V107.576H207.136V105.182H208.54V107.576H211.024V108.764ZM213.914 113.948C214.214 113.948 214.466 114.056 214.67 114.272C214.886 114.476 214.994 114.728 214.994 115.028C214.994 115.328 214.88 115.586 214.652 115.802C214.436 116.006 214.19 116.108 213.914 116.108C213.638 116.108 213.386 116.006 213.158 115.802C212.942 115.586 212.834 115.328 212.834 115.028C212.834 114.728 212.936 114.476 213.14 114.272C213.356 114.056 213.614 113.948 213.914 113.948Z" fill="white"/>
<defs>
<clipPath id="clip0_806_845">
<rect width="24" height="24" fill="white"/>
</clipPath>
</defs>
</svg>
