<svg width="434" height="104" viewBox="0 0 434 104" fill="none" xmlns="http://www.w3.org/2000/svg">
<path d="M4.32422 18.668C4.33984 20.6211 4.48438 21.9414 4.75781 22.6289C5.03125 23.3086 5.44531 23.6484 6 23.6484C6.69531 23.6484 7.16406 23.0156 7.40625 21.75C7.53906 21.0547 7.60547 20.0273 7.60547 18.668V13.1719C7.60547 11.2266 7.46484 9.91406 7.18359 9.23438C6.91016 8.54688 6.50781 8.20312 5.97656 8.20312C5.4375 8.20312 5.02734 8.55078 4.74609 9.24609C4.46484 9.93359 4.32422 11.2422 4.32422 13.1719V18.668ZM0.550781 16.0312C0.550781 13.1641 1.19141 10.9453 2.47266 9.375C3.48828 8.125 4.65234 7.5 5.96484 7.5C7.48047 7.5 8.75781 8.26953 9.79688 9.80859C10.8516 11.3867 11.3789 13.3711 11.3789 15.7617C11.3789 18.582 10.7812 20.7773 9.58594 22.3477C8.57812 23.668 7.375 24.3281 5.97656 24.3281C4.99219 24.3281 4.15234 24.0391 3.45703 23.4609C2.76172 22.8828 2.16797 22.1367 1.67578 21.2227C1.25391 20.4492 0.957031 19.5625 0.785156 18.5625C0.683594 17.9766 0.605469 17.1328 0.550781 16.0312ZM12.4102 23.4492C14.9648 20.6836 16.6289 18.7578 17.4023 17.6719C18.5898 16.0312 19.1836 14.5781 19.1836 13.3125C19.1836 12.5625 18.9531 11.8633 18.4922 11.2148C18.0391 10.5586 17.332 10.2305 16.3711 10.2305C15.5273 10.2305 14.8164 10.5234 14.2383 11.1094C13.9258 11.4297 13.6484 11.8594 13.4062 12.3984H12.75C13.2812 10.7344 14.0156 9.50391 14.9531 8.70703C15.8906 7.90234 16.9453 7.5 18.1172 7.5C19.2266 7.5 20.2344 7.88672 21.1406 8.66016C22.0469 9.42578 22.5 10.5547 22.5 12.0469C22.5 12.8281 22.2852 13.6289 21.8555 14.4492C21.4336 15.2695 20.7188 16.1602 19.7109 17.1211L16.0547 20.6133V20.8125H19.4648C20.6523 20.8125 21.4258 20.7148 21.7852 20.5195C22.1523 20.3242 22.5195 19.8008 22.8867 18.9492H23.4609L22.3828 24H12.4102V23.4492Z" fill="#252525" fill-opacity="0.45"/>
<path d="M0.269531 63.5664C1.15234 63.4727 1.72266 63.3164 1.98047 63.0977C2.24609 62.8711 2.37891 62.3047 2.37891 61.3984V50.7227C2.37891 49.8711 2.25 49.3164 1.99219 49.0586C1.73438 48.793 1.16016 48.6289 0.269531 48.5664V48.1211H7.05469V48.5664C6.17188 48.6133 5.57812 48.7578 5.27344 49C4.97656 49.2422 4.82812 49.7617 4.82812 50.5586V62.0898C4.82812 62.3555 4.87109 62.5664 4.95703 62.7227C5.05078 62.8711 5.25 62.9648 5.55469 63.0039C5.73438 63.0273 5.92188 63.043 6.11719 63.0508C6.32031 63.0586 6.69531 63.0625 7.24219 63.0625C9.375 63.0625 10.8164 62.8867 11.5664 62.5352C12.3164 62.1836 13.043 61.2852 13.7461 59.8398H14.3555L13.1836 64H0.269531V63.5664ZM15.2812 58.5625C15.2812 57.0078 15.7734 55.6953 16.7578 54.625C17.75 53.5469 19.0234 53.0078 20.5781 53.0078C22.125 53.0078 23.4062 53.5156 24.4219 54.5312C25.4375 55.5469 25.9453 56.8984 25.9453 58.5859C25.9453 60.1406 25.4531 61.4922 24.4688 62.6406C23.4844 63.7891 22.2109 64.3633 20.6484 64.3633C19.1484 64.3633 17.8789 63.8125 16.8398 62.7109C15.8008 61.6094 15.2812 60.2266 15.2812 58.5625ZM20.25 53.7109C19.6328 53.7109 19.0977 53.9141 18.6445 54.3203C17.8633 55.0312 17.4727 56.2578 17.4727 58C17.4727 59.3906 17.7852 60.6875 18.4102 61.8906C19.043 63.0938 19.918 63.6953 21.0352 63.6953C21.9102 63.6953 22.582 63.293 23.0508 62.4883C23.5273 61.6836 23.7656 60.6289 23.7656 59.3242C23.7656 57.9727 23.4648 56.6992 22.8633 55.5039C22.2617 54.3086 21.3906 53.7109 20.25 53.7109ZM26.7773 63.6133C27.4961 63.5508 27.9727 63.4258 28.207 63.2383C28.4414 63.043 28.5586 62.6328 28.5586 62.0078V56.7227C28.5586 55.9492 28.4844 55.3984 28.3359 55.0703C28.1953 54.7344 27.9336 54.5664 27.5508 54.5664C27.4727 54.5664 27.3672 54.5781 27.2344 54.6016C27.1094 54.6172 26.9766 54.6406 26.8359 54.6719V54.2852C27.2812 54.1289 27.7383 53.9688 28.207 53.8047C28.6758 53.6406 29 53.5234 29.1797 53.4531C29.5703 53.3047 29.9727 53.1367 30.3867 52.9492C30.4414 52.9492 30.4727 52.9688 30.4805 53.0078C30.4961 53.0469 30.5039 53.1289 30.5039 53.2539V55.1758C31.0039 54.4805 31.4844 53.9375 31.9453 53.5469C32.4141 53.1562 32.8984 52.9609 33.3984 52.9609C33.7969 52.9609 34.1211 53.082 34.3711 53.3242C34.6211 53.5586 34.7461 53.8555 34.7461 54.2148C34.7461 54.5352 34.6484 54.8047 34.4531 55.0234C34.2656 55.2422 34.0273 55.3516 33.7383 55.3516C33.4414 55.3516 33.1406 55.2148 32.8359 54.9414C32.5391 54.668 32.3047 54.5312 32.1328 54.5312C31.8594 54.5312 31.5234 54.7539 31.125 55.1992C30.7266 55.6367 30.5273 56.0898 30.5273 56.5586V61.8438C30.5273 62.5156 30.6836 62.9844 30.9961 63.25C31.3086 63.5078 31.8281 63.6289 32.5547 63.6133V64H26.7773V63.6133ZM40.1602 53.0078C41.2617 53.0078 42.2266 53.3906 43.0547 54.1562C43.8828 54.9141 44.2969 55.9922 44.2969 57.3906H36.8555C36.9336 59.2031 37.3438 60.5234 38.0859 61.3516C38.8281 62.1797 39.707 62.5938 40.7227 62.5938C41.543 62.5938 42.2344 62.3789 42.7969 61.9492C43.3594 61.5195 43.8789 60.9102 44.3555 60.1211L44.7656 60.2617C44.4453 61.2539 43.8438 62.1719 42.9609 63.0156C42.0859 63.8594 41.0117 64.2812 39.7383 64.2812C38.2695 64.2812 37.1328 63.7266 36.3281 62.6172C35.5312 61.5078 35.1328 60.2305 35.1328 58.7852C35.1328 57.2148 35.5977 55.8594 36.5273 54.7188C37.457 53.5781 38.668 53.0078 40.1602 53.0078ZM39.4805 53.8633C38.5898 53.8633 37.9102 54.2578 37.4414 55.0469C37.1914 55.4688 37.0117 56 36.9023 56.6406H41.8477C41.7617 55.8594 41.6133 55.2773 41.4023 54.8945C41.0195 54.207 40.3789 53.8633 39.4805 53.8633ZM45.7148 63.6953C46.3242 63.6406 46.7305 63.5391 46.9336 63.3906C47.2461 63.1641 47.4023 62.7109 47.4023 62.0312V55.9727C47.4023 55.3945 47.3242 55.0156 47.168 54.8359C47.0195 54.6562 46.7695 54.5664 46.418 54.5664C46.2539 54.5664 46.1289 54.5742 46.043 54.5898C45.9648 54.6055 45.8711 54.6328 45.7617 54.6719V54.2617L46.6055 53.9805C46.9102 53.8789 47.4102 53.6953 48.1055 53.4297C48.8008 53.1641 49.168 53.0312 49.207 53.0312C49.2461 53.0312 49.2695 53.0508 49.2773 53.0898C49.2852 53.1289 49.2891 53.2031 49.2891 53.3125V54.8945C50.0625 54.1914 50.7305 53.707 51.293 53.4414C51.8555 53.168 52.4336 53.0312 53.0273 53.0312C53.832 53.0312 54.4727 53.3047 54.9492 53.8516C55.1992 54.1484 55.4062 54.5508 55.5703 55.0586C56.1484 54.4727 56.6523 54.0391 57.082 53.7578C57.8242 53.2734 58.582 53.0312 59.3555 53.0312C60.6133 53.0312 61.4531 53.543 61.875 54.5664C62.1172 55.1445 62.2383 56.0586 62.2383 57.3086V62.1719C62.2383 62.7266 62.3594 63.1055 62.6016 63.3086C62.8516 63.5039 63.2969 63.6328 63.9375 63.6953V64H58.6523V63.6719C59.332 63.6094 59.7773 63.4727 59.9883 63.2617C60.207 63.0508 60.3164 62.6211 60.3164 61.9727V56.9219C60.3164 56.1641 60.2344 55.6055 60.0703 55.2461C59.7812 54.6055 59.2148 54.2852 58.3711 54.2852C57.8633 54.2852 57.3594 54.4531 56.8594 54.7891C56.5703 54.9844 56.2148 55.2969 55.793 55.7266V61.7266C55.793 62.3594 55.9023 62.8398 56.1211 63.168C56.3477 63.4961 56.8203 63.6719 57.5391 63.6953V64H52.1602V63.6953C52.9023 63.6016 53.375 63.4219 53.5781 63.1562C53.7812 62.8906 53.8828 62.2383 53.8828 61.1992V57.918C53.8828 56.7148 53.8047 55.8867 53.6484 55.4336C53.3906 54.668 52.8438 54.2852 52.0078 54.2852C51.5312 54.2852 51.0625 54.418 50.6016 54.6836C50.1406 54.9414 49.7344 55.2812 49.3828 55.7031V62.1133C49.3828 62.707 49.4844 63.1172 49.6875 63.3438C49.8984 63.5703 50.3516 63.6875 51.0469 63.6953V64H45.7148V63.6953ZM71.9766 48.8711C71.9766 48.5352 72.0938 48.2461 72.3281 48.0039C72.5625 47.7617 72.8516 47.6406 73.1953 47.6406C73.5312 47.6406 73.8164 47.7617 74.0508 48.0039C74.293 48.2383 74.4141 48.5273 74.4141 48.8711C74.4141 49.207 74.293 49.4961 74.0508 49.7383C73.8164 49.9727 73.5312 50.0898 73.1953 50.0898C72.8516 50.0898 72.5625 49.9727 72.3281 49.7383C72.0938 49.4961 71.9766 49.207 71.9766 48.8711ZM70.4766 63.6719C71.3125 63.5938 71.8398 63.4531 72.0586 63.25C72.2773 63.0391 72.3867 62.4766 72.3867 61.5625V55.9727C72.3867 55.4648 72.3516 55.1133 72.2812 54.918C72.1641 54.5977 71.918 54.4375 71.543 54.4375C71.457 54.4375 71.3711 54.4453 71.2852 54.4609C71.207 54.4766 70.9727 54.5391 70.582 54.6484V54.2852L71.0859 54.1211C72.4531 53.6758 73.4062 53.3398 73.9453 53.1133C74.1641 53.0195 74.3047 52.9727 74.3672 52.9727C74.3828 53.0273 74.3906 53.0859 74.3906 53.1484V61.5625C74.3906 62.4531 74.4961 63.0117 74.707 63.2383C74.9258 63.4648 75.4141 63.6094 76.1719 63.6719V64H70.4766V63.6719ZM80.5195 61.8438C80.7227 62.375 81.0234 62.7734 81.4219 63.0391C81.8281 63.2969 82.3047 63.4258 82.8516 63.4258C83.6953 63.4258 84.4141 63.0078 85.0078 62.1719C85.6094 61.3281 85.9102 60.1562 85.9102 58.6562C85.9102 57.2188 85.5977 56.1445 84.9727 55.4336C84.3555 54.7227 83.6367 54.3672 82.8164 54.3672C82.2383 54.3672 81.7109 54.5469 81.2344 54.9062C80.7578 55.2578 80.5195 55.6055 80.5195 55.9492V61.8438ZM76.793 68.8398C77.5273 68.793 77.9922 68.6367 78.1875 68.3711C78.3906 68.1055 78.4922 67.6875 78.4922 67.1172V55.8672C78.4922 55.2734 78.418 54.8945 78.2695 54.7305C78.1289 54.5586 77.8594 54.4727 77.4609 54.4727C77.375 54.4727 77.293 54.4766 77.2148 54.4844C77.1445 54.4922 77.0391 54.5078 76.8984 54.5312V54.1445L78.0117 53.7812C78.0508 53.7734 78.8359 53.5039 80.3672 52.9727C80.4062 52.9727 80.4336 52.9922 80.4492 53.0312C80.4727 53.0625 80.4844 53.1016 80.4844 53.1484V54.7305C81 54.2148 81.4531 53.832 81.8438 53.582C82.5469 53.1445 83.2695 52.9258 84.0117 52.9258C85.0898 52.9258 86.0156 53.3867 86.7891 54.3086C87.5703 55.2227 87.9609 56.4766 87.9609 58.0703C87.9609 59.6328 87.4922 61.0508 86.5547 62.3242C85.625 63.5977 84.4531 64.2344 83.0391 64.2344C82.6016 64.2344 82.2227 64.1797 81.9023 64.0703C81.4023 63.9062 80.9414 63.6055 80.5195 63.168V67C80.5195 67.7891 80.6484 68.2734 80.9062 68.4531C81.1641 68.6328 81.7266 68.7539 82.5938 68.8164V69.2266H76.793V68.8398ZM89.9297 60.3086H90.3164C90.4961 61.1992 90.7383 61.8828 91.043 62.3594C91.5898 63.2344 92.3906 63.6719 93.4453 63.6719C94.0312 63.6719 94.4922 63.5117 94.8281 63.1914C95.1719 62.8633 95.3438 62.4414 95.3438 61.9258C95.3438 61.5977 95.2461 61.2812 95.0508 60.9766C94.8555 60.6719 94.5117 60.375 94.0195 60.0859L92.707 59.3359C91.7461 58.8203 91.0391 58.3008 90.5859 57.7773C90.1328 57.2539 89.9062 56.6367 89.9062 55.9258C89.9062 55.0508 90.2188 54.332 90.8438 53.7695C91.4688 53.207 92.2539 52.9258 93.1992 52.9258C93.6133 52.9258 94.0664 53.0039 94.5586 53.1602C95.0586 53.3164 95.3398 53.3945 95.4023 53.3945C95.543 53.3945 95.6445 53.375 95.707 53.3359C95.7695 53.2969 95.8242 53.2344 95.8711 53.1484H96.1523L96.2344 56.418H95.8711C95.7148 55.6602 95.5039 55.0703 95.2383 54.6484C94.7539 53.8672 94.0547 53.4766 93.1406 53.4766C92.5938 53.4766 92.1641 53.6445 91.8516 53.9805C91.5391 54.3164 91.3828 54.7109 91.3828 55.1641C91.3828 55.8828 91.9219 56.5234 93 57.0859L94.5469 57.918C96.2109 58.8242 97.043 59.8789 97.043 61.082C97.043 62.0039 96.6953 62.7578 96 63.3438C95.3125 63.9297 94.4102 64.2227 93.293 64.2227C92.8242 64.2227 92.293 64.1445 91.6992 63.9883C91.1055 63.832 90.7539 63.7539 90.6445 63.7539C90.5508 63.7539 90.4688 63.7891 90.3984 63.8594C90.3281 63.9219 90.2734 64 90.2344 64.0938H89.9297V60.3086ZM101.754 53.1484V60.6484C101.754 61.1797 101.828 61.6055 101.977 61.9258C102.266 62.5195 102.797 62.8164 103.57 62.8164C104.102 62.8164 104.621 62.6406 105.129 62.2891C105.418 62.0938 105.711 61.8242 106.008 61.4805V55.0586C106.008 54.457 105.891 54.0625 105.656 53.875C105.422 53.6875 104.953 53.5742 104.25 53.5352V53.1484H108.035V61.3984C108.035 61.9297 108.129 62.2969 108.316 62.5C108.512 62.6953 108.918 62.7812 109.535 62.7578V63.0859C109.105 63.2031 108.789 63.293 108.586 63.3555C108.383 63.4102 108.043 63.5156 107.566 63.6719C107.363 63.7422 106.918 63.9102 106.23 64.1758C106.191 64.1758 106.168 64.1562 106.16 64.1172C106.152 64.0859 106.148 64.0469 106.148 64V62.1133C105.617 62.7461 105.133 63.2148 104.695 63.5195C104.031 63.9883 103.328 64.2227 102.586 64.2227C101.906 64.2227 101.266 63.9805 100.664 63.4961C100.055 63.0195 99.75 62.2188 99.75 61.0938V55.0117C99.75 54.3867 99.6172 53.9688 99.3516 53.7578C99.1797 53.625 98.8125 53.5312 98.25 53.4766V53.1484H101.754ZM110.426 63.6953C111.035 63.6406 111.441 63.5391 111.645 63.3906C111.957 63.1641 112.113 62.7109 112.113 62.0312V55.9727C112.113 55.3945 112.035 55.0156 111.879 54.8359C111.73 54.6562 111.48 54.5664 111.129 54.5664C110.965 54.5664 110.84 54.5742 110.754 54.5898C110.676 54.6055 110.582 54.6328 110.473 54.6719V54.2617L111.316 53.9805C111.621 53.8789 112.121 53.6953 112.816 53.4297C113.512 53.1641 113.879 53.0312 113.918 53.0312C113.957 53.0312 113.98 53.0508 113.988 53.0898C113.996 53.1289 114 53.2031 114 53.3125V54.8945C114.773 54.1914 115.441 53.707 116.004 53.4414C116.566 53.168 117.145 53.0312 117.738 53.0312C118.543 53.0312 119.184 53.3047 119.66 53.8516C119.91 54.1484 120.117 54.5508 120.281 55.0586C120.859 54.4727 121.363 54.0391 121.793 53.7578C122.535 53.2734 123.293 53.0312 124.066 53.0312C125.324 53.0312 126.164 53.543 126.586 54.5664C126.828 55.1445 126.949 56.0586 126.949 57.3086V62.1719C126.949 62.7266 127.07 63.1055 127.312 63.3086C127.562 63.5039 128.008 63.6328 128.648 63.6953V64H123.363V63.6719C124.043 63.6094 124.488 63.4727 124.699 63.2617C124.918 63.0508 125.027 62.6211 125.027 61.9727V56.9219C125.027 56.1641 124.945 55.6055 124.781 55.2461C124.492 54.6055 123.926 54.2852 123.082 54.2852C122.574 54.2852 122.07 54.4531 121.57 54.7891C121.281 54.9844 120.926 55.2969 120.504 55.7266V61.7266C120.504 62.3594 120.613 62.8398 120.832 63.168C121.059 63.4961 121.531 63.6719 122.25 63.6953V64H116.871V63.6953C117.613 63.6016 118.086 63.4219 118.289 63.1562C118.492 62.8906 118.594 62.2383 118.594 61.1992V57.918C118.594 56.7148 118.516 55.8867 118.359 55.4336C118.102 54.668 117.555 54.2852 116.719 54.2852C116.242 54.2852 115.773 54.418 115.312 54.6836C114.852 54.9414 114.445 55.2812 114.094 55.7031V62.1133C114.094 62.707 114.195 63.1172 114.398 63.3438C114.609 63.5703 115.062 63.6875 115.758 63.6953V64H110.426V63.6953ZM140.402 52.9258C140.973 52.9258 141.496 53.0508 141.973 53.3008C142.285 53.4648 142.586 53.6914 142.875 53.9805V50.2539C142.875 49.7773 142.82 49.4492 142.711 49.2695C142.609 49.0898 142.359 49 141.961 49C141.867 49 141.785 49.0039 141.715 49.0117C141.645 49.0195 141.488 49.0352 141.246 49.0586V48.6719L142.207 48.4258C142.559 48.332 142.91 48.2344 143.262 48.1328C143.613 48.0312 143.922 47.9336 144.188 47.8398C144.312 47.8008 144.52 47.7266 144.809 47.6172L144.879 47.6406L144.855 48.8711C144.848 49.3164 144.84 49.7773 144.832 50.2539C144.824 50.7227 144.82 51.1875 144.82 51.6484L144.797 61.2227C144.797 61.7305 144.859 62.0859 144.984 62.2891C145.109 62.4922 145.441 62.5938 145.98 62.5938C146.066 62.5938 146.152 62.5938 146.238 62.5938C146.324 62.5859 146.41 62.5742 146.496 62.5586V62.9453C146.449 62.9609 145.883 63.1562 144.797 63.5312L142.957 64.2227L142.875 64.1172V62.6758C142.438 63.1523 142.059 63.4922 141.738 63.6953C141.168 64.0469 140.508 64.2227 139.758 64.2227C138.43 64.2227 137.352 63.7109 136.523 62.6875C135.703 61.6562 135.293 60.4648 135.293 59.1133C135.293 57.418 135.785 55.9648 136.77 54.7539C137.762 53.5352 138.973 52.9258 140.402 52.9258ZM140.836 62.957C141.445 62.957 141.938 62.7773 142.312 62.418C142.688 62.0586 142.875 61.7188 142.875 61.3984V56.3711C142.875 55.3555 142.602 54.6406 142.055 54.2266C141.516 53.8047 140.988 53.5938 140.473 53.5938C139.488 53.5938 138.723 54.0312 138.176 54.9062C137.629 55.7734 137.355 56.8438 137.355 58.1172C137.355 59.375 137.645 60.4961 138.223 61.4805C138.809 62.4648 139.68 62.957 140.836 62.957ZM147.328 58.5625C147.328 57.0078 147.82 55.6953 148.805 54.625C149.797 53.5469 151.07 53.0078 152.625 53.0078C154.172 53.0078 155.453 53.5156 156.469 54.5312C157.484 55.5469 157.992 56.8984 157.992 58.5859C157.992 60.1406 157.5 61.4922 156.516 62.6406C155.531 63.7891 154.258 64.3633 152.695 64.3633C151.195 64.3633 149.926 63.8125 148.887 62.7109C147.848 61.6094 147.328 60.2266 147.328 58.5625ZM152.297 53.7109C151.68 53.7109 151.145 53.9141 150.691 54.3203C149.91 55.0312 149.52 56.2578 149.52 58C149.52 59.3906 149.832 60.6875 150.457 61.8906C151.09 63.0938 151.965 63.6953 153.082 63.6953C153.957 63.6953 154.629 63.293 155.098 62.4883C155.574 61.6836 155.812 60.6289 155.812 59.3242C155.812 57.9727 155.512 56.6992 154.91 55.5039C154.309 54.3086 153.438 53.7109 152.297 53.7109ZM159.211 63.6719C159.938 63.6016 160.43 63.457 160.688 63.2383C160.945 63.0117 161.074 62.5742 161.074 61.9258V50.4766C161.074 49.9609 161.031 49.6055 160.945 49.4102C160.789 49.082 160.473 48.918 159.996 48.918C159.887 48.918 159.766 48.9297 159.633 48.9531C159.508 48.9766 159.348 49.0117 159.152 49.0586V48.6719C160.207 48.3906 161.477 48.0156 162.961 47.5469C163.016 47.5469 163.047 47.5703 163.055 47.6172C163.07 47.6641 163.078 47.7656 163.078 47.9219V61.9727C163.078 62.6523 163.195 63.0938 163.43 63.2969C163.664 63.4922 164.148 63.6172 164.883 63.6719V64H159.211V63.6719ZM166.008 58.5625C166.008 57.0078 166.5 55.6953 167.484 54.625C168.477 53.5469 169.75 53.0078 171.305 53.0078C172.852 53.0078 174.133 53.5156 175.148 54.5312C176.164 55.5469 176.672 56.8984 176.672 58.5859C176.672 60.1406 176.18 61.4922 175.195 62.6406C174.211 63.7891 172.938 64.3633 171.375 64.3633C169.875 64.3633 168.605 63.8125 167.566 62.7109C166.527 61.6094 166.008 60.2266 166.008 58.5625ZM170.977 53.7109C170.359 53.7109 169.824 53.9141 169.371 54.3203C168.59 55.0312 168.199 56.2578 168.199 58C168.199 59.3906 168.512 60.6875 169.137 61.8906C169.77 63.0938 170.645 63.6953 171.762 63.6953C172.637 63.6953 173.309 63.293 173.777 62.4883C174.254 61.6836 174.492 60.6289 174.492 59.3242C174.492 57.9727 174.191 56.6992 173.59 55.5039C172.988 54.3086 172.117 53.7109 170.977 53.7109ZM177.504 63.6133C178.223 63.5508 178.699 63.4258 178.934 63.2383C179.168 63.043 179.285 62.6328 179.285 62.0078V56.7227C179.285 55.9492 179.211 55.3984 179.062 55.0703C178.922 54.7344 178.66 54.5664 178.277 54.5664C178.199 54.5664 178.094 54.5781 177.961 54.6016C177.836 54.6172 177.703 54.6406 177.562 54.6719V54.2852C178.008 54.1289 178.465 53.9688 178.934 53.8047C179.402 53.6406 179.727 53.5234 179.906 53.4531C180.297 53.3047 180.699 53.1367 181.113 52.9492C181.168 52.9492 181.199 52.9688 181.207 53.0078C181.223 53.0469 181.23 53.1289 181.23 53.2539V55.1758C181.73 54.4805 182.211 53.9375 182.672 53.5469C183.141 53.1562 183.625 52.9609 184.125 52.9609C184.523 52.9609 184.848 53.082 185.098 53.3242C185.348 53.5586 185.473 53.8555 185.473 54.2148C185.473 54.5352 185.375 54.8047 185.18 55.0234C184.992 55.2422 184.754 55.3516 184.465 55.3516C184.168 55.3516 183.867 55.2148 183.562 54.9414C183.266 54.668 183.031 54.5312 182.859 54.5312C182.586 54.5312 182.25 54.7539 181.852 55.1992C181.453 55.6367 181.254 56.0898 181.254 56.5586V61.8438C181.254 62.5156 181.41 62.9844 181.723 63.25C182.035 63.5078 182.555 63.6289 183.281 63.6133V64H177.504V63.6133ZM192.633 60.3086H193.02C193.199 61.1992 193.441 61.8828 193.746 62.3594C194.293 63.2344 195.094 63.6719 196.148 63.6719C196.734 63.6719 197.195 63.5117 197.531 63.1914C197.875 62.8633 198.047 62.4414 198.047 61.9258C198.047 61.5977 197.949 61.2812 197.754 60.9766C197.559 60.6719 197.215 60.375 196.723 60.0859L195.41 59.3359C194.449 58.8203 193.742 58.3008 193.289 57.7773C192.836 57.2539 192.609 56.6367 192.609 55.9258C192.609 55.0508 192.922 54.332 193.547 53.7695C194.172 53.207 194.957 52.9258 195.902 52.9258C196.316 52.9258 196.77 53.0039 197.262 53.1602C197.762 53.3164 198.043 53.3945 198.105 53.3945C198.246 53.3945 198.348 53.375 198.41 53.3359C198.473 53.2969 198.527 53.2344 198.574 53.1484H198.855L198.938 56.418H198.574C198.418 55.6602 198.207 55.0703 197.941 54.6484C197.457 53.8672 196.758 53.4766 195.844 53.4766C195.297 53.4766 194.867 53.6445 194.555 53.9805C194.242 54.3164 194.086 54.7109 194.086 55.1641C194.086 55.8828 194.625 56.5234 195.703 57.0859L197.25 57.918C198.914 58.8242 199.746 59.8789 199.746 61.082C199.746 62.0039 199.398 62.7578 198.703 63.3438C198.016 63.9297 197.113 64.2227 195.996 64.2227C195.527 64.2227 194.996 64.1445 194.402 63.9883C193.809 63.832 193.457 63.7539 193.348 63.7539C193.254 63.7539 193.172 63.7891 193.102 63.8594C193.031 63.9219 192.977 64 192.938 64.0938H192.633V60.3086ZM202.711 48.8711C202.711 48.5352 202.828 48.2461 203.062 48.0039C203.297 47.7617 203.586 47.6406 203.93 47.6406C204.266 47.6406 204.551 47.7617 204.785 48.0039C205.027 48.2383 205.148 48.5273 205.148 48.8711C205.148 49.207 205.027 49.4961 204.785 49.7383C204.551 49.9727 204.266 50.0898 203.93 50.0898C203.586 50.0898 203.297 49.9727 203.062 49.7383C202.828 49.4961 202.711 49.207 202.711 48.8711ZM201.211 63.6719C202.047 63.5938 202.574 63.4531 202.793 63.25C203.012 63.0391 203.121 62.4766 203.121 61.5625V55.9727C203.121 55.4648 203.086 55.1133 203.016 54.918C202.898 54.5977 202.652 54.4375 202.277 54.4375C202.191 54.4375 202.105 54.4453 202.02 54.4609C201.941 54.4766 201.707 54.5391 201.316 54.6484V54.2852L201.82 54.1211C203.188 53.6758 204.141 53.3398 204.68 53.1133C204.898 53.0195 205.039 52.9727 205.102 52.9727C205.117 53.0273 205.125 53.0859 205.125 53.1484V61.5625C205.125 62.4531 205.23 63.0117 205.441 63.2383C205.66 63.4648 206.148 63.6094 206.906 63.6719V64H201.211V63.6719ZM213.527 53.1953V54.0391H211.137L211.113 60.7891C211.113 61.3828 211.164 61.832 211.266 62.1367C211.453 62.6758 211.82 62.9453 212.367 62.9453C212.648 62.9453 212.891 62.8789 213.094 62.7461C213.305 62.6133 213.543 62.4023 213.809 62.1133L214.113 62.3711L213.855 62.7227C213.449 63.2695 213.02 63.6562 212.566 63.8828C212.113 64.1094 211.676 64.2227 211.254 64.2227C210.332 64.2227 209.707 63.8125 209.379 62.9922C209.199 62.5469 209.109 61.9297 209.109 61.1406V54.0391H207.832C207.793 54.0156 207.762 53.9922 207.738 53.9688C207.723 53.9453 207.715 53.9141 207.715 53.875C207.715 53.7969 207.73 53.7383 207.762 53.6992C207.801 53.6523 207.914 53.5508 208.102 53.3945C208.641 52.9492 209.027 52.5898 209.262 52.3164C209.504 52.0352 210.066 51.3008 210.949 50.1133C211.051 50.1133 211.109 50.1211 211.125 50.1367C211.148 50.1523 211.16 50.2109 211.16 50.3125V53.1953H213.527ZM226.98 57.5078C226.082 57.8047 225.34 58.1328 224.754 58.4922C223.629 59.1875 223.066 59.9766 223.066 60.8594C223.066 61.5703 223.301 62.0938 223.77 62.4297C224.074 62.6484 224.414 62.7578 224.789 62.7578C225.305 62.7578 225.797 62.6133 226.266 62.3242C226.742 62.0352 226.98 61.668 226.98 61.2227V57.5078ZM220.98 61.668C220.98 60.5352 221.547 59.5898 222.68 58.832C223.398 58.3633 224.832 57.7266 226.98 56.9219V55.9258C226.98 55.1289 226.902 54.5742 226.746 54.2617C226.48 53.7383 225.93 53.4766 225.094 53.4766C224.695 53.4766 224.316 53.5781 223.957 53.7812C223.598 53.9922 223.418 54.2812 223.418 54.6484C223.418 54.7422 223.438 54.9023 223.477 55.1289C223.516 55.3477 223.535 55.4883 223.535 55.5508C223.535 55.9883 223.391 56.293 223.102 56.4648C222.938 56.5664 222.742 56.6172 222.516 56.6172C222.164 56.6172 221.895 56.5039 221.707 56.2773C221.52 56.043 221.426 55.7852 221.426 55.5039C221.426 54.957 221.762 54.3867 222.434 53.793C223.113 53.1914 224.105 52.8906 225.41 52.8906C226.926 52.8906 227.953 53.3828 228.492 54.3672C228.781 54.9062 228.926 55.6914 228.926 56.7227V61.4219C228.926 61.875 228.957 62.1875 229.02 62.3594C229.121 62.6641 229.332 62.8164 229.652 62.8164C229.832 62.8164 229.98 62.7891 230.098 62.7344C230.215 62.6797 230.418 62.5469 230.707 62.3359V62.9453C230.457 63.25 230.188 63.5 229.898 63.6953C229.461 63.9922 229.016 64.1406 228.562 64.1406C228.031 64.1406 227.645 63.9688 227.402 63.625C227.168 63.2812 227.039 62.8711 227.016 62.3945C226.422 62.9102 225.914 63.293 225.492 63.543C224.781 63.9648 224.105 64.1758 223.465 64.1758C222.793 64.1758 222.211 63.9414 221.719 63.4727C221.227 62.9961 220.98 62.3945 220.98 61.668ZM231.152 63.6953C231.762 63.6406 232.168 63.5391 232.371 63.3906C232.684 63.1641 232.84 62.7109 232.84 62.0312V55.9727C232.84 55.3945 232.762 55.0156 232.605 54.8359C232.457 54.6562 232.207 54.5664 231.855 54.5664C231.691 54.5664 231.566 54.5742 231.48 54.5898C231.402 54.6055 231.309 54.6328 231.199 54.6719V54.2617L232.043 53.9805C232.348 53.8789 232.848 53.6953 233.543 53.4297C234.238 53.1641 234.605 53.0312 234.645 53.0312C234.684 53.0312 234.707 53.0508 234.715 53.0898C234.723 53.1289 234.727 53.2031 234.727 53.3125V54.8945C235.5 54.1914 236.168 53.707 236.73 53.4414C237.293 53.168 237.871 53.0312 238.465 53.0312C239.27 53.0312 239.91 53.3047 240.387 53.8516C240.637 54.1484 240.844 54.5508 241.008 55.0586C241.586 54.4727 242.09 54.0391 242.52 53.7578C243.262 53.2734 244.02 53.0312 244.793 53.0312C246.051 53.0312 246.891 53.543 247.312 54.5664C247.555 55.1445 247.676 56.0586 247.676 57.3086V62.1719C247.676 62.7266 247.797 63.1055 248.039 63.3086C248.289 63.5039 248.734 63.6328 249.375 63.6953V64H244.09V63.6719C244.77 63.6094 245.215 63.4727 245.426 63.2617C245.645 63.0508 245.754 62.6211 245.754 61.9727V56.9219C245.754 56.1641 245.672 55.6055 245.508 55.2461C245.219 54.6055 244.652 54.2852 243.809 54.2852C243.301 54.2852 242.797 54.4531 242.297 54.7891C242.008 54.9844 241.652 55.2969 241.23 55.7266V61.7266C241.23 62.3594 241.34 62.8398 241.559 63.168C241.785 63.4961 242.258 63.6719 242.977 63.6953V64H237.598V63.6953C238.34 63.6016 238.812 63.4219 239.016 63.1562C239.219 62.8906 239.32 62.2383 239.32 61.1992V57.918C239.32 56.7148 239.242 55.8867 239.086 55.4336C238.828 54.668 238.281 54.2852 237.445 54.2852C236.969 54.2852 236.5 54.418 236.039 54.6836C235.578 54.9414 235.172 55.2812 234.82 55.7031V62.1133C234.82 62.707 234.922 63.1172 235.125 63.3438C235.336 63.5703 235.789 63.6875 236.484 63.6953V64H231.152V63.6953ZM254.941 53.0078C256.043 53.0078 257.008 53.3906 257.836 54.1562C258.664 54.9141 259.078 55.9922 259.078 57.3906H251.637C251.715 59.2031 252.125 60.5234 252.867 61.3516C253.609 62.1797 254.488 62.5938 255.504 62.5938C256.324 62.5938 257.016 62.3789 257.578 61.9492C258.141 61.5195 258.66 60.9102 259.137 60.1211L259.547 60.2617C259.227 61.2539 258.625 62.1719 257.742 63.0156C256.867 63.8594 255.793 64.2812 254.52 64.2812C253.051 64.2812 251.914 63.7266 251.109 62.6172C250.312 61.5078 249.914 60.2305 249.914 58.7852C249.914 57.2148 250.379 55.8594 251.309 54.7188C252.238 53.5781 253.449 53.0078 254.941 53.0078ZM254.262 53.8633C253.371 53.8633 252.691 54.2578 252.223 55.0469C251.973 55.4688 251.793 56 251.684 56.6406H256.629C256.543 55.8594 256.395 55.2773 256.184 54.8945C255.801 54.207 255.16 53.8633 254.262 53.8633ZM266.215 53.1953V54.0391H263.824L263.801 60.7891C263.801 61.3828 263.852 61.832 263.953 62.1367C264.141 62.6758 264.508 62.9453 265.055 62.9453C265.336 62.9453 265.578 62.8789 265.781 62.7461C265.992 62.6133 266.23 62.4023 266.496 62.1133L266.801 62.3711L266.543 62.7227C266.137 63.2695 265.707 63.6562 265.254 63.8828C264.801 64.1094 264.363 64.2227 263.941 64.2227C263.02 64.2227 262.395 63.8125 262.066 62.9922C261.887 62.5469 261.797 61.9297 261.797 61.1406V54.0391H260.52C260.48 54.0156 260.449 53.9922 260.426 53.9688C260.41 53.9453 260.402 53.9141 260.402 53.875C260.402 53.7969 260.418 53.7383 260.449 53.6992C260.488 53.6523 260.602 53.5508 260.789 53.3945C261.328 52.9492 261.715 52.5898 261.949 52.3164C262.191 52.0352 262.754 51.3008 263.637 50.1133C263.738 50.1133 263.797 50.1211 263.812 50.1367C263.836 50.1523 263.848 50.2109 263.848 50.3125V53.1953H266.215ZM272.672 63.7539C272.672 64.543 272.387 65.2773 271.816 65.957C271.246 66.6367 270.633 67.125 269.977 67.4219L269.754 66.9531C270.504 66.5312 271.02 66.0742 271.301 65.582C271.59 65.0898 271.734 64.6797 271.734 64.3516C271.734 64.2422 271.699 64.1719 271.629 64.1406C271.559 64.1094 271.484 64.0938 271.406 64.0938L270.621 64.1758C270.293 64.1758 269.992 64.0703 269.719 63.8594C269.445 63.6406 269.309 63.3281 269.309 62.9219C269.309 62.6094 269.422 62.3047 269.648 62.0078C269.875 61.7109 270.246 61.5625 270.762 61.5625C271.254 61.5625 271.695 61.7578 272.086 62.1484C272.477 62.5312 272.672 63.0664 272.672 63.7539ZM284.754 52.9492C285.73 52.9492 286.57 53.2031 287.273 53.7109C287.984 54.2109 288.34 54.7617 288.34 55.3633C288.34 55.6211 288.25 55.8633 288.07 56.0898C287.891 56.3086 287.613 56.418 287.238 56.418C286.965 56.418 286.723 56.3242 286.512 56.1367C286.309 55.9492 286.16 55.6758 286.066 55.3164L285.926 54.7539C285.824 54.3398 285.648 54.0469 285.398 53.875C285.141 53.7109 284.801 53.6289 284.379 53.6289C283.488 53.6289 282.734 54.0195 282.117 54.8008C281.508 55.5742 281.203 56.6055 281.203 57.8945C281.203 59.0742 281.539 60.1328 282.211 61.0703C282.891 62.0078 283.805 62.4766 284.953 62.4766C285.766 62.4766 286.488 62.2109 287.121 61.6797C287.48 61.375 287.887 60.8906 288.34 60.2266L288.668 60.4258C288.223 61.3633 287.754 62.1055 287.262 62.6523C286.316 63.6992 285.223 64.2227 283.98 64.2227C282.762 64.2227 281.684 63.7422 280.746 62.7812C279.809 61.8203 279.34 60.5156 279.34 58.8672C279.34 57.25 279.852 55.8594 280.875 54.6953C281.898 53.5312 283.191 52.9492 284.754 52.9492ZM290.062 58.5625C290.062 57.0078 290.555 55.6953 291.539 54.625C292.531 53.5469 293.805 53.0078 295.359 53.0078C296.906 53.0078 298.188 53.5156 299.203 54.5312C300.219 55.5469 300.727 56.8984 300.727 58.5859C300.727 60.1406 300.234 61.4922 299.25 62.6406C298.266 63.7891 296.992 64.3633 295.43 64.3633C293.93 64.3633 292.66 63.8125 291.621 62.7109C290.582 61.6094 290.062 60.2266 290.062 58.5625ZM295.031 53.7109C294.414 53.7109 293.879 53.9141 293.426 54.3203C292.645 55.0312 292.254 56.2578 292.254 58C292.254 59.3906 292.566 60.6875 293.191 61.8906C293.824 63.0938 294.699 63.6953 295.816 63.6953C296.691 63.6953 297.363 63.293 297.832 62.4883C298.309 61.6836 298.547 60.6289 298.547 59.3242C298.547 57.9727 298.246 56.6992 297.645 55.5039C297.043 54.3086 296.172 53.7109 295.031 53.7109ZM301.887 63.6719C302.441 63.6016 302.828 63.4648 303.047 63.2617C303.273 63.0508 303.387 62.5859 303.387 61.8672V55.9258C303.387 55.4258 303.34 55.0742 303.246 54.8711C303.098 54.5742 302.793 54.4258 302.332 54.4258C302.262 54.4258 302.188 54.4297 302.109 54.4375C302.039 54.4453 301.949 54.457 301.84 54.4727V54.0625C302.16 53.9688 302.918 53.7266 304.113 53.3359L305.215 52.9727C305.27 52.9727 305.301 52.9922 305.309 53.0312C305.324 53.0703 305.332 53.125 305.332 53.1953V54.918C306.051 54.2461 306.613 53.7852 307.02 53.5352C307.629 53.1523 308.262 52.9609 308.918 52.9609C309.449 52.9609 309.934 53.1133 310.371 53.418C311.215 54.0117 311.637 55.0703 311.637 56.5938V62.0664C311.637 62.6289 311.75 63.0352 311.977 63.2852C312.203 63.5352 312.582 63.6641 313.113 63.6719V64H308.109V63.6719C308.68 63.5938 309.078 63.4375 309.305 63.2031C309.531 62.9609 309.645 62.4414 309.645 61.6445V56.6406C309.645 55.9688 309.52 55.4141 309.27 54.9766C309.02 54.5312 308.559 54.3086 307.887 54.3086C307.426 54.3086 306.957 54.4648 306.48 54.7773C306.215 54.957 305.871 55.2539 305.449 55.668V62.2305C305.449 62.793 305.574 63.1719 305.824 63.3672C306.074 63.5547 306.469 63.6562 307.008 63.6719V64H301.887V63.6719ZM314.695 60.3086H315.082C315.262 61.1992 315.504 61.8828 315.809 62.3594C316.355 63.2344 317.156 63.6719 318.211 63.6719C318.797 63.6719 319.258 63.5117 319.594 63.1914C319.938 62.8633 320.109 62.4414 320.109 61.9258C320.109 61.5977 320.012 61.2812 319.816 60.9766C319.621 60.6719 319.277 60.375 318.785 60.0859L317.473 59.3359C316.512 58.8203 315.805 58.3008 315.352 57.7773C314.898 57.2539 314.672 56.6367 314.672 55.9258C314.672 55.0508 314.984 54.332 315.609 53.7695C316.234 53.207 317.02 52.9258 317.965 52.9258C318.379 52.9258 318.832 53.0039 319.324 53.1602C319.824 53.3164 320.105 53.3945 320.168 53.3945C320.309 53.3945 320.41 53.375 320.473 53.3359C320.535 53.2969 320.59 53.2344 320.637 53.1484H320.918L321 56.418H320.637C320.48 55.6602 320.27 55.0703 320.004 54.6484C319.52 53.8672 318.82 53.4766 317.906 53.4766C317.359 53.4766 316.93 53.6445 316.617 53.9805C316.305 54.3164 316.148 54.7109 316.148 55.1641C316.148 55.8828 316.688 56.5234 317.766 57.0859L319.312 57.918C320.977 58.8242 321.809 59.8789 321.809 61.082C321.809 62.0039 321.461 62.7578 320.766 63.3438C320.078 63.9297 319.176 64.2227 318.059 64.2227C317.59 64.2227 317.059 64.1445 316.465 63.9883C315.871 63.832 315.52 63.7539 315.41 63.7539C315.316 63.7539 315.234 63.7891 315.164 63.8594C315.094 63.9219 315.039 64 315 64.0938H314.695V60.3086ZM328.301 53.0078C329.402 53.0078 330.367 53.3906 331.195 54.1562C332.023 54.9141 332.438 55.9922 332.438 57.3906H324.996C325.074 59.2031 325.484 60.5234 326.227 61.3516C326.969 62.1797 327.848 62.5938 328.863 62.5938C329.684 62.5938 330.375 62.3789 330.938 61.9492C331.5 61.5195 332.02 60.9102 332.496 60.1211L332.906 60.2617C332.586 61.2539 331.984 62.1719 331.102 63.0156C330.227 63.8594 329.152 64.2812 327.879 64.2812C326.41 64.2812 325.273 63.7266 324.469 62.6172C323.672 61.5078 323.273 60.2305 323.273 58.7852C323.273 57.2148 323.738 55.8594 324.668 54.7188C325.598 53.5781 326.809 53.0078 328.301 53.0078ZM327.621 53.8633C326.73 53.8633 326.051 54.2578 325.582 55.0469C325.332 55.4688 325.152 56 325.043 56.6406H329.988C329.902 55.8594 329.754 55.2773 329.543 54.8945C329.16 54.207 328.52 53.8633 327.621 53.8633ZM339.434 52.9492C340.41 52.9492 341.25 53.2031 341.953 53.7109C342.664 54.2109 343.02 54.7617 343.02 55.3633C343.02 55.6211 342.93 55.8633 342.75 56.0898C342.57 56.3086 342.293 56.418 341.918 56.418C341.645 56.418 341.402 56.3242 341.191 56.1367C340.988 55.9492 340.84 55.6758 340.746 55.3164L340.605 54.7539C340.504 54.3398 340.328 54.0469 340.078 53.875C339.82 53.7109 339.48 53.6289 339.059 53.6289C338.168 53.6289 337.414 54.0195 336.797 54.8008C336.188 55.5742 335.883 56.6055 335.883 57.8945C335.883 59.0742 336.219 60.1328 336.891 61.0703C337.57 62.0078 338.484 62.4766 339.633 62.4766C340.445 62.4766 341.168 62.2109 341.801 61.6797C342.16 61.375 342.566 60.8906 343.02 60.2266L343.348 60.4258C342.902 61.3633 342.434 62.1055 341.941 62.6523C340.996 63.6992 339.902 64.2227 338.66 64.2227C337.441 64.2227 336.363 63.7422 335.426 62.7812C334.488 61.8203 334.02 60.5156 334.02 58.8672C334.02 57.25 334.531 55.8594 335.555 54.6953C336.578 53.5312 337.871 52.9492 339.434 52.9492ZM350.238 53.1953V54.0391H347.848L347.824 60.7891C347.824 61.3828 347.875 61.832 347.977 62.1367C348.164 62.6758 348.531 62.9453 349.078 62.9453C349.359 62.9453 349.602 62.8789 349.805 62.7461C350.016 62.6133 350.254 62.4023 350.52 62.1133L350.824 62.3711L350.566 62.7227C350.16 63.2695 349.73 63.6562 349.277 63.8828C348.824 64.1094 348.387 64.2227 347.965 64.2227C347.043 64.2227 346.418 63.8125 346.09 62.9922C345.91 62.5469 345.82 61.9297 345.82 61.1406V54.0391H344.543C344.504 54.0156 344.473 53.9922 344.449 53.9688C344.434 53.9453 344.426 53.9141 344.426 53.875C344.426 53.7969 344.441 53.7383 344.473 53.6992C344.512 53.6523 344.625 53.5508 344.812 53.3945C345.352 52.9492 345.738 52.5898 345.973 52.3164C346.215 52.0352 346.777 51.3008 347.66 50.1133C347.762 50.1133 347.82 50.1211 347.836 50.1367C347.859 50.1523 347.871 50.2109 347.871 50.3125V53.1953H350.238ZM356.309 53.0078C357.41 53.0078 358.375 53.3906 359.203 54.1562C360.031 54.9141 360.445 55.9922 360.445 57.3906H353.004C353.082 59.2031 353.492 60.5234 354.234 61.3516C354.977 62.1797 355.855 62.5938 356.871 62.5938C357.691 62.5938 358.383 62.3789 358.945 61.9492C359.508 61.5195 360.027 60.9102 360.504 60.1211L360.914 60.2617C360.594 61.2539 359.992 62.1719 359.109 63.0156C358.234 63.8594 357.16 64.2812 355.887 64.2812C354.418 64.2812 353.281 63.7266 352.477 62.6172C351.68 61.5078 351.281 60.2305 351.281 58.7852C351.281 57.2148 351.746 55.8594 352.676 54.7188C353.605 53.5781 354.816 53.0078 356.309 53.0078ZM355.629 53.8633C354.738 53.8633 354.059 54.2578 353.59 55.0469C353.34 55.4688 353.16 56 353.051 56.6406H357.996C357.91 55.8594 357.762 55.2773 357.551 54.8945C357.168 54.207 356.527 53.8633 355.629 53.8633ZM367.582 53.1953V54.0391H365.191L365.168 60.7891C365.168 61.3828 365.219 61.832 365.32 62.1367C365.508 62.6758 365.875 62.9453 366.422 62.9453C366.703 62.9453 366.945 62.8789 367.148 62.7461C367.359 62.6133 367.598 62.4023 367.863 62.1133L368.168 62.3711L367.91 62.7227C367.504 63.2695 367.074 63.6562 366.621 63.8828C366.168 64.1094 365.73 64.2227 365.309 64.2227C364.387 64.2227 363.762 63.8125 363.434 62.9922C363.254 62.5469 363.164 61.9297 363.164 61.1406V54.0391H361.887C361.848 54.0156 361.816 53.9922 361.793 53.9688C361.777 53.9453 361.77 53.9141 361.77 53.875C361.77 53.7969 361.785 53.7383 361.816 53.6992C361.855 53.6523 361.969 53.5508 362.156 53.3945C362.695 52.9492 363.082 52.5898 363.316 52.3164C363.559 52.0352 364.121 51.3008 365.004 50.1133C365.105 50.1133 365.164 50.1211 365.18 50.1367C365.203 50.1523 365.215 50.2109 365.215 50.3125V53.1953H367.582ZM371.871 53.1484V60.6484C371.871 61.1797 371.945 61.6055 372.094 61.9258C372.383 62.5195 372.914 62.8164 373.688 62.8164C374.219 62.8164 374.738 62.6406 375.246 62.2891C375.535 62.0938 375.828 61.8242 376.125 61.4805V55.0586C376.125 54.457 376.008 54.0625 375.773 53.875C375.539 53.6875 375.07 53.5742 374.367 53.5352V53.1484H378.152V61.3984C378.152 61.9297 378.246 62.2969 378.434 62.5C378.629 62.6953 379.035 62.7812 379.652 62.7578V63.0859C379.223 63.2031 378.906 63.293 378.703 63.3555C378.5 63.4102 378.16 63.5156 377.684 63.6719C377.48 63.7422 377.035 63.9102 376.348 64.1758C376.309 64.1758 376.285 64.1562 376.277 64.1172C376.27 64.0859 376.266 64.0469 376.266 64V62.1133C375.734 62.7461 375.25 63.2148 374.812 63.5195C374.148 63.9883 373.445 64.2227 372.703 64.2227C372.023 64.2227 371.383 63.9805 370.781 63.4961C370.172 63.0195 369.867 62.2188 369.867 61.0938V55.0117C369.867 54.3867 369.734 53.9688 369.469 53.7578C369.297 53.625 368.93 53.5312 368.367 53.4766V53.1484H371.871ZM380.262 63.6133C380.98 63.5508 381.457 63.4258 381.691 63.2383C381.926 63.043 382.043 62.6328 382.043 62.0078V56.7227C382.043 55.9492 381.969 55.3984 381.82 55.0703C381.68 54.7344 381.418 54.5664 381.035 54.5664C380.957 54.5664 380.852 54.5781 380.719 54.6016C380.594 54.6172 380.461 54.6406 380.32 54.6719V54.2852C380.766 54.1289 381.223 53.9688 381.691 53.8047C382.16 53.6406 382.484 53.5234 382.664 53.4531C383.055 53.3047 383.457 53.1367 383.871 52.9492C383.926 52.9492 383.957 52.9688 383.965 53.0078C383.98 53.0469 383.988 53.1289 383.988 53.2539V55.1758C384.488 54.4805 384.969 53.9375 385.43 53.5469C385.898 53.1562 386.383 52.9609 386.883 52.9609C387.281 52.9609 387.605 53.082 387.855 53.3242C388.105 53.5586 388.23 53.8555 388.23 54.2148C388.23 54.5352 388.133 54.8047 387.938 55.0234C387.75 55.2422 387.512 55.3516 387.223 55.3516C386.926 55.3516 386.625 55.2148 386.32 54.9414C386.023 54.668 385.789 54.5312 385.617 54.5312C385.344 54.5312 385.008 54.7539 384.609 55.1992C384.211 55.6367 384.012 56.0898 384.012 56.5586V61.8438C384.012 62.5156 384.168 62.9844 384.48 63.25C384.793 63.5078 385.312 63.6289 386.039 63.6133V64H380.262V63.6133ZM6.87891 89.5078C5.98047 89.8047 5.23828 90.1328 4.65234 90.4922C3.52734 91.1875 2.96484 91.9766 2.96484 92.8594C2.96484 93.5703 3.19922 94.0938 3.66797 94.4297C3.97266 94.6484 4.3125 94.7578 4.6875 94.7578C5.20312 94.7578 5.69531 94.6133 6.16406 94.3242C6.64062 94.0352 6.87891 93.668 6.87891 93.2227V89.5078ZM0.878906 93.668C0.878906 92.5352 1.44531 91.5898 2.57812 90.832C3.29688 90.3633 4.73047 89.7266 6.87891 88.9219V87.9258C6.87891 87.1289 6.80078 86.5742 6.64453 86.2617C6.37891 85.7383 5.82812 85.4766 4.99219 85.4766C4.59375 85.4766 4.21484 85.5781 3.85547 85.7812C3.49609 85.9922 3.31641 86.2812 3.31641 86.6484C3.31641 86.7422 3.33594 86.9023 3.375 87.1289C3.41406 87.3477 3.43359 87.4883 3.43359 87.5508C3.43359 87.9883 3.28906 88.293 3 88.4648C2.83594 88.5664 2.64062 88.6172 2.41406 88.6172C2.0625 88.6172 1.79297 88.5039 1.60547 88.2773C1.41797 88.043 1.32422 87.7852 1.32422 87.5039C1.32422 86.957 1.66016 86.3867 2.33203 85.793C3.01172 85.1914 4.00391 84.8906 5.30859 84.8906C6.82422 84.8906 7.85156 85.3828 8.39062 86.3672C8.67969 86.9062 8.82422 87.6914 8.82422 88.7227V93.4219C8.82422 93.875 8.85547 94.1875 8.91797 94.3594C9.01953 94.6641 9.23047 94.8164 9.55078 94.8164C9.73047 94.8164 9.87891 94.7891 9.99609 94.7344C10.1133 94.6797 10.3164 94.5469 10.6055 94.3359V94.9453C10.3555 95.25 10.0859 95.5 9.79688 95.6953C9.35938 95.9922 8.91406 96.1406 8.46094 96.1406C7.92969 96.1406 7.54297 95.9688 7.30078 95.625C7.06641 95.2812 6.9375 94.8711 6.91406 94.3945C6.32031 94.9102 5.8125 95.293 5.39062 95.543C4.67969 95.9648 4.00391 96.1758 3.36328 96.1758C2.69141 96.1758 2.10938 95.9414 1.61719 95.4727C1.125 94.9961 0.878906 94.3945 0.878906 93.668ZM16.3477 84.9258C16.918 84.9258 17.4414 85.0508 17.918 85.3008C18.2305 85.4648 18.5312 85.6914 18.8203 85.9805V82.2539C18.8203 81.7773 18.7656 81.4492 18.6562 81.2695C18.5547 81.0898 18.3047 81 17.9062 81C17.8125 81 17.7305 81.0039 17.6602 81.0117C17.5898 81.0195 17.4336 81.0352 17.1914 81.0586V80.6719L18.1523 80.4258C18.5039 80.332 18.8555 80.2344 19.207 80.1328C19.5586 80.0312 19.8672 79.9336 20.1328 79.8398C20.2578 79.8008 20.4648 79.7266 20.7539 79.6172L20.8242 79.6406L20.8008 80.8711C20.793 81.3164 20.7852 81.7773 20.7773 82.2539C20.7695 82.7227 20.7656 83.1875 20.7656 83.6484L20.7422 93.2227C20.7422 93.7305 20.8047 94.0859 20.9297 94.2891C21.0547 94.4922 21.3867 94.5938 21.9258 94.5938C22.0117 94.5938 22.0977 94.5938 22.1836 94.5938C22.2695 94.5859 22.3555 94.5742 22.4414 94.5586V94.9453C22.3945 94.9609 21.8281 95.1562 20.7422 95.5312L18.9023 96.2227L18.8203 96.1172V94.6758C18.3828 95.1523 18.0039 95.4922 17.6836 95.6953C17.1133 96.0469 16.4531 96.2227 15.7031 96.2227C14.375 96.2227 13.2969 95.7109 12.4688 94.6875C11.6484 93.6562 11.2383 92.4648 11.2383 91.1133C11.2383 89.418 11.7305 87.9648 12.7148 86.7539C13.707 85.5352 14.918 84.9258 16.3477 84.9258ZM16.7812 94.957C17.3906 94.957 17.8828 94.7773 18.2578 94.418C18.6328 94.0586 18.8203 93.7188 18.8203 93.3984V88.3711C18.8203 87.3555 18.5469 86.6406 18 86.2266C17.4609 85.8047 16.9336 85.5938 16.418 85.5938C15.4336 85.5938 14.668 86.0312 14.1211 86.9062C13.5742 87.7734 13.3008 88.8438 13.3008 90.1172C13.3008 91.375 13.5898 92.4961 14.168 93.4805C14.7539 94.4648 15.625 94.957 16.7812 94.957ZM24.6328 80.8711C24.6328 80.5352 24.75 80.2461 24.9844 80.0039C25.2188 79.7617 25.5078 79.6406 25.8516 79.6406C26.1875 79.6406 26.4727 79.7617 26.707 80.0039C26.9492 80.2383 27.0703 80.5273 27.0703 80.8711C27.0703 81.207 26.9492 81.4961 26.707 81.7383C26.4727 81.9727 26.1875 82.0898 25.8516 82.0898C25.5078 82.0898 25.2188 81.9727 24.9844 81.7383C24.75 81.4961 24.6328 81.207 24.6328 80.8711ZM23.1328 95.6719C23.9688 95.5938 24.4961 95.4531 24.7148 95.25C24.9336 95.0391 25.043 94.4766 25.043 93.5625V87.9727C25.043 87.4648 25.0078 87.1133 24.9375 86.918C24.8203 86.5977 24.5742 86.4375 24.1992 86.4375C24.1133 86.4375 24.0273 86.4453 23.9414 86.4609C23.8633 86.4766 23.6289 86.5391 23.2383 86.6484V86.2852L23.7422 86.1211C25.1094 85.6758 26.0625 85.3398 26.6016 85.1133C26.8203 85.0195 26.9609 84.9727 27.0234 84.9727C27.0391 85.0273 27.0469 85.0859 27.0469 85.1484V93.5625C27.0469 94.4531 27.1523 95.0117 27.3633 95.2383C27.582 95.4648 28.0703 95.6094 28.8281 95.6719V96H23.1328V95.6719ZM33.1758 93.8438C33.3789 94.375 33.6797 94.7734 34.0781 95.0391C34.4844 95.2969 34.9609 95.4258 35.5078 95.4258C36.3516 95.4258 37.0703 95.0078 37.6641 94.1719C38.2656 93.3281 38.5664 92.1562 38.5664 90.6562C38.5664 89.2188 38.2539 88.1445 37.6289 87.4336C37.0117 86.7227 36.293 86.3672 35.4727 86.3672C34.8945 86.3672 34.3672 86.5469 33.8906 86.9062C33.4141 87.2578 33.1758 87.6055 33.1758 87.9492V93.8438ZM29.4492 100.84C30.1836 100.793 30.6484 100.637 30.8438 100.371C31.0469 100.105 31.1484 99.6875 31.1484 99.1172V87.8672C31.1484 87.2734 31.0742 86.8945 30.9258 86.7305C30.7852 86.5586 30.5156 86.4727 30.1172 86.4727C30.0312 86.4727 29.9492 86.4766 29.8711 86.4844C29.8008 86.4922 29.6953 86.5078 29.5547 86.5312V86.1445L30.668 85.7812C30.707 85.7734 31.4922 85.5039 33.0234 84.9727C33.0625 84.9727 33.0898 84.9922 33.1055 85.0312C33.1289 85.0625 33.1406 85.1016 33.1406 85.1484V86.7305C33.6562 86.2148 34.1094 85.832 34.5 85.582C35.2031 85.1445 35.9258 84.9258 36.668 84.9258C37.7461 84.9258 38.6719 85.3867 39.4453 86.3086C40.2266 87.2227 40.6172 88.4766 40.6172 90.0703C40.6172 91.6328 40.1484 93.0508 39.2109 94.3242C38.2812 95.5977 37.1094 96.2344 35.6953 96.2344C35.2578 96.2344 34.8789 96.1797 34.5586 96.0703C34.0586 95.9062 33.5977 95.6055 33.1758 95.168V99C33.1758 99.7891 33.3047 100.273 33.5625 100.453C33.8203 100.633 34.3828 100.754 35.25 100.816V101.227H29.4492V100.84ZM43.3125 80.8711C43.3125 80.5352 43.4297 80.2461 43.6641 80.0039C43.8984 79.7617 44.1875 79.6406 44.5312 79.6406C44.8672 79.6406 45.1523 79.7617 45.3867 80.0039C45.6289 80.2383 45.75 80.5273 45.75 80.8711C45.75 81.207 45.6289 81.4961 45.3867 81.7383C45.1523 81.9727 44.8672 82.0898 44.5312 82.0898C44.1875 82.0898 43.8984 81.9727 43.6641 81.7383C43.4297 81.4961 43.3125 81.207 43.3125 80.8711ZM41.8125 95.6719C42.6484 95.5938 43.1758 95.4531 43.3945 95.25C43.6133 95.0391 43.7227 94.4766 43.7227 93.5625V87.9727C43.7227 87.4648 43.6875 87.1133 43.6172 86.918C43.5 86.5977 43.2539 86.4375 42.8789 86.4375C42.793 86.4375 42.707 86.4453 42.6211 86.4609C42.543 86.4766 42.3086 86.5391 41.918 86.6484V86.2852L42.4219 86.1211C43.7891 85.6758 44.7422 85.3398 45.2812 85.1133C45.5 85.0195 45.6406 84.9727 45.7031 84.9727C45.7188 85.0273 45.7266 85.0859 45.7266 85.1484V93.5625C45.7266 94.4531 45.832 95.0117 46.043 95.2383C46.2617 95.4648 46.75 95.6094 47.5078 95.6719V96H41.8125V95.6719ZM49.2656 92.3086H49.6523C49.832 93.1992 50.0742 93.8828 50.3789 94.3594C50.9258 95.2344 51.7266 95.6719 52.7812 95.6719C53.3672 95.6719 53.8281 95.5117 54.1641 95.1914C54.5078 94.8633 54.6797 94.4414 54.6797 93.9258C54.6797 93.5977 54.582 93.2812 54.3867 92.9766C54.1914 92.6719 53.8477 92.375 53.3555 92.0859L52.043 91.3359C51.082 90.8203 50.375 90.3008 49.9219 89.7773C49.4688 89.2539 49.2422 88.6367 49.2422 87.9258C49.2422 87.0508 49.5547 86.332 50.1797 85.7695C50.8047 85.207 51.5898 84.9258 52.5352 84.9258C52.9492 84.9258 53.4023 85.0039 53.8945 85.1602C54.3945 85.3164 54.6758 85.3945 54.7383 85.3945C54.8789 85.3945 54.9805 85.375 55.043 85.3359C55.1055 85.2969 55.1602 85.2344 55.207 85.1484H55.4883L55.5703 88.418H55.207C55.0508 87.6602 54.8398 87.0703 54.5742 86.6484C54.0898 85.8672 53.3906 85.4766 52.4766 85.4766C51.9297 85.4766 51.5 85.6445 51.1875 85.9805C50.875 86.3164 50.7188 86.7109 50.7188 87.1641C50.7188 87.8828 51.2578 88.5234 52.3359 89.0859L53.8828 89.918C55.5469 90.8242 56.3789 91.8789 56.3789 93.082C56.3789 94.0039 56.0312 94.7578 55.3359 95.3438C54.6484 95.9297 53.7461 96.2227 52.6289 96.2227C52.1602 96.2227 51.6289 96.1445 51.0352 95.9883C50.4414 95.832 50.0898 95.7539 49.9805 95.7539C49.8867 95.7539 49.8047 95.7891 49.7344 95.8594C49.6641 95.9219 49.6094 96 49.5703 96.0938H49.2656V92.3086ZM63.3398 84.9492C64.3164 84.9492 65.1562 85.2031 65.8594 85.7109C66.5703 86.2109 66.9258 86.7617 66.9258 87.3633C66.9258 87.6211 66.8359 87.8633 66.6562 88.0898C66.4766 88.3086 66.1992 88.418 65.8242 88.418C65.5508 88.418 65.3086 88.3242 65.0977 88.1367C64.8945 87.9492 64.7461 87.6758 64.6523 87.3164L64.5117 86.7539C64.4102 86.3398 64.2344 86.0469 63.9844 85.875C63.7266 85.7109 63.3867 85.6289 62.9648 85.6289C62.0742 85.6289 61.3203 86.0195 60.7031 86.8008C60.0938 87.5742 59.7891 88.6055 59.7891 89.8945C59.7891 91.0742 60.125 92.1328 60.7969 93.0703C61.4766 94.0078 62.3906 94.4766 63.5391 94.4766C64.3516 94.4766 65.0742 94.2109 65.707 93.6797C66.0664 93.375 66.4727 92.8906 66.9258 92.2266L67.2539 92.4258C66.8086 93.3633 66.3398 94.1055 65.8477 94.6523C64.9023 95.6992 63.8086 96.2227 62.5664 96.2227C61.3477 96.2227 60.2695 95.7422 59.332 94.7812C58.3945 93.8203 57.9258 92.5156 57.9258 90.8672C57.9258 89.25 58.4375 87.8594 59.4609 86.6953C60.4844 85.5312 61.7773 84.9492 63.3398 84.9492ZM70.0078 80.8711C70.0078 80.5352 70.125 80.2461 70.3594 80.0039C70.5938 79.7617 70.8828 79.6406 71.2266 79.6406C71.5625 79.6406 71.8477 79.7617 72.082 80.0039C72.3242 80.2383 72.4453 80.5273 72.4453 80.8711C72.4453 81.207 72.3242 81.4961 72.082 81.7383C71.8477 81.9727 71.5625 82.0898 71.2266 82.0898C70.8828 82.0898 70.5938 81.9727 70.3594 81.7383C70.125 81.4961 70.0078 81.207 70.0078 80.8711ZM68.5078 95.6719C69.3438 95.5938 69.8711 95.4531 70.0898 95.25C70.3086 95.0391 70.418 94.4766 70.418 93.5625V87.9727C70.418 87.4648 70.3828 87.1133 70.3125 86.918C70.1953 86.5977 69.9492 86.4375 69.5742 86.4375C69.4883 86.4375 69.4023 86.4453 69.3164 86.4609C69.2383 86.4766 69.0039 86.5391 68.6133 86.6484V86.2852L69.1172 86.1211C70.4844 85.6758 71.4375 85.3398 71.9766 85.1133C72.1953 85.0195 72.3359 84.9727 72.3984 84.9727C72.4141 85.0273 72.4219 85.0859 72.4219 85.1484V93.5625C72.4219 94.4531 72.5273 95.0117 72.7383 95.2383C72.957 95.4648 73.4453 95.6094 74.2031 95.6719V96H68.5078V95.6719ZM75.1523 95.6719C75.707 95.6016 76.0938 95.4648 76.3125 95.2617C76.5391 95.0508 76.6523 94.5859 76.6523 93.8672V87.9258C76.6523 87.4258 76.6055 87.0742 76.5117 86.8711C76.3633 86.5742 76.0586 86.4258 75.5977 86.4258C75.5273 86.4258 75.4531 86.4297 75.375 86.4375C75.3047 86.4453 75.2148 86.457 75.1055 86.4727V86.0625C75.4258 85.9688 76.1836 85.7266 77.3789 85.3359L78.4805 84.9727C78.5352 84.9727 78.5664 84.9922 78.5742 85.0312C78.5898 85.0703 78.5977 85.125 78.5977 85.1953V86.918C79.3164 86.2461 79.8789 85.7852 80.2852 85.5352C80.8945 85.1523 81.5273 84.9609 82.1836 84.9609C82.7148 84.9609 83.1992 85.1133 83.6367 85.418C84.4805 86.0117 84.9023 87.0703 84.9023 88.5938V94.0664C84.9023 94.6289 85.0156 95.0352 85.2422 95.2852C85.4688 95.5352 85.8477 95.6641 86.3789 95.6719V96H81.375V95.6719C81.9453 95.5938 82.3438 95.4375 82.5703 95.2031C82.7969 94.9609 82.9102 94.4414 82.9102 93.6445V88.6406C82.9102 87.9688 82.7852 87.4141 82.5352 86.9766C82.2852 86.5312 81.8242 86.3086 81.1523 86.3086C80.6914 86.3086 80.2227 86.4648 79.7461 86.7773C79.4805 86.957 79.1367 87.2539 78.7148 87.668V94.2305C78.7148 94.793 78.8398 95.1719 79.0898 95.3672C79.3398 95.5547 79.7344 95.6562 80.2734 95.6719V96H75.1523V95.6719ZM89.0742 98.168C89.0742 98.8242 89.4414 99.2773 90.1758 99.5273C90.918 99.7773 91.7656 99.9023 92.7188 99.9023C94.0156 99.9023 95.0703 99.6758 95.8828 99.2227C96.6953 98.7773 97.1016 98.2266 97.1016 97.5703C97.1016 97.0469 96.7734 96.6992 96.1172 96.5273C95.7109 96.4258 94.9414 96.3672 93.8086 96.3516C93.5195 96.3438 93.2148 96.332 92.8945 96.3164C92.5742 96.3086 92.2812 96.2969 92.0156 96.2812C91.8438 96.2734 91.5664 96.2422 91.1836 96.1875C90.8008 96.1328 90.5156 96.0859 90.3281 96.0469C90.2344 96.0469 90.0039 96.293 89.6367 96.7852C89.2617 97.2852 89.0742 97.7461 89.0742 98.168ZM90.5977 92.0625C89.8867 91.8281 89.332 91.4102 88.9336 90.8086C88.543 90.207 88.3477 89.5312 88.3477 88.7812C88.3477 87.8672 88.7109 87 89.4375 86.1797C90.1641 85.3594 91.1914 84.9492 92.5195 84.9492C93.0898 84.9492 93.7188 85.0859 94.4062 85.3594C95.0938 85.625 95.7539 85.7578 96.3867 85.7578C96.5508 85.7578 96.7969 85.7539 97.125 85.7461C97.4609 85.7305 97.7031 85.7227 97.8516 85.7227H97.9922V86.6719H95.9648C96.1055 87 96.2148 87.2852 96.293 87.5273C96.4258 87.9805 96.4922 88.4102 96.4922 88.8164C96.4922 89.707 96.1211 90.5273 95.3789 91.2773C94.6445 92.0195 93.6523 92.3906 92.4023 92.3906C92.207 92.3906 91.8555 92.3555 91.3477 92.2852C91.1211 92.2852 90.8203 92.4766 90.4453 92.8594C90.0781 93.2422 89.8945 93.5547 89.8945 93.7969C89.8945 94.0469 90.168 94.2305 90.7148 94.3477C91.0742 94.4258 91.4727 94.4648 91.9102 94.4648C93.918 94.4648 95.2812 94.5781 96 94.8047C97.1797 95.1719 97.7695 95.9609 97.7695 97.1719C97.7695 98.4062 97.0781 99.3906 95.6953 100.125C94.3203 100.859 92.9297 101.227 91.5234 101.227C90.2422 101.227 89.2266 100.965 88.4766 100.441C87.7266 99.9258 87.3516 99.3828 87.3516 98.8125C87.3516 98.5312 87.4492 98.2539 87.6445 97.9805C87.8477 97.7148 88.2422 97.3164 88.8281 96.7852L89.6016 96.0938L89.7422 95.9531C89.3828 95.8125 89.1133 95.6758 88.9336 95.543C88.6211 95.3008 88.4648 95.0234 88.4648 94.7109C88.4648 94.4219 88.5977 94.1055 88.8633 93.7617C89.1367 93.4102 89.7148 92.8438 90.5977 92.0625ZM92.8242 91.8281C93.2539 91.8281 93.6133 91.7109 93.9023 91.4766C94.3711 91.1016 94.6055 90.4492 94.6055 89.5195C94.6055 88.7773 94.4141 87.9414 94.0312 87.0117C93.6562 86.082 93.0273 85.6172 92.1445 85.6172C91.3789 85.6172 90.8516 85.9805 90.5625 86.707C90.4141 87.0898 90.3398 87.5625 90.3398 88.125C90.3398 89.0781 90.5703 89.9336 91.0312 90.6914C91.4922 91.4492 92.0898 91.8281 92.8242 91.8281ZM110.215 85.0078C111.316 85.0078 112.281 85.3906 113.109 86.1562C113.938 86.9141 114.352 87.9922 114.352 89.3906H106.91C106.988 91.2031 107.398 92.5234 108.141 93.3516C108.883 94.1797 109.762 94.5938 110.777 94.5938C111.598 94.5938 112.289 94.3789 112.852 93.9492C113.414 93.5195 113.934 92.9102 114.41 92.1211L114.82 92.2617C114.5 93.2539 113.898 94.1719 113.016 95.0156C112.141 95.8594 111.066 96.2812 109.793 96.2812C108.324 96.2812 107.188 95.7266 106.383 94.6172C105.586 93.5078 105.188 92.2305 105.188 90.7852C105.188 89.2148 105.652 87.8594 106.582 86.7188C107.512 85.5781 108.723 85.0078 110.215 85.0078ZM109.535 85.8633C108.645 85.8633 107.965 86.2578 107.496 87.0469C107.246 87.4688 107.066 88 106.957 88.6406H111.902C111.816 87.8594 111.668 87.2773 111.457 86.8945C111.074 86.207 110.434 85.8633 109.535 85.8633ZM115.875 95.6719C116.602 95.6016 117.094 95.457 117.352 95.2383C117.609 95.0117 117.738 94.5742 117.738 93.9258V82.4766C117.738 81.9609 117.695 81.6055 117.609 81.4102C117.453 81.082 117.137 80.918 116.66 80.918C116.551 80.918 116.43 80.9297 116.297 80.9531C116.172 80.9766 116.012 81.0117 115.816 81.0586V80.6719C116.871 80.3906 118.141 80.0156 119.625 79.5469C119.68 79.5469 119.711 79.5703 119.719 79.6172C119.734 79.6641 119.742 79.7656 119.742 79.9219V93.9727C119.742 94.6523 119.859 95.0938 120.094 95.2969C120.328 95.4922 120.812 95.6172 121.547 95.6719V96H115.875V95.6719ZM124.031 80.8711C124.031 80.5352 124.148 80.2461 124.383 80.0039C124.617 79.7617 124.906 79.6406 125.25 79.6406C125.586 79.6406 125.871 79.7617 126.105 80.0039C126.348 80.2383 126.469 80.5273 126.469 80.8711C126.469 81.207 126.348 81.4961 126.105 81.7383C125.871 81.9727 125.586 82.0898 125.25 82.0898C124.906 82.0898 124.617 81.9727 124.383 81.7383C124.148 81.4961 124.031 81.207 124.031 80.8711ZM122.531 95.6719C123.367 95.5938 123.895 95.4531 124.113 95.25C124.332 95.0391 124.441 94.4766 124.441 93.5625V87.9727C124.441 87.4648 124.406 87.1133 124.336 86.918C124.219 86.5977 123.973 86.4375 123.598 86.4375C123.512 86.4375 123.426 86.4453 123.34 86.4609C123.262 86.4766 123.027 86.5391 122.637 86.6484V86.2852L123.141 86.1211C124.508 85.6758 125.461 85.3398 126 85.1133C126.219 85.0195 126.359 84.9727 126.422 84.9727C126.438 85.0273 126.445 85.0859 126.445 85.1484V93.5625C126.445 94.4531 126.551 95.0117 126.762 95.2383C126.98 95.4648 127.469 95.6094 128.227 95.6719V96H122.531V95.6719ZM134.848 85.1953V86.0391H132.457L132.434 92.7891C132.434 93.3828 132.484 93.832 132.586 94.1367C132.773 94.6758 133.141 94.9453 133.688 94.9453C133.969 94.9453 134.211 94.8789 134.414 94.7461C134.625 94.6133 134.863 94.4023 135.129 94.1133L135.434 94.3711L135.176 94.7227C134.77 95.2695 134.34 95.6562 133.887 95.8828C133.434 96.1094 132.996 96.2227 132.574 96.2227C131.652 96.2227 131.027 95.8125 130.699 94.9922C130.52 94.5469 130.43 93.9297 130.43 93.1406V86.0391H129.152C129.113 86.0156 129.082 85.9922 129.059 85.9688C129.043 85.9453 129.035 85.9141 129.035 85.875C129.035 85.7969 129.051 85.7383 129.082 85.6992C129.121 85.6523 129.234 85.5508 129.422 85.3945C129.961 84.9492 130.348 84.5898 130.582 84.3164C130.824 84.0352 131.387 83.3008 132.27 82.1133C132.371 82.1133 132.43 82.1211 132.445 82.1367C132.469 82.1523 132.48 82.2109 132.48 82.3125V85.1953H134.848ZM139.336 96.2812C138.961 96.2812 138.645 96.1523 138.387 95.8945C138.129 95.6289 138 95.3125 138 94.9453C138 94.5781 138.129 94.2656 138.387 94.0078C138.652 93.75 138.969 93.6211 139.336 93.6211C139.703 93.6211 140.016 93.75 140.273 94.0078C140.531 94.2656 140.66 94.5781 140.66 94.9453C140.66 95.3125 140.531 95.6289 140.273 95.8945C140.023 96.1523 139.711 96.2812 139.336 96.2812ZM147.691 95.5664C148.637 95.4648 149.223 95.293 149.449 95.0508C149.684 94.8008 149.801 94.1562 149.801 93.1172V82.7227C149.801 81.8711 149.672 81.3164 149.414 81.0586C149.156 80.793 148.582 80.6289 147.691 80.5664V80.1211H160.477L160.559 83.5664H159.891C159.727 82.4648 159.418 81.7695 158.965 81.4805C158.512 81.1836 157.617 81.0352 156.281 81.0352H153C152.68 81.0352 152.473 81.0898 152.379 81.1992C152.293 81.3086 152.25 81.5234 152.25 81.8438V87.1992H155.719C156.742 87.1992 157.395 87.0469 157.676 86.7422C157.957 86.4375 158.184 85.8203 158.355 84.8906H158.918V90.4453H158.355C158.176 89.5156 157.945 88.9023 157.664 88.6055C157.383 88.3008 156.734 88.1484 155.719 88.1484H152.25V93.3984C152.25 94.2812 152.383 94.8477 152.648 95.0977C152.922 95.3398 153.512 95.4961 154.418 95.5664V96H147.691V95.5664ZM167.66 89.5078C166.762 89.8047 166.02 90.1328 165.434 90.4922C164.309 91.1875 163.746 91.9766 163.746 92.8594C163.746 93.5703 163.98 94.0938 164.449 94.4297C164.754 94.6484 165.094 94.7578 165.469 94.7578C165.984 94.7578 166.477 94.6133 166.945 94.3242C167.422 94.0352 167.66 93.668 167.66 93.2227V89.5078ZM161.66 93.668C161.66 92.5352 162.227 91.5898 163.359 90.832C164.078 90.3633 165.512 89.7266 167.66 88.9219V87.9258C167.66 87.1289 167.582 86.5742 167.426 86.2617C167.16 85.7383 166.609 85.4766 165.773 85.4766C165.375 85.4766 164.996 85.5781 164.637 85.7812C164.277 85.9922 164.098 86.2812 164.098 86.6484C164.098 86.7422 164.117 86.9023 164.156 87.1289C164.195 87.3477 164.215 87.4883 164.215 87.5508C164.215 87.9883 164.07 88.293 163.781 88.4648C163.617 88.5664 163.422 88.6172 163.195 88.6172C162.844 88.6172 162.574 88.5039 162.387 88.2773C162.199 88.043 162.105 87.7852 162.105 87.5039C162.105 86.957 162.441 86.3867 163.113 85.793C163.793 85.1914 164.785 84.8906 166.09 84.8906C167.605 84.8906 168.633 85.3828 169.172 86.3672C169.461 86.9062 169.605 87.6914 169.605 88.7227V93.4219C169.605 93.875 169.637 94.1875 169.699 94.3594C169.801 94.6641 170.012 94.8164 170.332 94.8164C170.512 94.8164 170.66 94.7891 170.777 94.7344C170.895 94.6797 171.098 94.5469 171.387 94.3359V94.9453C171.137 95.25 170.867 95.5 170.578 95.6953C170.141 95.9922 169.695 96.1406 169.242 96.1406C168.711 96.1406 168.324 95.9688 168.082 95.625C167.848 95.2812 167.719 94.8711 167.695 94.3945C167.102 94.9102 166.594 95.293 166.172 95.543C165.461 95.9648 164.785 96.1758 164.145 96.1758C163.473 96.1758 162.891 95.9414 162.398 95.4727C161.906 94.9961 161.66 94.3945 161.66 93.668ZM175.16 85.1484V92.6484C175.16 93.1797 175.234 93.6055 175.383 93.9258C175.672 94.5195 176.203 94.8164 176.977 94.8164C177.508 94.8164 178.027 94.6406 178.535 94.2891C178.824 94.0938 179.117 93.8242 179.414 93.4805V87.0586C179.414 86.457 179.297 86.0625 179.062 85.875C178.828 85.6875 178.359 85.5742 177.656 85.5352V85.1484H181.441V93.3984C181.441 93.9297 181.535 94.2969 181.723 94.5C181.918 94.6953 182.324 94.7812 182.941 94.7578V95.0859C182.512 95.2031 182.195 95.293 181.992 95.3555C181.789 95.4102 181.449 95.5156 180.973 95.6719C180.77 95.7422 180.324 95.9102 179.637 96.1758C179.598 96.1758 179.574 96.1562 179.566 96.1172C179.559 96.0859 179.555 96.0469 179.555 96V94.1133C179.023 94.7461 178.539 95.2148 178.102 95.5195C177.438 95.9883 176.734 96.2227 175.992 96.2227C175.312 96.2227 174.672 95.9805 174.07 95.4961C173.461 95.0195 173.156 94.2188 173.156 93.0938V87.0117C173.156 86.3867 173.023 85.9688 172.758 85.7578C172.586 85.625 172.219 85.5312 171.656 85.4766V85.1484H175.16ZM189.41 84.9492C190.387 84.9492 191.227 85.2031 191.93 85.7109C192.641 86.2109 192.996 86.7617 192.996 87.3633C192.996 87.6211 192.906 87.8633 192.727 88.0898C192.547 88.3086 192.27 88.418 191.895 88.418C191.621 88.418 191.379 88.3242 191.168 88.1367C190.965 87.9492 190.816 87.6758 190.723 87.3164L190.582 86.7539C190.48 86.3398 190.305 86.0469 190.055 85.875C189.797 85.7109 189.457 85.6289 189.035 85.6289C188.145 85.6289 187.391 86.0195 186.773 86.8008C186.164 87.5742 185.859 88.6055 185.859 89.8945C185.859 91.0742 186.195 92.1328 186.867 93.0703C187.547 94.0078 188.461 94.4766 189.609 94.4766C190.422 94.4766 191.145 94.2109 191.777 93.6797C192.137 93.375 192.543 92.8906 192.996 92.2266L193.324 92.4258C192.879 93.3633 192.41 94.1055 191.918 94.6523C190.973 95.6992 189.879 96.2227 188.637 96.2227C187.418 96.2227 186.34 95.7422 185.402 94.7812C184.465 93.8203 183.996 92.5156 183.996 90.8672C183.996 89.25 184.508 87.8594 185.531 86.6953C186.555 85.5312 187.848 84.9492 189.41 84.9492ZM196.078 80.8711C196.078 80.5352 196.195 80.2461 196.43 80.0039C196.664 79.7617 196.953 79.6406 197.297 79.6406C197.633 79.6406 197.918 79.7617 198.152 80.0039C198.395 80.2383 198.516 80.5273 198.516 80.8711C198.516 81.207 198.395 81.4961 198.152 81.7383C197.918 81.9727 197.633 82.0898 197.297 82.0898C196.953 82.0898 196.664 81.9727 196.43 81.7383C196.195 81.4961 196.078 81.207 196.078 80.8711ZM194.578 95.6719C195.414 95.5938 195.941 95.4531 196.16 95.25C196.379 95.0391 196.488 94.4766 196.488 93.5625V87.9727C196.488 87.4648 196.453 87.1133 196.383 86.918C196.266 86.5977 196.02 86.4375 195.645 86.4375C195.559 86.4375 195.473 86.4453 195.387 86.4609C195.309 86.4766 195.074 86.5391 194.684 86.6484V86.2852L195.188 86.1211C196.555 85.6758 197.508 85.3398 198.047 85.1133C198.266 85.0195 198.406 84.9727 198.469 84.9727C198.484 85.0273 198.492 85.0859 198.492 85.1484V93.5625C198.492 94.4531 198.598 95.0117 198.809 95.2383C199.027 95.4648 199.516 95.6094 200.273 95.6719V96H194.578V95.6719ZM200.871 81.0938V80.6953C201.762 80.4922 202.562 80.2656 203.273 80.0156C203.984 79.7656 204.367 79.6406 204.422 79.6406C204.438 79.6875 204.445 79.7344 204.445 79.7812V86.918C204.648 86.543 204.953 86.1875 205.359 85.8516C206.078 85.2656 206.906 84.9727 207.844 84.9727C208.992 84.9727 209.973 85.457 210.785 86.4258C211.598 87.3945 212.004 88.6523 212.004 90.1992C212.004 91.8555 211.477 93.2734 210.422 94.4531C209.367 95.6328 207.98 96.2227 206.262 96.2227C205.395 96.2227 204.543 96.0508 203.707 95.707C202.871 95.3633 202.453 95.0195 202.453 94.6758V82.2891C202.453 81.8359 202.391 81.5156 202.266 81.3281C202.141 81.1328 201.852 81.0352 201.398 81.0352L200.871 81.0938ZM204.398 94.2891C204.469 94.6953 204.773 94.9883 205.312 95.168C205.852 95.3398 206.324 95.4258 206.73 95.4258C207.824 95.4258 208.633 95.0156 209.156 94.1953C209.688 93.375 209.953 92.3828 209.953 91.2188C209.953 90.0547 209.707 88.9805 209.215 87.9961C208.723 87.0039 207.926 86.5078 206.824 86.5078C206.27 86.5078 205.727 86.6797 205.195 87.0234C204.664 87.3594 204.398 87.7891 204.398 88.3125V94.2891ZM216.504 85.1484V92.6484C216.504 93.1797 216.578 93.6055 216.727 93.9258C217.016 94.5195 217.547 94.8164 218.32 94.8164C218.852 94.8164 219.371 94.6406 219.879 94.2891C220.168 94.0938 220.461 93.8242 220.758 93.4805V87.0586C220.758 86.457 220.641 86.0625 220.406 85.875C220.172 85.6875 219.703 85.5742 219 85.5352V85.1484H222.785V93.3984C222.785 93.9297 222.879 94.2969 223.066 94.5C223.262 94.6953 223.668 94.7812 224.285 94.7578V95.0859C223.855 95.2031 223.539 95.293 223.336 95.3555C223.133 95.4102 222.793 95.5156 222.316 95.6719C222.113 95.7422 221.668 95.9102 220.98 96.1758C220.941 96.1758 220.918 96.1562 220.91 96.1172C220.902 96.0859 220.898 96.0469 220.898 96V94.1133C220.367 94.7461 219.883 95.2148 219.445 95.5195C218.781 95.9883 218.078 96.2227 217.336 96.2227C216.656 96.2227 216.016 95.9805 215.414 95.4961C214.805 95.0195 214.5 94.2188 214.5 93.0938V87.0117C214.5 86.3867 214.367 85.9688 214.102 85.7578C213.93 85.625 213.562 85.5312 213 85.4766V85.1484H216.504ZM226.031 92.3086H226.418C226.598 93.1992 226.84 93.8828 227.145 94.3594C227.691 95.2344 228.492 95.6719 229.547 95.6719C230.133 95.6719 230.594 95.5117 230.93 95.1914C231.273 94.8633 231.445 94.4414 231.445 93.9258C231.445 93.5977 231.348 93.2812 231.152 92.9766C230.957 92.6719 230.613 92.375 230.121 92.0859L228.809 91.3359C227.848 90.8203 227.141 90.3008 226.688 89.7773C226.234 89.2539 226.008 88.6367 226.008 87.9258C226.008 87.0508 226.32 86.332 226.945 85.7695C227.57 85.207 228.355 84.9258 229.301 84.9258C229.715 84.9258 230.168 85.0039 230.66 85.1602C231.16 85.3164 231.441 85.3945 231.504 85.3945C231.645 85.3945 231.746 85.375 231.809 85.3359C231.871 85.2969 231.926 85.2344 231.973 85.1484H232.254L232.336 88.418H231.973C231.816 87.6602 231.605 87.0703 231.34 86.6484C230.855 85.8672 230.156 85.4766 229.242 85.4766C228.695 85.4766 228.266 85.6445 227.953 85.9805C227.641 86.3164 227.484 86.7109 227.484 87.1641C227.484 87.8828 228.023 88.5234 229.102 89.0859L230.648 89.918C232.312 90.8242 233.145 91.8789 233.145 93.082C233.145 94.0039 232.797 94.7578 232.102 95.3438C231.414 95.9297 230.512 96.2227 229.395 96.2227C228.926 96.2227 228.395 96.1445 227.801 95.9883C227.207 95.832 226.855 95.7539 226.746 95.7539C226.652 95.7539 226.57 95.7891 226.5 95.8594C226.43 95.9219 226.375 96 226.336 96.0938H226.031V92.3086ZM242.109 80.8711C242.109 80.5352 242.227 80.2461 242.461 80.0039C242.695 79.7617 242.984 79.6406 243.328 79.6406C243.664 79.6406 243.949 79.7617 244.184 80.0039C244.426 80.2383 244.547 80.5273 244.547 80.8711C244.547 81.207 244.426 81.4961 244.184 81.7383C243.949 81.9727 243.664 82.0898 243.328 82.0898C242.984 82.0898 242.695 81.9727 242.461 81.7383C242.227 81.4961 242.109 81.207 242.109 80.8711ZM240.609 95.6719C241.445 95.5938 241.973 95.4531 242.191 95.25C242.41 95.0391 242.52 94.4766 242.52 93.5625V87.9727C242.52 87.4648 242.484 87.1133 242.414 86.918C242.297 86.5977 242.051 86.4375 241.676 86.4375C241.59 86.4375 241.504 86.4453 241.418 86.4609C241.34 86.4766 241.105 86.5391 240.715 86.6484V86.2852L241.219 86.1211C242.586 85.6758 243.539 85.3398 244.078 85.1133C244.297 85.0195 244.438 84.9727 244.5 84.9727C244.516 85.0273 244.523 85.0859 244.523 85.1484V93.5625C244.523 94.4531 244.629 95.0117 244.84 95.2383C245.059 95.4648 245.547 95.6094 246.305 95.6719V96H240.609V95.6719ZM247.254 95.6719C247.809 95.6016 248.195 95.4648 248.414 95.2617C248.641 95.0508 248.754 94.5859 248.754 93.8672V87.9258C248.754 87.4258 248.707 87.0742 248.613 86.8711C248.465 86.5742 248.16 86.4258 247.699 86.4258C247.629 86.4258 247.555 86.4297 247.477 86.4375C247.406 86.4453 247.316 86.457 247.207 86.4727V86.0625C247.527 85.9688 248.285 85.7266 249.48 85.3359L250.582 84.9727C250.637 84.9727 250.668 84.9922 250.676 85.0312C250.691 85.0703 250.699 85.125 250.699 85.1953V86.918C251.418 86.2461 251.98 85.7852 252.387 85.5352C252.996 85.1523 253.629 84.9609 254.285 84.9609C254.816 84.9609 255.301 85.1133 255.738 85.418C256.582 86.0117 257.004 87.0703 257.004 88.5938V94.0664C257.004 94.6289 257.117 95.0352 257.344 95.2852C257.57 95.5352 257.949 95.6641 258.48 95.6719V96H253.477V95.6719C254.047 95.5938 254.445 95.4375 254.672 95.2031C254.898 94.9609 255.012 94.4414 255.012 93.6445V88.6406C255.012 87.9688 254.887 87.4141 254.637 86.9766C254.387 86.5312 253.926 86.3086 253.254 86.3086C252.793 86.3086 252.324 86.4648 251.848 86.7773C251.582 86.957 251.238 87.2539 250.816 87.668V94.2305C250.816 94.793 250.941 95.1719 251.191 95.3672C251.441 95.5547 251.836 95.6562 252.375 95.6719V96H247.254V95.6719ZM265.312 95.6719C266.039 95.6016 266.531 95.457 266.789 95.2383C267.047 95.0117 267.176 94.5742 267.176 93.9258V82.4766C267.176 81.9609 267.133 81.6055 267.047 81.4102C266.891 81.082 266.574 80.918 266.098 80.918C265.988 80.918 265.867 80.9297 265.734 80.9531C265.609 80.9766 265.449 81.0117 265.254 81.0586V80.6719C266.309 80.3906 267.578 80.0156 269.062 79.5469C269.117 79.5469 269.148 79.5703 269.156 79.6172C269.172 79.6641 269.18 79.7656 269.18 79.9219V93.9727C269.18 94.6523 269.297 95.0938 269.531 95.2969C269.766 95.4922 270.25 95.6172 270.984 95.6719V96H265.312V95.6719ZM273.469 80.8711C273.469 80.5352 273.586 80.2461 273.82 80.0039C274.055 79.7617 274.344 79.6406 274.688 79.6406C275.023 79.6406 275.309 79.7617 275.543 80.0039C275.785 80.2383 275.906 80.5273 275.906 80.8711C275.906 81.207 275.785 81.4961 275.543 81.7383C275.309 81.9727 275.023 82.0898 274.688 82.0898C274.344 82.0898 274.055 81.9727 273.82 81.7383C273.586 81.4961 273.469 81.207 273.469 80.8711ZM271.969 95.6719C272.805 95.5938 273.332 95.4531 273.551 95.25C273.77 95.0391 273.879 94.4766 273.879 93.5625V87.9727C273.879 87.4648 273.844 87.1133 273.773 86.918C273.656 86.5977 273.41 86.4375 273.035 86.4375C272.949 86.4375 272.863 86.4453 272.777 86.4609C272.699 86.4766 272.465 86.5391 272.074 86.6484V86.2852L272.578 86.1211C273.945 85.6758 274.898 85.3398 275.438 85.1133C275.656 85.0195 275.797 84.9727 275.859 84.9727C275.875 85.0273 275.883 85.0859 275.883 85.1484V93.5625C275.883 94.4531 275.988 95.0117 276.199 95.2383C276.418 95.4648 276.906 95.6094 277.664 95.6719V96H271.969V95.6719ZM278.262 81.0938V80.6953C279.152 80.4922 279.953 80.2656 280.664 80.0156C281.375 79.7656 281.758 79.6406 281.812 79.6406C281.828 79.6875 281.836 79.7344 281.836 79.7812V86.918C282.039 86.543 282.344 86.1875 282.75 85.8516C283.469 85.2656 284.297 84.9727 285.234 84.9727C286.383 84.9727 287.363 85.457 288.176 86.4258C288.988 87.3945 289.395 88.6523 289.395 90.1992C289.395 91.8555 288.867 93.2734 287.812 94.4531C286.758 95.6328 285.371 96.2227 283.652 96.2227C282.785 96.2227 281.934 96.0508 281.098 95.707C280.262 95.3633 279.844 95.0195 279.844 94.6758V82.2891C279.844 81.8359 279.781 81.5156 279.656 81.3281C279.531 81.1328 279.242 81.0352 278.789 81.0352L278.262 81.0938ZM281.789 94.2891C281.859 94.6953 282.164 94.9883 282.703 95.168C283.242 95.3398 283.715 95.4258 284.121 95.4258C285.215 95.4258 286.023 95.0156 286.547 94.1953C287.078 93.375 287.344 92.3828 287.344 91.2188C287.344 90.0547 287.098 88.9805 286.605 87.9961C286.113 87.0039 285.316 86.5078 284.215 86.5078C283.66 86.5078 283.117 86.6797 282.586 87.0234C282.055 87.3594 281.789 87.7891 281.789 88.3125V94.2891ZM295.676 85.0078C296.777 85.0078 297.742 85.3906 298.57 86.1562C299.398 86.9141 299.812 87.9922 299.812 89.3906H292.371C292.449 91.2031 292.859 92.5234 293.602 93.3516C294.344 94.1797 295.223 94.5938 296.238 94.5938C297.059 94.5938 297.75 94.3789 298.312 93.9492C298.875 93.5195 299.395 92.9102 299.871 92.1211L300.281 92.2617C299.961 93.2539 299.359 94.1719 298.477 95.0156C297.602 95.8594 296.527 96.2812 295.254 96.2812C293.785 96.2812 292.648 95.7266 291.844 94.6172C291.047 93.5078 290.648 92.2305 290.648 90.7852C290.648 89.2148 291.113 87.8594 292.043 86.7188C292.973 85.5781 294.184 85.0078 295.676 85.0078ZM294.996 85.8633C294.105 85.8633 293.426 86.2578 292.957 87.0469C292.707 87.4688 292.527 88 292.418 88.6406H297.363C297.277 87.8594 297.129 87.2773 296.918 86.8945C296.535 86.207 295.895 85.8633 294.996 85.8633ZM300.949 95.6133C301.668 95.5508 302.145 95.4258 302.379 95.2383C302.613 95.043 302.73 94.6328 302.73 94.0078V88.7227C302.73 87.9492 302.656 87.3984 302.508 87.0703C302.367 86.7344 302.105 86.5664 301.723 86.5664C301.645 86.5664 301.539 86.5781 301.406 86.6016C301.281 86.6172 301.148 86.6406 301.008 86.6719V86.2852C301.453 86.1289 301.91 85.9688 302.379 85.8047C302.848 85.6406 303.172 85.5234 303.352 85.4531C303.742 85.3047 304.145 85.1367 304.559 84.9492C304.613 84.9492 304.645 84.9688 304.652 85.0078C304.668 85.0469 304.676 85.1289 304.676 85.2539V87.1758C305.176 86.4805 305.656 85.9375 306.117 85.5469C306.586 85.1562 307.07 84.9609 307.57 84.9609C307.969 84.9609 308.293 85.082 308.543 85.3242C308.793 85.5586 308.918 85.8555 308.918 86.2148C308.918 86.5352 308.82 86.8047 308.625 87.0234C308.438 87.2422 308.199 87.3516 307.91 87.3516C307.613 87.3516 307.312 87.2148 307.008 86.9414C306.711 86.668 306.477 86.5312 306.305 86.5312C306.031 86.5312 305.695 86.7539 305.297 87.1992C304.898 87.6367 304.699 88.0898 304.699 88.5586V93.8438C304.699 94.5156 304.855 94.9844 305.168 95.25C305.48 95.5078 306 95.6289 306.727 95.6133V96H300.949V95.6133ZM309.445 90.5625C309.445 89.0078 309.938 87.6953 310.922 86.625C311.914 85.5469 313.188 85.0078 314.742 85.0078C316.289 85.0078 317.57 85.5156 318.586 86.5312C319.602 87.5469 320.109 88.8984 320.109 90.5859C320.109 92.1406 319.617 93.4922 318.633 94.6406C317.648 95.7891 316.375 96.3633 314.812 96.3633C313.312 96.3633 312.043 95.8125 311.004 94.7109C309.965 93.6094 309.445 92.2266 309.445 90.5625ZM314.414 85.7109C313.797 85.7109 313.262 85.9141 312.809 86.3203C312.027 87.0312 311.637 88.2578 311.637 90C311.637 91.3906 311.949 92.6875 312.574 93.8906C313.207 95.0938 314.082 95.6953 315.199 95.6953C316.074 95.6953 316.746 95.293 317.215 94.4883C317.691 93.6836 317.93 92.6289 317.93 91.3242C317.93 89.9727 317.629 88.6992 317.027 87.5039C316.426 86.3086 315.555 85.7109 314.414 85.7109ZM326.941 95.6133C327.66 95.5508 328.137 95.4258 328.371 95.2383C328.605 95.043 328.723 94.6328 328.723 94.0078V88.7227C328.723 87.9492 328.648 87.3984 328.5 87.0703C328.359 86.7344 328.098 86.5664 327.715 86.5664C327.637 86.5664 327.531 86.5781 327.398 86.6016C327.273 86.6172 327.141 86.6406 327 86.6719V86.2852C327.445 86.1289 327.902 85.9688 328.371 85.8047C328.84 85.6406 329.164 85.5234 329.344 85.4531C329.734 85.3047 330.137 85.1367 330.551 84.9492C330.605 84.9492 330.637 84.9688 330.645 85.0078C330.66 85.0469 330.668 85.1289 330.668 85.2539V87.1758C331.168 86.4805 331.648 85.9375 332.109 85.5469C332.578 85.1562 333.062 84.9609 333.562 84.9609C333.961 84.9609 334.285 85.082 334.535 85.3242C334.785 85.5586 334.91 85.8555 334.91 86.2148C334.91 86.5352 334.812 86.8047 334.617 87.0234C334.43 87.2422 334.191 87.3516 333.902 87.3516C333.605 87.3516 333.305 87.2148 333 86.9414C332.703 86.668 332.469 86.5312 332.297 86.5312C332.023 86.5312 331.688 86.7539 331.289 87.1992C330.891 87.6367 330.691 88.0898 330.691 88.5586V93.8438C330.691 94.5156 330.848 94.9844 331.16 95.25C331.473 95.5078 331.992 95.6289 332.719 95.6133V96H326.941V95.6133ZM336.797 80.8711C336.797 80.5352 336.914 80.2461 337.148 80.0039C337.383 79.7617 337.672 79.6406 338.016 79.6406C338.352 79.6406 338.637 79.7617 338.871 80.0039C339.113 80.2383 339.234 80.5273 339.234 80.8711C339.234 81.207 339.113 81.4961 338.871 81.7383C338.637 81.9727 338.352 82.0898 338.016 82.0898C337.672 82.0898 337.383 81.9727 337.148 81.7383C336.914 81.4961 336.797 81.207 336.797 80.8711ZM335.297 95.6719C336.133 95.5938 336.66 95.4531 336.879 95.25C337.098 95.0391 337.207 94.4766 337.207 93.5625V87.9727C337.207 87.4648 337.172 87.1133 337.102 86.918C336.984 86.5977 336.738 86.4375 336.363 86.4375C336.277 86.4375 336.191 86.4453 336.105 86.4609C336.027 86.4766 335.793 86.5391 335.402 86.6484V86.2852L335.906 86.1211C337.273 85.6758 338.227 85.3398 338.766 85.1133C338.984 85.0195 339.125 84.9727 339.188 84.9727C339.203 85.0273 339.211 85.0859 339.211 85.1484V93.5625C339.211 94.4531 339.316 95.0117 339.527 95.2383C339.746 95.4648 340.234 95.6094 340.992 95.6719V96H335.297V95.6719ZM342.75 92.3086H343.137C343.316 93.1992 343.559 93.8828 343.863 94.3594C344.41 95.2344 345.211 95.6719 346.266 95.6719C346.852 95.6719 347.312 95.5117 347.648 95.1914C347.992 94.8633 348.164 94.4414 348.164 93.9258C348.164 93.5977 348.066 93.2812 347.871 92.9766C347.676 92.6719 347.332 92.375 346.84 92.0859L345.527 91.3359C344.566 90.8203 343.859 90.3008 343.406 89.7773C342.953 89.2539 342.727 88.6367 342.727 87.9258C342.727 87.0508 343.039 86.332 343.664 85.7695C344.289 85.207 345.074 84.9258 346.02 84.9258C346.434 84.9258 346.887 85.0039 347.379 85.1602C347.879 85.3164 348.16 85.3945 348.223 85.3945C348.363 85.3945 348.465 85.375 348.527 85.3359C348.59 85.2969 348.645 85.2344 348.691 85.1484H348.973L349.055 88.418H348.691C348.535 87.6602 348.324 87.0703 348.059 86.6484C347.574 85.8672 346.875 85.4766 345.961 85.4766C345.414 85.4766 344.984 85.6445 344.672 85.9805C344.359 86.3164 344.203 86.7109 344.203 87.1641C344.203 87.8828 344.742 88.5234 345.82 89.0859L347.367 89.918C349.031 90.8242 349.863 91.8789 349.863 93.082C349.863 94.0039 349.516 94.7578 348.82 95.3438C348.133 95.9297 347.23 96.2227 346.113 96.2227C345.645 96.2227 345.113 96.1445 344.52 95.9883C343.926 95.832 343.574 95.7539 343.465 95.7539C343.371 95.7539 343.289 95.7891 343.219 95.8594C343.148 95.9219 343.094 96 343.055 96.0938H342.75V92.3086ZM354.574 85.1484V92.6484C354.574 93.1797 354.648 93.6055 354.797 93.9258C355.086 94.5195 355.617 94.8164 356.391 94.8164C356.922 94.8164 357.441 94.6406 357.949 94.2891C358.238 94.0938 358.531 93.8242 358.828 93.4805V87.0586C358.828 86.457 358.711 86.0625 358.477 85.875C358.242 85.6875 357.773 85.5742 357.07 85.5352V85.1484H360.855V93.3984C360.855 93.9297 360.949 94.2969 361.137 94.5C361.332 94.6953 361.738 94.7812 362.355 94.7578V95.0859C361.926 95.2031 361.609 95.293 361.406 95.3555C361.203 95.4102 360.863 95.5156 360.387 95.6719C360.184 95.7422 359.738 95.9102 359.051 96.1758C359.012 96.1758 358.988 96.1562 358.98 96.1172C358.973 96.0859 358.969 96.0469 358.969 96V94.1133C358.438 94.7461 357.953 95.2148 357.516 95.5195C356.852 95.9883 356.148 96.2227 355.406 96.2227C354.727 96.2227 354.086 95.9805 353.484 95.4961C352.875 95.0195 352.57 94.2188 352.57 93.0938V87.0117C352.57 86.3867 352.438 85.9688 352.172 85.7578C352 85.625 351.633 85.5312 351.07 85.4766V85.1484H354.574ZM364.102 92.3086H364.488C364.668 93.1992 364.91 93.8828 365.215 94.3594C365.762 95.2344 366.562 95.6719 367.617 95.6719C368.203 95.6719 368.664 95.5117 369 95.1914C369.344 94.8633 369.516 94.4414 369.516 93.9258C369.516 93.5977 369.418 93.2812 369.223 92.9766C369.027 92.6719 368.684 92.375 368.191 92.0859L366.879 91.3359C365.918 90.8203 365.211 90.3008 364.758 89.7773C364.305 89.2539 364.078 88.6367 364.078 87.9258C364.078 87.0508 364.391 86.332 365.016 85.7695C365.641 85.207 366.426 84.9258 367.371 84.9258C367.785 84.9258 368.238 85.0039 368.73 85.1602C369.23 85.3164 369.512 85.3945 369.574 85.3945C369.715 85.3945 369.816 85.375 369.879 85.3359C369.941 85.2969 369.996 85.2344 370.043 85.1484H370.324L370.406 88.418H370.043C369.887 87.6602 369.676 87.0703 369.41 86.6484C368.926 85.8672 368.227 85.4766 367.312 85.4766C366.766 85.4766 366.336 85.6445 366.023 85.9805C365.711 86.3164 365.555 86.7109 365.555 87.1641C365.555 87.8828 366.094 88.5234 367.172 89.0859L368.719 89.918C370.383 90.8242 371.215 91.8789 371.215 93.082C371.215 94.0039 370.867 94.7578 370.172 95.3438C369.484 95.9297 368.582 96.2227 367.465 96.2227C366.996 96.2227 366.465 96.1445 365.871 95.9883C365.277 95.832 364.926 95.7539 364.816 95.7539C364.723 95.7539 364.641 95.7891 364.57 95.8594C364.5 95.9219 364.445 96 364.406 96.0938H364.102V92.3086ZM376.125 96.2812C375.75 96.2812 375.434 96.1523 375.176 95.8945C374.918 95.6289 374.789 95.3125 374.789 94.9453C374.789 94.5781 374.918 94.2656 375.176 94.0078C375.441 93.75 375.758 93.6211 376.125 93.6211C376.492 93.6211 376.805 93.75 377.062 94.0078C377.32 94.2656 377.449 94.5781 377.449 94.9453C377.449 95.3125 377.32 95.6289 377.062 95.8945C376.812 96.1523 376.5 96.2812 376.125 96.2812Z" fill="#252525" fill-opacity="0.8"/>
</svg>
